{"glyphs":{"0":{"ha":916,"x_min":31,"x_max":885,"o":"m 885 427 q 850 246 885 326 q 756 110 815 165 q 620 24 697 54 q 458 -5 543 -5 q 283 28 363 -5 q 148 121 204 62 q 61 259 92 180 q 31 427 31 338 q 64 622 31 529 q 155 783 97 714 q 292 893 212 852 q 463 935 371 935 q 615 897 541 935 q 751 793 690 860 q 848 633 811 726 q 885 427 885 539 m 623 554 q 612 647 623 597 q 581 738 602 696 q 529 807 559 779 q 460 835 498 835 q 385 806 416 835 q 334 735 354 778 q 304 642 314 693 q 294 546 294 591 q 306 474 294 509 q 337 413 317 439 q 389 372 358 387 q 458 357 419 357 q 537 376 505 357 q 587 423 568 395 q 614 486 606 452 q 623 554 623 521 z "},"1":{"ha":587,"x_min":7,"x_max":553,"o":"m 553 201 q 530 117 553 155 q 470 51 507 78 q 388 8 433 24 q 296 -7 342 -7 q 211 64 243 -7 q 179 260 179 135 q 192 409 179 338 q 219 541 204 479 q 247 650 235 602 q 260 729 260 699 q 256 746 260 736 q 239 755 252 755 q 213 747 227 755 q 182 730 199 739 q 146 712 165 721 q 104 704 127 704 q 76 708 93 704 q 44 720 60 711 q 18 744 29 729 q 7 783 7 760 q 33 830 7 815 q 86 844 60 844 q 237 864 178 844 q 346 917 297 884 q 376 929 357 924 q 414 935 395 935 q 484 910 465 935 q 503 840 503 885 q 492 739 503 803 q 482 583 482 675 q 493 458 482 511 q 517 362 504 406 q 542 281 530 319 q 553 201 553 243 z "},"2":{"ha":747,"x_min":31,"x_max":717,"o":"m 717 138 q 700 69 717 97 q 645 25 684 41 q 545 1 607 8 q 389 -7 482 -7 q 250 5 315 -7 q 136 43 184 17 q 59 111 87 69 q 31 212 31 153 q 92 360 31 298 q 271 488 153 422 q 330 528 301 504 q 382 582 359 553 q 419 642 406 611 q 433 703 433 673 q 405 782 433 755 q 347 808 376 808 q 291 792 311 808 q 253 755 271 775 q 213 719 235 736 q 153 703 192 703 q 97 728 118 703 q 77 783 77 753 q 104 852 77 823 q 174 898 131 880 q 269 923 216 916 q 374 930 322 930 q 473 917 421 930 q 569 875 525 903 q 641 805 612 847 q 669 705 669 762 q 637 596 669 639 q 561 525 606 554 q 471 476 517 496 q 397 436 425 457 q 349 395 367 414 q 323 362 332 376 q 313 338 315 349 q 311 322 311 328 q 320 296 311 306 q 343 286 329 286 q 389 295 359 286 q 451 316 418 304 q 518 337 485 328 q 576 346 551 346 q 638 326 612 346 q 682 274 664 306 q 708 207 700 243 q 717 138 717 171 z "},"3":{"ha":726,"x_min":26,"x_max":700,"o":"m 700 271 q 673 152 700 204 q 602 65 647 100 q 499 13 557 31 q 379 -5 441 -5 q 236 24 301 -5 q 124 103 171 53 q 52 220 78 153 q 26 364 26 288 q 44 430 26 401 q 106 458 62 458 q 137 441 125 458 q 171 404 150 424 q 228 366 192 383 q 330 349 264 349 q 365 353 347 349 q 397 368 383 358 q 420 393 411 378 q 429 428 429 408 q 413 488 429 467 q 377 525 397 510 q 341 555 357 541 q 325 595 325 570 q 337 630 325 618 q 365 653 350 642 q 393 681 380 665 q 406 730 406 697 q 381 787 406 762 q 328 812 357 812 q 272 796 290 812 q 238 760 254 779 q 202 724 222 741 q 140 707 182 707 q 86 733 109 707 q 64 790 64 760 q 94 859 64 831 q 166 903 123 886 q 253 927 208 920 q 329 935 298 935 q 420 926 370 935 q 515 895 471 917 q 589 839 559 873 q 619 753 619 804 q 597 679 619 705 q 549 638 575 653 q 500 614 522 623 q 478 595 478 606 q 513 561 478 583 q 589 501 547 539 q 665 406 631 463 q 700 271 700 350 z "},"4":{"ha":835,"x_min":21,"x_max":821,"o":"m 821 332 q 724 267 821 267 q 683 273 705 267 q 650 278 661 279 q 646 270 644 278 q 653 250 648 261 q 662 225 657 239 q 667 199 667 211 q 646 123 667 160 q 590 57 625 86 q 510 11 555 28 q 414 -7 464 -7 q 362 14 382 -7 q 331 65 342 35 q 315 132 319 96 q 307 199 310 168 q 303 250 304 229 q 296 271 301 271 q 252 267 275 271 q 203 258 228 262 q 155 249 179 253 q 109 244 131 244 q 45 271 69 244 q 21 349 21 297 q 42 422 21 380 q 118 514 64 464 q 190 585 153 547 q 262 661 228 623 q 326 735 297 699 q 374 803 355 772 q 421 869 399 844 q 466 908 444 895 q 508 925 488 921 q 549 929 529 929 q 611 906 591 929 q 631 847 631 884 q 625 793 631 821 q 612 730 619 765 q 598 651 604 694 q 593 550 593 607 q 595 494 593 524 q 601 439 597 464 q 610 398 604 414 q 623 382 615 382 q 642 385 629 382 q 671 392 654 387 q 705 399 688 396 q 737 401 722 401 q 804 378 787 401 q 821 332 821 355 m 310 479 q 293 526 310 526 q 268 519 283 526 q 236 497 252 511 q 211 465 221 484 q 200 427 200 447 q 217 390 200 399 q 249 380 235 380 q 295 410 279 380 q 310 479 310 439 z "},"5":{"ha":747,"x_min":26,"x_max":721,"o":"m 721 272 q 693 147 721 200 q 622 60 665 94 q 523 9 578 25 q 412 -7 468 -7 q 268 17 338 -7 q 144 86 199 41 q 58 195 90 131 q 26 339 26 258 q 36 399 26 378 q 58 431 46 421 q 83 444 71 441 q 100 446 96 446 q 145 430 125 446 q 192 396 165 415 q 258 362 218 378 q 363 346 298 346 q 427 366 400 346 q 453 419 453 386 q 441 465 453 444 q 411 501 429 486 q 368 524 392 515 q 319 532 343 532 q 237 526 269 532 q 183 514 204 521 q 146 502 161 507 q 117 496 131 496 q 54 517 77 496 q 32 570 32 538 q 48 638 32 595 q 87 728 64 681 q 136 820 110 775 q 182 893 161 865 q 224 930 205 925 q 260 935 243 935 q 322 928 282 935 q 412 921 363 921 q 494 926 461 921 q 558 932 528 932 q 642 907 610 932 q 673 843 673 882 q 651 783 673 810 q 586 757 628 757 q 544 765 564 757 q 506 781 525 772 q 465 797 486 789 q 419 804 444 804 q 374 802 396 804 q 346 793 353 799 q 334 767 342 790 q 322 716 326 743 q 318 667 318 689 q 328 644 318 644 q 369 638 336 644 q 445 617 401 632 q 537 574 488 602 q 626 506 586 547 q 694 408 667 465 q 721 272 721 350 z "},"6":{"ha":827,"x_min":31,"x_max":800,"o":"m 800 326 q 772 188 800 250 q 694 83 745 126 q 576 17 644 40 q 428 -7 509 -7 q 247 30 322 -7 q 123 125 171 66 q 53 257 75 183 q 31 407 31 332 q 42 519 31 460 q 76 638 53 579 q 137 751 100 697 q 227 845 174 804 q 348 910 279 886 q 504 935 416 935 q 582 926 543 935 q 651 902 621 918 q 701 860 682 885 q 720 802 720 835 q 702 749 720 774 q 644 725 684 725 q 587 740 607 725 q 552 771 567 754 q 519 803 536 789 q 472 818 503 818 q 380 786 418 818 q 321 712 343 754 q 293 628 300 669 q 290 568 286 586 q 304 564 294 554 q 325 583 311 571 q 362 606 339 595 q 417 627 385 618 q 493 636 450 636 q 604 616 549 636 q 702 557 659 596 q 773 460 746 518 q 800 326 800 403 m 541 429 q 511 490 541 465 q 436 515 481 515 q 360 490 390 515 q 330 429 330 465 q 359 372 330 400 q 436 343 387 343 q 508 365 475 343 q 541 429 541 387 z "},"7":{"ha":657,"x_min":7,"x_max":631,"o":"m 631 827 q 605 758 631 794 q 548 674 579 721 q 490 564 517 627 q 464 416 464 501 q 469 359 464 387 q 482 302 475 330 q 494 245 489 273 q 500 187 500 216 q 478 103 500 139 q 420 42 456 66 q 341 6 385 18 q 254 -5 297 -5 q 192 6 215 -5 q 156 39 168 18 q 141 89 144 60 q 138 151 138 118 q 155 309 138 228 q 205 461 172 390 q 283 589 239 532 q 380 704 328 646 q 407 733 393 718 q 421 758 421 747 q 413 769 421 766 q 395 772 404 772 q 340 761 367 772 q 284 734 313 749 q 224 708 256 720 q 153 696 192 696 q 92 709 119 696 q 46 744 65 722 q 17 794 28 765 q 7 856 7 823 q 23 898 7 882 q 64 922 40 914 q 113 933 87 930 q 158 936 139 936 q 238 926 199 936 q 317 916 277 916 q 415 924 366 916 q 513 932 464 932 q 596 905 561 932 q 631 827 631 878 z "},"8":{"ha":736,"x_min":20,"x_max":717,"o":"m 717 297 q 691 176 717 232 q 619 78 665 119 q 508 15 572 37 q 364 -8 443 -8 q 224 13 288 -8 q 115 74 160 33 q 44 173 69 114 q 20 307 20 232 q 52 438 20 385 q 124 527 85 492 q 197 583 164 562 q 229 612 229 603 q 217 630 229 621 q 191 654 205 639 q 164 693 176 669 q 151 753 151 717 q 170 832 151 799 q 220 888 189 865 q 289 922 250 911 q 368 933 328 933 q 454 922 414 933 q 524 890 494 911 q 572 839 554 869 q 590 768 590 808 q 572 699 590 728 q 532 652 554 671 q 492 622 510 633 q 473 603 473 610 q 492 588 473 599 q 537 561 510 578 q 595 519 564 543 q 654 462 627 494 q 699 388 681 429 q 717 297 717 347 m 416 745 q 394 797 416 779 q 346 814 371 814 q 298 799 318 814 q 278 760 278 783 q 288 724 278 742 q 312 692 298 707 q 339 669 325 677 q 361 660 353 660 q 376 667 367 660 q 395 687 386 675 q 410 714 404 699 q 416 745 416 729 m 469 418 q 452 458 469 437 q 413 497 435 479 q 371 526 392 514 q 343 538 350 538 q 319 527 332 538 q 295 501 306 517 q 276 466 283 485 q 268 431 268 447 q 281 390 268 406 q 312 365 294 374 q 350 351 330 355 q 383 347 370 347 q 413 351 397 347 q 440 362 428 354 q 461 384 453 371 q 469 418 469 397 z "},"9":{"ha":819,"x_min":26,"x_max":789,"o":"m 789 492 q 756 309 789 399 q 665 150 724 220 q 523 36 606 79 q 340 -7 440 -7 q 169 31 231 -7 q 107 122 107 68 q 129 181 107 161 q 182 201 150 201 q 238 187 220 201 q 272 156 257 172 q 302 124 286 139 q 349 110 318 110 q 433 131 396 110 q 494 187 469 153 q 532 265 519 221 q 545 354 545 309 q 539 431 545 397 q 525 471 533 464 q 513 449 521 473 q 483 393 505 424 q 417 337 461 363 q 298 311 374 311 q 199 329 248 311 q 112 383 150 347 q 50 473 74 419 q 26 600 26 528 q 54 738 26 676 q 130 841 82 799 q 241 906 178 884 q 376 929 304 929 q 541 896 465 929 q 671 804 616 863 q 758 665 726 745 q 789 492 789 585 m 467 732 q 437 786 467 764 q 370 808 407 808 q 291 783 319 808 q 262 725 262 757 q 294 672 262 692 q 367 652 325 652 q 442 676 418 652 q 467 732 467 700 z "}," ":{"ha":424,"x_min":0,"x_max":0,"o":""}," ":{"ha":424,"x_min":0,"x_max":0,"o":""},"Š":{"ha":807,"x_min":20,"x_max":781,"o":"m 781 285 q 754 156 781 211 q 681 65 728 102 q 569 12 633 29 q 431 -5 505 -5 q 268 23 343 -5 q 138 101 193 52 q 52 215 83 150 q 20 351 20 279 q 39 413 20 395 q 77 432 58 432 q 124 413 97 432 q 187 372 151 395 q 266 331 222 350 q 366 313 310 313 q 406 327 392 313 q 419 359 419 342 q 412 384 419 372 q 390 403 406 396 q 279 454 332 428 q 186 513 227 479 q 122 592 146 547 q 98 700 98 637 q 119 792 98 751 q 178 862 140 833 q 267 906 215 890 q 382 921 319 921 q 501 909 450 921 q 585 877 551 897 q 634 833 618 857 q 650 783 650 808 q 630 728 650 755 q 559 701 610 701 q 501 717 521 701 q 465 752 481 733 q 429 786 449 771 q 371 802 408 802 q 317 785 340 802 q 294 734 294 768 q 310 687 294 707 q 348 653 325 668 q 399 630 371 639 q 453 614 427 621 q 543 585 488 604 q 651 528 599 566 q 742 431 704 490 q 781 285 781 372 m 591 1100 q 582 1072 591 1083 q 557 1059 572 1061 q 496 1035 518 1050 q 453 989 473 1019 q 430 967 441 974 q 403 961 418 961 q 364 985 375 961 q 281 1061 342 1036 q 256 1079 268 1067 q 244 1111 244 1092 q 259 1149 244 1136 q 292 1162 273 1162 q 319 1156 302 1162 q 346 1131 335 1150 q 374 1079 364 1099 q 392 1059 383 1059 q 404 1076 396 1059 q 425 1114 411 1093 q 459 1152 439 1135 q 510 1169 479 1169 q 569 1146 546 1169 q 591 1100 591 1124 z "},"š":{"ha":600,"x_min":14,"x_max":581,"o":"m 581 214 q 569 145 581 183 q 528 73 557 107 q 449 16 498 39 q 323 -7 399 -7 q 175 24 235 -7 q 80 97 115 54 q 29 184 45 139 q 14 257 14 229 q 26 296 14 277 q 62 315 39 315 q 97 300 79 315 q 136 267 114 285 q 184 234 158 249 q 244 218 211 218 q 279 230 268 218 q 290 257 290 241 q 260 313 290 290 q 192 358 229 335 q 123 415 154 382 q 93 503 93 449 q 104 557 93 530 q 139 608 115 585 q 199 645 163 631 q 288 659 236 659 q 422 631 370 659 q 475 553 475 603 q 458 510 475 529 q 411 492 441 492 q 371 502 389 492 q 340 524 354 511 q 314 546 326 536 q 286 555 301 555 q 255 545 264 555 q 245 522 245 534 q 278 481 245 500 q 363 443 310 463 q 417 422 380 436 q 490 382 453 408 q 553 315 526 355 q 581 214 581 275 m 482 836 q 472 808 482 819 q 447 794 463 798 q 386 771 408 786 q 343 725 364 755 q 320 704 332 710 q 293 697 309 697 q 254 721 265 697 q 171 798 232 772 q 146 815 158 803 q 135 847 135 828 q 150 885 135 872 q 182 899 164 899 q 209 892 193 899 q 236 867 225 886 q 264 814 254 835 q 282 794 273 794 q 294 812 286 794 q 315 850 301 829 q 349 888 329 871 q 400 905 370 905 q 459 883 436 905 q 482 836 482 860 z "},"Ý":{"ha":901,"x_min":7,"x_max":882,"o":"m 882 637 q 862 451 882 553 q 802 248 842 350 q 706 51 762 146 q 577 -119 650 -45 q 416 -238 504 -193 q 228 -282 329 -282 q 154 -256 183 -282 q 125 -183 125 -231 q 153 -122 125 -147 q 215 -97 180 -97 q 275 -103 245 -97 q 332 -109 304 -109 q 368 -103 345 -109 q 416 -87 392 -97 q 457 -65 440 -78 q 475 -36 475 -52 q 463 -18 475 -25 q 387 31 422 5 q 315 90 351 57 q 201 223 257 144 q 103 390 146 301 q 33 571 60 478 q 7 749 7 664 q 10 814 7 783 q 26 869 14 846 q 63 907 39 893 q 127 921 87 921 q 229 906 180 921 q 315 863 278 892 q 374 790 351 833 q 396 689 396 746 q 392 634 396 661 q 389 579 389 607 q 402 499 389 541 q 440 424 415 458 q 501 367 465 389 q 579 345 536 345 q 628 362 608 345 q 661 404 648 379 q 679 458 673 429 q 685 511 685 488 q 674 594 685 553 q 652 676 664 636 q 630 757 640 717 q 619 835 619 798 q 646 902 619 884 q 717 921 672 921 q 803 892 771 921 q 853 820 835 863 q 876 728 871 778 q 882 637 882 679 m 570 1112 q 557 1051 570 1079 q 524 1003 545 1023 q 476 971 503 982 q 422 960 450 960 q 362 981 383 960 q 340 1032 340 1003 q 386 1082 340 1074 q 456 1106 427 1089 q 515 1162 486 1122 q 526 1174 521 1169 q 539 1179 530 1179 q 554 1172 549 1179 q 563 1154 559 1164 q 568 1132 567 1143 q 570 1112 570 1120 z "},"ý":{"ha":743,"x_min":7,"x_max":724,"o":"m 724 525 q 679 215 724 363 q 560 -47 633 66 q 392 -227 486 -160 q 200 -294 298 -294 q 119 -272 151 -294 q 86 -210 86 -249 q 107 -164 86 -182 q 160 -146 129 -146 q 212 -154 187 -146 q 257 -161 236 -161 q 324 -144 292 -161 q 378 -106 357 -127 q 407 -65 400 -85 q 397 -39 414 -45 q 260 50 329 -14 q 134 197 191 113 q 42 377 78 281 q 7 566 7 473 q 21 618 7 599 q 57 648 35 637 q 106 661 79 659 q 158 664 132 664 q 248 645 201 664 q 318 575 294 625 q 338 513 334 543 q 345 454 343 482 q 351 397 347 425 q 364 345 354 370 q 420 269 383 296 q 489 241 457 241 q 510 245 497 241 q 534 260 522 249 q 555 292 546 272 q 564 346 564 313 q 558 404 564 374 q 547 465 553 435 q 535 522 541 494 q 529 570 529 549 q 553 632 529 606 q 627 659 578 659 q 699 623 675 659 q 724 525 724 587 m 568 857 q 556 796 568 823 q 522 747 543 768 q 475 715 501 726 q 421 704 449 704 q 360 726 382 704 q 339 777 339 747 q 385 827 339 818 q 455 850 425 833 q 514 907 485 867 q 524 919 519 914 q 538 924 529 924 q 553 916 547 924 q 562 898 558 908 q 567 876 566 888 q 568 857 568 864 z "},"Þ":{"ha":778,"x_min":35,"x_max":758,"o":"m 758 591 q 740 505 758 547 q 687 429 722 463 q 600 376 652 396 q 478 355 547 355 q 434 357 457 355 q 396 359 411 359 q 374 357 383 359 q 366 339 366 354 q 371 312 366 328 q 383 276 376 296 q 396 233 390 256 q 401 184 401 210 q 377 110 401 144 q 315 50 353 75 q 235 9 278 24 q 154 -5 192 -5 q 115 6 136 -5 q 76 59 93 18 q 46 180 58 100 q 35 399 35 261 q 44 545 35 467 q 74 704 54 623 q 124 867 93 785 q 199 1029 155 950 q 315 1103 240 1103 q 380 1083 353 1103 q 408 1022 408 1063 q 394 972 408 999 q 357 926 380 946 q 361 918 350 920 q 503 890 432 911 q 631 831 574 869 q 723 734 688 793 q 758 591 758 675 m 504 713 q 496 744 504 729 q 474 769 488 758 q 443 787 460 781 q 406 794 425 794 q 360 780 382 794 q 338 733 338 765 q 360 676 338 697 q 422 654 382 654 q 485 673 467 654 q 504 713 504 692 z "},"þ":{"ha":875,"x_min":35,"x_max":848,"o":"m 848 294 q 828 171 848 227 q 771 76 808 115 q 679 16 733 37 q 557 -5 625 -5 q 455 11 498 -5 q 375 53 411 26 q 309 113 339 79 q 248 182 278 147 q 241 186 243 186 q 239 180 239 186 q 242 162 239 174 q 250 139 245 151 q 258 116 254 126 q 264 98 262 106 q 287 39 273 74 q 314 -33 301 4 q 337 -105 328 -69 q 346 -167 346 -140 q 307 -260 346 -229 q 208 -292 268 -292 q 128 -267 165 -292 q 75 -187 90 -241 q 56 -99 64 -150 q 44 5 49 -47 q 37 103 39 57 q 35 174 35 149 q 43 353 35 272 q 66 500 52 433 q 101 622 81 567 q 146 726 121 677 q 199 803 170 771 q 271 835 229 835 q 335 813 307 835 q 363 747 363 791 q 314 643 363 696 q 311 637 311 640 q 318 637 311 635 q 371 651 342 646 q 446 657 400 657 q 584 634 513 657 q 714 565 656 611 q 810 451 772 519 q 848 294 848 383 m 614 412 q 598 471 614 446 q 557 514 582 497 q 501 541 532 532 q 441 550 471 550 q 396 545 419 550 q 355 528 374 539 q 325 498 336 517 q 314 453 314 479 q 332 396 314 421 q 378 354 350 371 q 437 329 406 338 q 497 319 469 319 q 539 325 518 319 q 576 341 559 330 q 603 370 593 353 q 614 412 614 387 z "},"Ž":{"ha":726,"x_min":17,"x_max":708,"o":"m 510 1100 q 500 1072 510 1083 q 475 1059 490 1061 q 414 1035 436 1050 q 371 989 392 1019 q 348 967 359 974 q 321 961 336 961 q 282 985 293 961 q 199 1061 260 1036 q 174 1079 186 1067 q 163 1111 163 1092 q 177 1149 163 1136 q 210 1162 192 1162 q 237 1156 221 1162 q 264 1131 253 1150 q 292 1079 282 1099 q 310 1059 301 1059 q 321 1076 314 1059 q 343 1114 329 1093 q 377 1152 357 1135 q 428 1169 397 1169 q 487 1146 464 1169 q 510 1100 510 1124 m 708 140 q 679 56 708 85 q 606 13 650 26 q 514 -3 562 -1 q 425 -5 465 -5 q 365 -5 404 -5 q 282 -2 325 -4 q 203 6 240 0 q 147 22 165 12 q 49 125 81 61 q 17 264 17 189 q 41 346 17 300 q 100 437 65 392 q 172 522 135 482 q 235 585 210 561 q 347 677 292 637 q 460 761 403 717 q 478 777 473 772 q 482 786 482 782 q 458 797 482 791 q 383 802 435 802 q 300 787 332 802 q 246 754 269 772 q 201 721 222 736 q 150 707 180 707 q 92 728 117 707 q 66 786 66 750 q 85 842 66 819 q 132 881 103 865 q 197 903 161 896 q 270 915 233 911 q 338 920 306 920 q 393 921 371 921 q 461 919 418 921 q 546 906 504 917 q 618 876 587 896 q 648 818 648 856 q 636 766 648 786 q 600 726 624 746 q 510 645 554 690 q 431 548 465 600 q 376 439 397 496 q 354 321 354 382 q 355 299 354 310 q 371 289 357 289 q 408 297 386 289 q 457 316 431 306 q 512 335 484 326 q 570 343 541 343 q 632 322 606 343 q 675 270 659 301 q 700 203 692 239 q 708 140 708 168 z "},"ž":{"ha":538,"x_min":20,"x_max":550,"o":"m 435 836 q 425 808 435 819 q 400 794 415 798 q 339 771 361 786 q 296 725 317 755 q 273 704 285 710 q 245 697 261 697 q 207 721 218 697 q 123 798 184 772 q 99 815 111 803 q 87 847 87 828 q 102 885 87 872 q 135 899 117 899 q 162 892 146 899 q 189 867 178 886 q 217 814 207 835 q 235 794 227 794 q 247 812 239 794 q 268 850 254 829 q 302 888 282 871 q 353 905 322 905 q 412 883 389 905 q 435 836 435 860 m 550 110 q 537 52 550 74 q 488 17 524 29 q 392 -3 446 1 q 293 -7 338 -7 q 216 -5 257 -7 q 140 8 175 -3 q 94 32 115 16 q 55 69 72 47 q 29 115 39 90 q 20 165 20 140 q 40 257 20 212 q 93 340 61 301 q 161 412 125 379 q 229 469 197 444 q 282 509 261 493 q 302 530 302 525 q 287 547 302 543 q 261 550 271 550 q 212 540 232 550 q 175 518 192 530 q 141 496 158 505 q 102 486 125 486 q 56 503 74 486 q 39 547 39 519 q 68 607 39 585 q 139 641 98 629 q 223 656 180 653 q 292 659 265 659 q 354 656 318 659 q 422 643 390 653 q 477 611 454 632 q 500 554 500 590 q 485 506 500 525 q 447 473 469 488 q 397 445 424 458 q 349 414 371 432 q 286 333 304 378 q 268 254 268 288 q 281 240 268 240 q 306 249 292 240 q 338 269 321 258 q 376 288 355 279 q 419 297 397 297 q 474 277 450 297 q 515 229 498 257 q 541 168 532 200 q 550 110 550 135 z "},"¦":{"ha":228,"x_min":35,"x_max":193,"o":"m 193 579 q 172 514 193 538 q 113 490 151 490 q 56 513 77 490 q 35 579 35 536 q 39 642 35 612 q 43 715 43 671 q 39 804 43 768 q 35 868 35 840 q 53 932 35 905 q 113 958 72 958 q 173 932 153 958 q 193 868 193 907 q 189 806 193 840 q 184 714 184 771 q 189 642 184 673 q 193 579 193 611 m 193 54 q 173 -10 193 16 q 113 -36 153 -36 q 53 -9 72 -36 q 35 54 35 17 q 39 117 35 82 q 43 207 43 153 q 39 281 43 252 q 35 343 35 310 q 56 409 35 386 q 113 432 77 432 q 172 408 151 432 q 193 343 193 385 q 189 279 193 310 q 184 208 184 248 q 189 117 184 151 q 193 54 193 82 z "},"−":{"ha":518,"x_min":35,"x_max":484,"o":"m 484 424 q 463 368 484 395 q 406 342 441 342 q 329 345 366 342 q 258 347 292 347 q 187 343 224 347 q 114 339 150 339 q 58 361 82 339 q 35 421 35 383 q 59 472 35 449 q 115 494 83 494 q 185 492 149 494 q 260 489 221 489 q 298 490 282 489 q 329 494 314 492 q 360 497 343 496 q 399 498 376 498 q 457 479 431 498 q 484 424 484 460 z "},"×":{"ha":786,"x_min":20,"x_max":766,"o":"m 766 66 q 726 11 766 29 q 635 -7 686 -7 q 552 2 591 -7 q 485 39 513 11 q 445 103 461 61 q 419 186 429 144 q 404 258 410 228 q 392 289 397 289 q 381 258 387 289 q 365 184 375 227 q 337 99 354 142 q 294 32 321 56 q 235 2 271 11 q 153 -7 199 -7 q 105 -3 129 -7 q 62 10 81 0 q 31 35 43 20 q 20 72 20 50 q 39 156 20 117 q 87 230 58 196 q 151 291 117 264 q 215 337 186 318 q 264 369 244 357 q 283 385 283 382 q 268 397 283 387 q 228 421 252 407 q 176 455 204 436 q 123 494 147 473 q 84 537 100 515 q 68 581 68 559 q 78 617 68 602 q 105 641 89 632 q 143 654 122 650 q 183 659 164 659 q 241 650 212 659 q 290 618 271 642 q 322 565 306 602 q 352 490 338 528 q 378 423 367 452 q 392 395 389 395 q 407 422 396 395 q 432 487 418 450 q 463 561 447 524 q 493 615 479 597 q 538 647 509 636 q 599 659 568 659 q 641 654 619 659 q 679 641 663 650 q 706 617 696 632 q 717 579 717 602 q 683 513 717 546 q 608 454 648 481 q 533 408 567 427 q 498 385 498 390 q 519 370 498 382 q 568 339 539 358 q 633 292 597 319 q 697 231 668 265 q 746 155 726 196 q 766 66 766 114 z "},"!":{"ha":403,"x_min":35,"x_max":376,"o":"m 376 760 q 365 692 376 726 q 338 622 353 659 q 311 544 323 585 q 298 454 298 503 q 303 392 298 422 q 307 329 307 361 q 282 254 307 282 q 208 227 257 227 q 147 238 172 227 q 102 277 122 249 q 71 347 83 301 q 50 445 58 393 q 38 547 41 497 q 35 628 35 596 q 39 708 35 657 q 55 810 43 760 q 92 898 68 861 q 155 935 115 935 q 231 923 192 935 q 303 888 271 911 q 356 833 335 865 q 376 760 376 802 m 370 114 q 352 65 370 87 q 309 27 335 43 q 255 2 283 11 q 204 -7 227 -7 q 156 5 180 -7 q 132 45 132 17 q 150 94 132 72 q 192 133 167 117 q 246 157 216 149 q 298 165 275 165 q 346 154 322 165 q 370 114 370 142 z "},"\"":{"ha":465,"x_min":26,"x_max":440,"o":"m 211 842 q 201 752 214 796 q 171 679 189 708 q 144 646 160 660 q 111 632 127 632 q 57 692 61 632 q 50 740 56 720 q 40 779 45 761 q 31 814 35 798 q 26 851 26 831 q 30 872 26 860 q 42 897 33 885 q 67 918 52 909 q 110 926 83 926 q 155 918 136 926 q 186 897 174 909 q 205 870 199 885 q 211 842 211 856 m 437 842 q 428 752 440 796 q 397 679 415 708 q 370 646 386 660 q 338 632 354 632 q 283 692 288 632 q 276 740 282 720 q 266 779 271 761 q 257 814 261 798 q 253 851 253 831 q 256 872 253 860 q 269 897 260 885 q 294 918 278 909 q 336 926 310 926 q 381 918 363 926 q 413 897 400 909 q 431 870 425 885 q 437 842 437 856 z "},"#":{"ha":1080,"x_min":35,"x_max":1046,"o":"m 1046 637 q 1013 579 1046 596 q 926 562 979 562 q 892 564 914 562 q 847 567 869 566 q 808 569 825 568 q 790 568 791 570 q 784 553 789 568 q 772 516 779 538 q 758 469 765 494 q 745 423 751 444 q 735 387 739 401 q 733 371 732 372 q 753 371 734 370 q 796 374 772 372 q 842 376 819 375 q 873 378 865 378 q 936 358 918 378 q 954 311 954 339 q 921 253 954 269 q 835 236 888 236 q 801 237 822 236 q 760 239 781 239 q 723 241 739 240 q 704 240 707 241 q 699 223 703 239 q 692 187 696 207 q 686 146 689 167 q 682 117 684 126 q 639 22 671 50 q 578 -7 607 -7 q 512 14 529 -7 q 496 62 496 35 q 506 111 496 81 q 527 170 515 140 q 548 221 539 199 q 554 244 557 243 q 528 247 553 245 q 475 248 504 248 q 421 249 446 249 q 395 248 397 249 q 388 228 392 245 q 380 188 385 210 q 374 144 376 165 q 370 117 371 123 q 326 22 358 50 q 265 -7 294 -7 q 200 14 216 -7 q 183 62 183 35 q 192 104 183 75 q 213 163 201 132 q 233 217 224 193 q 240 241 241 240 q 225 242 240 243 q 190 239 210 241 q 152 236 171 237 q 125 235 134 235 q 35 297 35 235 q 62 358 35 335 q 139 380 90 380 q 170 379 146 380 q 218 376 193 378 q 264 372 243 374 q 286 371 285 371 q 298 402 289 372 q 317 468 307 432 q 334 535 326 504 q 342 567 342 566 q 325 569 342 570 q 287 566 309 568 q 245 562 265 564 q 216 561 225 561 q 126 624 126 561 q 154 684 126 661 q 231 707 182 707 q 260 705 237 707 q 306 701 282 703 q 350 698 330 699 q 371 699 370 697 q 376 723 372 700 q 384 774 379 746 q 394 828 389 802 q 400 861 399 854 q 503 930 416 930 q 558 910 543 930 q 572 859 572 890 q 564 811 572 839 q 546 757 555 783 q 528 711 536 730 q 521 690 519 692 q 547 688 522 689 q 600 688 571 688 q 654 688 629 688 q 681 689 679 688 q 688 715 684 690 q 696 770 692 741 q 705 827 700 800 q 711 861 710 854 q 815 930 729 930 q 870 910 856 930 q 885 859 885 890 q 877 816 885 843 q 860 763 869 789 q 844 718 850 737 q 839 699 838 699 q 860 698 843 697 q 897 700 876 699 q 937 703 918 701 q 964 704 956 704 q 1027 685 1008 704 q 1046 637 1046 665 m 654 570 q 628 573 654 572 q 570 574 602 574 q 512 575 539 575 q 482 574 485 575 q 469 541 479 572 q 447 470 458 509 q 429 400 436 432 q 422 367 421 368 q 451 364 424 366 q 510 362 478 363 q 569 362 542 361 q 597 364 596 363 q 608 397 599 366 q 627 467 616 429 q 646 536 637 504 q 654 570 654 568 z "},"$":{"ha":804,"x_min":20,"x_max":778,"o":"m 778 285 q 751 160 778 214 q 681 71 725 107 q 576 17 636 35 q 452 -1 517 -1 q 444 -7 444 -1 q 443 -17 443 -12 q 449 -70 443 -45 q 454 -123 454 -96 q 435 -174 454 -157 q 383 -191 415 -191 q 333 -173 354 -191 q 311 -125 311 -155 q 319 -66 311 -96 q 326 -8 326 -37 q 317 8 326 5 q 278 20 298 16 q 232 37 258 25 q 152 90 191 58 q 84 160 114 121 q 37 244 54 199 q 20 339 20 290 q 22 369 20 353 q 29 400 24 386 q 46 424 35 414 q 77 433 58 433 q 127 415 100 433 q 189 373 154 396 q 267 331 224 350 q 366 313 310 313 q 405 327 390 313 q 419 359 419 340 q 412 384 419 372 q 390 403 406 396 q 279 454 332 428 q 186 513 227 479 q 122 592 146 547 q 98 700 98 637 q 141 827 98 777 q 256 901 184 878 q 289 911 275 908 q 319 918 302 914 q 324 924 323 920 q 325 932 325 928 q 319 994 325 964 q 314 1055 314 1025 q 335 1102 314 1086 q 383 1117 355 1117 q 438 1099 421 1117 q 454 1043 454 1082 q 449 987 454 1015 q 444 932 444 960 q 445 923 444 925 q 449 920 446 921 q 468 915 454 917 q 497 908 481 913 q 549 892 522 903 q 598 866 576 882 q 634 830 621 851 q 648 779 648 808 q 620 723 648 743 q 558 703 591 703 q 502 719 522 703 q 463 753 481 734 q 426 788 446 772 q 370 803 406 803 q 316 785 339 803 q 293 734 293 766 q 310 685 293 705 q 353 650 328 664 q 408 627 379 636 q 458 611 436 618 q 578 569 521 595 q 681 504 636 543 q 751 411 725 465 q 778 285 778 357 z "},"%":{"ha":1121,"x_min":26,"x_max":1095,"o":"m 526 659 q 507 560 526 603 q 453 486 488 517 q 373 440 419 456 q 275 424 328 424 q 179 440 224 424 q 99 487 134 457 q 46 560 65 517 q 26 656 26 603 q 46 756 26 711 q 100 834 65 802 q 181 884 135 867 q 281 901 227 901 q 378 883 334 901 q 456 832 422 864 q 508 756 489 800 q 526 659 526 711 m 869 736 q 843 663 869 694 q 789 603 817 631 q 636 438 713 526 q 492 256 559 350 q 458 207 476 233 q 419 158 440 180 q 372 120 397 135 q 318 104 347 104 q 266 118 289 104 q 243 165 243 132 q 253 201 243 183 q 277 235 262 218 q 308 266 292 252 q 335 290 323 279 q 507 472 427 378 q 659 669 587 566 q 692 722 677 697 q 726 770 707 746 q 756 794 739 783 q 791 804 772 804 q 846 787 823 804 q 869 736 869 770 m 1095 229 q 1075 130 1095 174 q 1021 56 1055 86 q 940 9 986 25 q 840 -7 895 -7 q 744 10 789 -7 q 667 57 700 26 q 614 131 633 87 q 595 227 595 174 q 614 327 595 282 q 667 405 633 372 q 746 455 700 437 q 847 472 793 472 q 945 453 900 472 q 1024 403 990 435 q 1076 327 1057 371 q 1095 229 1095 282 m 367 737 q 342 802 367 779 q 275 825 317 825 q 212 802 237 825 q 186 739 186 778 q 213 680 186 703 q 277 657 240 657 q 340 678 313 657 q 367 737 367 699 m 933 307 q 907 372 933 350 q 842 395 882 395 q 778 372 803 395 q 753 310 753 349 q 781 251 753 273 q 843 228 808 228 q 906 249 879 228 q 933 307 933 269 z "},"&":{"ha":1029,"x_min":28,"x_max":1026,"o":"m 1026 572 q 1005 511 1026 536 q 946 486 985 486 q 896 492 913 486 q 865 497 879 497 q 857 486 857 497 q 871 436 857 469 q 902 360 885 403 q 932 271 918 318 q 946 182 946 224 q 922 114 946 143 q 858 63 897 85 q 769 28 818 41 q 670 7 720 16 q 575 -5 621 -1 q 500 -8 530 -8 q 335 8 419 -8 q 183 65 252 25 q 71 170 114 104 q 28 334 28 236 q 73 473 28 419 q 195 557 118 526 q 222 568 210 564 q 235 578 235 572 q 221 589 235 583 q 196 599 207 595 q 130 644 151 614 q 109 722 109 673 q 123 789 109 758 q 161 845 138 821 q 214 887 184 869 q 277 914 244 904 q 399 933 334 933 q 475 928 432 933 q 556 906 518 922 q 621 862 595 890 q 647 789 647 833 q 638 757 647 771 q 615 733 629 743 q 585 719 602 724 q 553 714 568 714 q 508 729 526 714 q 474 761 490 743 q 440 794 458 779 q 396 808 422 808 q 347 793 367 808 q 328 746 328 778 q 339 704 328 721 q 362 672 350 688 q 386 641 375 657 q 397 603 397 625 q 382 563 397 579 q 348 531 367 546 q 313 498 329 515 q 297 456 297 481 q 315 405 297 425 q 360 372 334 385 q 418 355 386 359 q 476 350 450 350 q 536 361 505 350 q 592 390 567 372 q 632 432 616 408 q 648 482 648 456 q 648 490 648 485 q 640 496 647 496 q 613 488 631 496 q 576 479 596 479 q 517 507 536 479 q 497 571 497 534 q 526 633 497 611 q 591 656 555 656 q 623 652 608 656 q 656 644 637 648 q 699 635 675 639 q 757 632 724 632 q 816 636 791 632 q 860 646 840 640 q 899 656 880 652 q 939 660 917 660 q 1003 636 979 660 q 1026 572 1026 612 z "},"'":{"ha":239,"x_min":26,"x_max":214,"o":"m 211 842 q 201 752 214 796 q 171 679 189 708 q 144 646 160 660 q 111 632 127 632 q 57 692 61 632 q 50 740 56 720 q 40 779 45 761 q 31 814 35 798 q 26 851 26 831 q 30 872 26 860 q 42 897 33 885 q 67 918 52 909 q 110 926 83 926 q 155 918 136 926 q 186 897 174 909 q 205 870 199 885 q 211 842 211 856 z "},"(":{"ha":419,"x_min":35,"x_max":433,"o":"m 433 -214 q 419 -251 433 -235 q 386 -277 406 -267 q 342 -293 366 -288 q 300 -298 319 -298 q 229 -285 260 -298 q 179 -236 197 -272 q 125 -110 151 -179 q 78 36 98 -40 q 46 192 58 113 q 35 347 35 271 q 47 487 35 416 q 81 622 60 557 q 133 743 103 686 q 197 840 163 799 q 269 906 231 882 q 345 930 307 930 q 387 914 370 930 q 404 873 404 897 q 386 819 404 843 q 340 769 368 794 q 281 715 313 745 q 221 644 249 686 q 175 543 193 602 q 157 399 157 484 q 174 234 157 310 q 222 90 191 158 q 299 -40 253 22 q 403 -163 345 -102 q 426 -190 419 -180 q 433 -214 433 -199 z "},")":{"ha":419,"x_min":-14,"x_max":385,"o":"m 385 347 q 373 192 385 271 q 341 36 361 113 q 294 -110 321 -40 q 240 -236 268 -179 q 191 -285 222 -272 q 119 -298 160 -298 q 77 -293 100 -298 q 34 -277 54 -288 q 0 -251 14 -267 q -14 -214 -14 -235 q -7 -190 -14 -199 q 17 -163 -1 -182 q 122 -37 77 -98 q 199 93 168 25 q 247 235 231 160 q 262 399 262 310 q 244 542 262 482 q 199 644 227 602 q 139 715 171 686 q 79 769 107 745 q 34 819 52 794 q 16 873 16 843 q 33 914 16 897 q 75 930 50 930 q 152 906 114 930 q 223 840 189 882 q 287 743 257 799 q 338 622 317 686 q 372 487 359 557 q 385 347 385 416 z "},"*":{"ha":441,"x_min":28,"x_max":414,"o":"m 414 798 q 398 757 414 772 q 357 742 382 742 q 322 749 339 742 q 286 755 306 755 q 278 753 282 755 q 273 746 273 751 q 292 728 273 734 q 332 711 310 721 q 372 685 354 701 q 390 640 390 669 q 367 603 390 615 q 322 590 345 590 q 273 602 294 590 q 245 646 252 614 q 244 665 244 652 q 243 692 244 677 q 238 718 241 707 q 227 729 235 729 q 213 722 216 729 q 209 704 210 714 q 210 682 208 693 q 211 665 211 671 q 203 636 211 648 q 183 615 196 624 q 156 603 171 607 q 126 599 140 599 q 81 611 103 599 q 60 652 60 624 q 78 689 60 676 q 117 709 96 701 q 156 723 138 717 q 174 742 174 729 q 164 751 174 751 q 123 743 142 751 q 83 734 104 734 q 42 753 56 734 q 28 798 28 771 q 45 835 28 821 q 86 850 62 850 q 119 843 106 850 q 142 827 132 836 q 160 811 153 818 q 174 804 168 804 q 180 810 180 804 q 176 822 180 814 q 164 842 171 831 q 153 866 158 852 q 147 895 147 880 q 169 936 147 922 q 215 950 191 950 q 263 936 243 950 q 283 890 283 922 q 270 851 283 868 q 257 818 257 833 q 259 811 257 815 q 265 807 261 807 q 275 815 269 807 q 290 834 281 823 q 312 853 298 844 q 342 861 325 861 q 392 845 371 861 q 414 798 414 829 z "},"+":{"ha":694,"x_min":35,"x_max":660,"o":"m 660 424 q 635 365 660 387 q 574 343 610 343 q 537 345 561 343 q 490 347 514 346 q 446 349 465 349 q 424 346 427 349 q 420 323 419 343 q 422 278 421 302 q 426 228 424 253 q 428 191 428 203 q 406 133 428 157 q 347 110 385 110 q 294 134 317 110 q 271 192 271 158 q 273 228 271 203 q 277 278 275 253 q 278 323 278 302 q 273 346 278 343 q 251 348 271 349 q 205 346 231 347 q 153 342 179 345 q 115 340 127 340 q 58 362 82 340 q 35 422 35 385 q 60 474 35 452 q 117 497 85 497 q 153 496 127 497 q 203 494 178 494 q 249 493 229 493 q 272 496 269 493 q 274 517 275 498 q 272 560 273 536 q 269 608 271 583 q 267 646 267 632 q 287 708 267 681 q 343 734 307 734 q 373 728 358 734 q 399 711 387 722 q 419 685 411 700 q 427 654 427 671 q 425 616 427 642 q 421 565 422 591 q 419 519 419 539 q 424 496 419 498 q 445 495 427 494 q 486 497 463 496 q 533 500 509 498 q 571 503 557 503 q 633 483 606 503 q 660 424 660 464 z "},",":{"ha":292,"x_min":8,"x_max":265,"o":"m 265 102 q 249 25 265 64 q 206 -45 233 -14 q 144 -97 179 -77 q 68 -117 109 -117 q 27 -107 46 -117 q 8 -72 8 -98 q 20 -39 8 -50 q 46 -19 32 -28 q 72 -2 60 -11 q 83 25 83 7 q 77 46 83 36 q 62 71 71 57 q 48 101 54 85 q 41 142 41 118 q 69 214 41 187 q 144 241 97 241 q 196 230 174 241 q 234 199 218 218 q 258 154 250 179 q 265 102 265 129 z "},"-":{"ha":486,"x_min":35,"x_max":452,"o":"m 452 422 q 431 368 452 393 q 374 342 410 342 q 304 344 334 342 q 241 346 275 346 q 179 342 208 346 q 113 339 150 339 q 58 360 81 339 q 35 418 35 382 q 58 469 35 447 q 114 492 82 492 q 177 490 149 492 q 243 488 205 488 q 279 489 265 488 q 305 492 293 490 q 331 494 317 493 q 367 496 345 496 q 425 476 399 496 q 452 422 452 457 z "},".":{"ha":286,"x_min":26,"x_max":260,"o":"m 260 104 q 242 57 260 79 q 200 19 225 35 q 146 -6 175 3 q 97 -16 118 -16 q 49 -4 72 -16 q 26 36 26 7 q 43 85 26 64 q 85 123 60 107 q 138 147 110 139 q 189 155 167 155 q 236 144 212 155 q 260 104 260 132 z "},"/":{"ha":460,"x_min":4,"x_max":447,"o":"m 439 821 q 384 695 421 781 q 293 461 347 610 q 255 352 273 408 q 219 244 236 296 q 191 153 203 193 q 174 93 179 113 q 130 13 158 32 q 78 -7 102 -7 q 18 27 32 -7 q 25 98 4 61 q 61 168 45 132 q 96 247 78 203 q 135 348 114 292 q 182 478 155 404 q 257 700 227 600 q 309 875 288 800 q 337 920 318 909 q 379 930 357 930 q 415 921 400 930 q 438 895 431 911 q 446 860 446 879 q 439 821 447 840 z "},":":{"ha":289,"x_min":26,"x_max":262,"o":"m 262 125 q 245 77 262 98 q 202 40 228 56 q 147 15 176 24 q 96 5 118 5 q 49 17 72 5 q 26 56 26 28 q 44 105 26 83 q 86 144 61 127 q 140 168 111 160 q 192 176 168 176 q 239 164 215 176 q 262 125 262 153 m 262 399 q 245 350 262 372 q 202 312 228 328 q 147 287 176 296 q 96 278 118 278 q 49 290 72 278 q 26 329 26 301 q 44 379 26 357 q 86 417 61 401 q 140 442 111 433 q 192 450 168 450 q 239 438 215 450 q 262 399 262 427 z "},";":{"ha":292,"x_min":8,"x_max":265,"o":"m 265 102 q 249 25 265 64 q 206 -45 233 -14 q 144 -97 179 -77 q 68 -117 109 -117 q 27 -107 46 -117 q 8 -72 8 -98 q 20 -39 8 -50 q 46 -19 32 -28 q 72 -2 60 -11 q 83 25 83 7 q 77 46 83 36 q 62 71 71 57 q 48 101 54 85 q 41 142 41 118 q 69 214 41 187 q 144 241 97 241 q 196 230 174 241 q 234 199 218 218 q 258 154 250 179 q 265 102 265 129 m 248 399 q 230 350 248 372 q 187 312 212 328 q 132 287 161 296 q 81 278 103 278 q 34 290 57 278 q 11 329 11 301 q 28 379 11 357 q 71 417 46 401 q 124 442 96 433 q 176 450 153 450 q 224 438 200 450 q 248 399 248 427 z "},"<":{"ha":408,"x_min":26,"x_max":374,"o":"m 374 218 q 344 138 374 172 q 269 103 314 103 q 192 167 208 103 q 65 375 157 297 q 35 411 43 395 q 26 443 26 427 q 34 476 26 460 q 65 511 41 492 q 192 720 157 589 q 217 765 199 747 q 269 783 236 783 q 344 749 314 783 q 374 668 374 715 q 331 563 374 610 q 192 473 288 517 q 168 443 168 463 q 192 412 168 424 q 331 323 288 370 q 374 218 374 277 z "},"=":{"ha":694,"x_min":35,"x_max":660,"o":"m 660 568 q 633 507 660 528 q 568 486 607 486 q 463 489 525 486 q 336 492 400 492 q 283 490 311 492 q 227 488 256 489 q 174 485 199 486 q 129 484 149 484 q 61 504 87 484 q 35 564 35 525 q 60 617 35 596 q 129 639 85 639 q 163 638 140 639 q 214 637 186 637 q 275 635 243 636 q 338 635 307 635 q 467 640 408 635 q 564 644 525 644 q 631 624 602 644 q 660 568 660 604 m 660 315 q 633 254 660 275 q 568 233 607 233 q 463 236 525 233 q 336 239 400 239 q 283 237 311 239 q 227 235 256 236 q 174 232 199 233 q 129 231 149 231 q 61 251 87 231 q 35 311 35 272 q 60 365 35 343 q 129 386 85 386 q 163 385 140 386 q 214 384 186 385 q 275 382 243 383 q 338 382 307 382 q 467 387 408 382 q 564 392 525 392 q 631 372 602 392 q 660 315 660 351 z "},">":{"ha":408,"x_min":35,"x_max":382,"o":"m 382 443 q 374 411 382 427 q 343 375 366 395 q 216 167 252 297 q 139 103 200 103 q 64 138 94 103 q 35 218 35 172 q 78 323 35 277 q 216 412 121 370 q 240 443 240 424 q 216 473 240 463 q 78 563 121 517 q 35 668 35 610 q 64 749 35 715 q 139 783 94 783 q 216 720 200 783 q 343 511 252 589 q 374 476 367 492 q 382 443 382 460 z "},"?":{"ha":647,"x_min":0,"x_max":661,"o":"m 661 714 q 633 609 661 652 q 564 536 606 566 q 473 489 522 507 q 382 456 424 471 q 313 429 340 441 q 285 399 285 416 q 297 385 285 387 q 325 379 310 383 q 353 363 340 375 q 366 321 366 351 q 352 278 366 296 q 317 248 338 260 q 272 230 296 236 q 227 224 248 224 q 174 230 200 224 q 126 251 147 236 q 93 288 106 265 q 79 340 79 310 q 91 392 79 370 q 122 433 103 415 q 163 464 140 450 q 208 490 186 478 q 261 525 233 504 q 313 572 289 546 q 353 627 338 597 q 368 689 368 657 q 363 733 368 711 q 347 771 358 754 q 317 800 336 789 q 271 811 298 811 q 219 794 240 811 q 179 759 199 778 q 137 722 160 739 q 77 705 114 705 q 19 727 39 705 q 0 786 0 749 q 36 861 0 832 q 122 907 72 890 q 225 929 172 924 q 311 935 278 935 q 422 924 361 935 q 536 887 484 913 q 625 819 589 861 q 661 714 661 777 m 404 114 q 387 67 404 89 q 344 28 370 45 q 290 2 318 11 q 237 -7 261 -7 q 190 5 214 -7 q 167 45 167 17 q 184 94 167 72 q 227 133 201 117 q 281 157 252 149 q 334 165 310 165 q 380 154 357 165 q 404 114 404 142 z "},"@":{"ha":1222,"x_min":26,"x_max":1196,"o":"m 1196 443 q 1159 252 1196 335 q 1063 112 1122 168 q 929 27 1003 56 q 782 -1 856 -1 q 726 13 749 -1 q 704 68 704 28 q 710 112 704 89 q 724 156 717 135 q 737 194 730 178 q 743 216 743 211 q 737 222 743 222 q 733 221 736 222 q 728 214 730 220 q 689 147 713 180 q 634 87 665 114 q 563 42 603 60 q 476 25 524 25 q 377 42 424 25 q 296 92 330 60 q 242 169 262 123 q 222 269 222 214 q 250 411 222 345 q 333 529 278 478 q 471 608 387 579 q 667 637 554 637 q 735 633 699 637 q 807 620 772 629 q 871 598 842 611 q 918 567 901 585 q 948 521 936 547 q 968 467 961 494 q 979 412 975 439 q 982 368 982 386 q 977 302 982 338 q 962 235 972 267 q 962 222 960 227 q 975 225 965 218 q 1064 317 1026 256 q 1103 469 1103 379 q 1069 621 1103 549 q 975 749 1036 693 q 829 838 914 804 q 640 871 745 871 q 426 829 524 871 q 260 715 329 787 q 154 549 192 643 q 115 347 115 454 q 154 161 115 240 q 260 30 192 82 q 421 -47 328 -22 q 623 -72 514 -72 q 709 -87 679 -72 q 739 -139 739 -103 q 735 -160 739 -147 q 718 -186 730 -174 q 683 -208 705 -199 q 623 -216 660 -216 q 419 -182 525 -216 q 227 -78 314 -147 q 83 95 139 -9 q 26 338 26 199 q 76 577 26 468 q 209 765 125 686 q 404 887 293 843 q 640 930 515 930 q 861 890 760 930 q 1037 782 962 850 q 1153 626 1111 714 q 1196 443 1196 538 m 700 450 q 690 490 700 473 q 665 517 681 507 q 628 533 648 528 q 589 538 608 538 q 532 531 561 538 q 481 509 504 524 q 444 472 458 494 q 429 416 429 449 q 462 352 429 372 q 534 332 494 332 q 589 339 559 332 q 642 362 618 347 q 683 399 667 376 q 700 450 700 421 z "},"A":{"ha":878,"x_min":7,"x_max":871,"o":"m 871 66 q 853 28 871 41 q 812 9 836 16 q 762 1 789 3 q 720 0 736 0 q 671 2 700 0 q 616 13 643 4 q 569 37 589 21 q 550 81 550 53 q 553 103 550 92 q 555 125 555 114 q 538 170 555 151 q 496 201 521 189 q 443 219 471 214 q 395 225 415 225 q 340 214 363 225 q 317 167 317 203 q 321 134 317 150 q 326 100 326 118 q 301 49 326 69 q 242 17 277 29 q 173 -1 208 4 q 115 -5 138 -5 q 74 -3 94 -5 q 40 8 54 0 q 16 32 25 17 q 7 72 7 47 q 15 177 7 122 q 37 287 24 232 q 67 394 50 342 q 103 493 85 447 q 151 594 122 541 q 212 698 179 647 q 279 794 244 749 q 345 869 314 839 q 388 905 364 889 q 443 921 412 921 q 487 910 468 921 q 522 880 505 899 q 592 799 557 846 q 659 701 627 753 q 720 596 692 650 q 770 493 749 543 q 807 390 789 447 q 840 275 825 334 q 863 162 854 216 q 871 66 871 107 m 521 589 q 512 636 521 602 q 492 708 504 671 q 465 773 479 745 q 437 802 450 802 q 411 772 427 802 q 383 705 396 743 q 360 631 370 667 q 351 581 351 595 q 378 532 351 545 q 433 519 404 519 q 496 533 472 519 q 521 589 521 546 z "},"B":{"ha":843,"x_min":35,"x_max":817,"o":"m 817 267 q 779 132 817 184 q 682 49 741 79 q 554 6 624 18 q 422 -5 485 -5 q 216 6 297 -5 q 107 52 135 17 q 51 189 66 100 q 35 396 35 278 q 42 515 35 450 q 61 644 49 581 q 91 764 74 708 q 125 854 107 819 q 140 874 129 863 q 173 897 151 886 q 227 914 195 907 q 309 921 260 921 q 449 906 378 921 q 579 865 521 892 q 674 797 637 838 q 711 704 711 757 q 684 633 711 656 q 622 601 656 610 q 561 590 589 591 q 533 585 533 589 q 554 573 533 582 q 607 548 575 564 q 675 507 639 532 q 743 448 711 482 q 796 369 775 414 q 817 267 817 323 m 507 726 q 478 776 507 754 q 393 798 449 798 q 350 786 366 798 q 335 753 335 774 q 361 699 335 720 q 441 679 387 679 q 488 691 469 679 q 507 726 507 704 m 551 408 q 541 441 551 425 q 512 470 530 457 q 469 490 493 482 q 418 497 446 497 q 361 479 378 497 q 345 435 345 461 q 378 370 345 399 q 464 342 411 342 q 530 359 509 342 q 551 408 551 376 z "},"C":{"ha":885,"x_min":26,"x_max":859,"o":"m 859 249 q 837 152 859 199 q 773 71 815 106 q 671 15 732 36 q 533 -5 611 -5 q 439 2 493 -5 q 330 29 386 9 q 219 82 273 49 q 122 168 164 115 q 53 292 79 220 q 26 461 26 364 q 67 661 26 575 q 176 805 107 747 q 338 892 245 863 q 536 921 431 921 q 746 879 676 921 q 817 782 817 836 q 789 720 817 739 q 730 701 761 701 q 676 716 697 701 q 632 749 654 732 q 581 782 610 766 q 503 798 551 798 q 354 741 412 798 q 296 572 296 684 q 317 474 296 517 q 370 405 338 432 q 445 364 403 378 q 528 350 486 350 q 595 360 568 350 q 645 384 623 371 q 690 408 668 397 q 741 418 711 418 q 794 402 772 418 q 831 361 817 386 q 852 307 846 336 q 859 249 859 277 z "},"D":{"ha":940,"x_min":35,"x_max":914,"o":"m 914 410 q 884 246 914 314 q 807 132 854 178 q 702 59 760 86 q 589 17 644 32 q 487 -1 533 3 q 414 -5 440 -5 q 327 -3 376 -5 q 229 9 277 0 q 142 35 180 18 q 86 78 103 52 q 61 142 71 103 q 45 225 52 180 q 37 317 39 269 q 35 406 35 364 q 42 538 35 473 q 62 661 50 603 q 89 764 74 718 q 118 840 103 810 q 174 899 136 876 q 278 921 211 921 q 400 910 332 921 q 539 873 468 899 q 677 808 610 847 q 797 711 745 768 q 882 580 850 654 q 914 410 914 505 m 647 533 q 630 617 647 575 q 585 692 614 659 q 521 746 557 725 q 446 766 485 766 q 366 736 397 766 q 334 644 334 707 q 337 527 334 581 q 354 434 340 473 q 395 372 368 395 q 468 350 422 350 q 552 366 518 350 q 607 408 586 382 q 637 467 628 435 q 647 533 647 500 z "},"E":{"ha":803,"x_min":35,"x_max":783,"o":"m 783 273 q 755 182 783 231 q 666 92 728 134 q 505 22 604 50 q 261 -5 406 -5 q 155 8 201 -5 q 86 62 109 22 q 49 191 64 103 q 35 406 35 279 q 43 533 35 465 q 64 661 52 600 q 92 772 77 722 q 121 846 107 822 q 172 888 138 873 q 248 910 205 903 q 335 920 290 918 q 416 921 379 921 q 663 882 581 921 q 746 772 746 843 q 740 730 746 750 q 719 694 733 710 q 681 670 704 679 q 624 661 657 661 q 562 676 593 661 q 500 708 532 692 q 435 734 469 724 q 363 734 401 745 q 340 708 349 730 q 329 659 332 685 q 328 612 326 633 q 335 590 329 590 q 393 597 366 590 q 457 604 421 604 q 566 528 566 604 q 546 485 566 504 q 482 465 526 465 q 426 472 457 465 q 342 478 395 478 q 339 459 338 478 q 350 417 340 440 q 380 376 359 395 q 432 357 400 357 q 485 360 453 357 q 552 366 517 363 q 622 372 587 370 q 686 375 657 375 q 718 373 701 375 q 749 362 734 371 q 773 332 764 353 q 783 273 783 311 z "},"F":{"ha":710,"x_min":35,"x_max":724,"o":"m 724 779 q 717 737 724 757 q 695 701 710 717 q 659 675 681 685 q 606 665 636 665 q 549 676 574 665 q 500 702 524 688 q 453 726 476 715 q 400 739 429 737 q 369 737 385 739 q 346 720 354 734 q 333 683 338 705 q 326 640 328 661 q 326 605 325 619 q 334 590 328 590 q 393 597 357 590 q 457 604 429 604 q 537 581 514 604 q 561 526 561 558 q 542 484 561 503 q 479 465 524 465 q 425 472 456 465 q 339 478 395 478 q 334 466 334 478 q 340 435 335 453 q 351 396 345 416 q 364 358 358 375 q 376 318 370 340 q 388 273 382 296 q 399 228 395 250 q 403 187 403 205 q 384 122 403 157 q 331 60 364 87 q 251 13 297 32 q 153 -5 205 -5 q 61 101 87 -5 q 35 407 35 208 q 43 533 35 465 q 63 663 52 602 q 90 773 75 725 q 117 843 104 822 q 164 883 132 868 q 236 907 196 899 q 323 918 277 916 q 415 921 370 921 q 652 882 581 921 q 724 779 724 843 z "},"G":{"ha":932,"x_min":25,"x_max":901,"o":"m 901 253 q 891 156 901 195 q 856 94 882 117 q 806 59 835 77 q 736 27 777 41 q 644 3 696 12 q 530 -5 593 -5 q 362 17 452 -5 q 198 93 273 39 q 74 237 123 147 q 25 461 25 326 q 48 620 25 550 q 110 740 71 689 q 201 825 150 790 q 308 881 252 860 q 422 912 364 903 q 530 921 479 921 q 659 909 606 921 q 745 877 711 897 q 793 832 778 857 q 808 781 808 807 q 787 724 808 745 q 725 703 766 703 q 666 717 688 703 q 624 749 644 732 q 577 781 604 766 q 500 796 550 796 q 406 779 446 796 q 342 731 367 761 q 305 663 317 701 q 293 582 293 624 q 360 411 293 472 q 539 350 427 350 q 573 360 564 350 q 582 386 582 371 q 578 420 582 406 q 571 447 575 435 q 563 472 567 460 q 559 497 559 484 q 565 527 559 513 q 581 553 570 542 q 614 571 593 564 q 669 578 636 578 q 781 563 732 578 q 857 501 829 549 q 873 459 865 489 q 887 392 880 429 q 897 318 893 355 q 901 253 901 281 z "},"H":{"ha":930,"x_min":35,"x_max":896,"o":"m 896 525 q 887 371 896 443 q 865 240 878 298 q 839 139 852 182 q 814 77 825 97 q 786 38 803 54 q 748 12 768 22 q 708 -3 728 1 q 671 -7 688 -7 q 583 90 583 -7 q 590 170 583 129 q 597 256 597 211 q 580 321 597 296 q 510 346 562 346 q 426 331 463 346 q 389 286 389 317 q 398 247 389 267 q 407 200 407 227 q 387 124 407 161 q 332 58 367 87 q 251 12 297 29 q 151 -5 204 -5 q 35 407 35 -5 q 43 536 35 468 q 64 667 52 604 q 91 779 77 729 q 118 851 106 829 q 149 890 131 875 q 187 915 167 905 q 226 928 207 925 q 261 932 245 932 q 327 907 304 932 q 350 838 350 882 q 347 787 350 810 q 340 742 345 764 q 333 700 336 721 q 330 657 330 679 q 344 617 330 632 q 379 594 358 603 q 425 583 400 586 q 473 581 450 581 q 546 616 546 581 q 535 658 546 635 q 525 725 525 681 q 554 821 525 782 q 624 884 583 860 q 708 919 665 908 q 778 930 751 930 q 839 896 815 930 q 875 804 863 861 q 892 673 888 746 q 896 525 896 600 z "},"I":{"ha":429,"x_min":35,"x_max":403,"o":"m 403 199 q 380 115 403 153 q 321 51 357 78 q 240 9 285 24 q 149 -5 195 -5 q 60 103 86 -5 q 35 415 35 212 q 42 530 35 468 q 62 652 50 593 q 89 762 74 711 q 117 840 103 812 q 181 901 138 882 q 269 921 225 921 q 334 895 314 921 q 354 823 354 868 q 344 719 354 783 q 334 557 334 654 q 345 450 334 497 q 368 361 355 403 q 392 280 380 319 q 403 199 403 240 z "},"J":{"ha":557,"x_min":-43,"x_max":522,"o":"m 522 526 q 515 399 522 468 q 490 261 507 330 q 445 125 472 192 q 380 4 418 58 q 290 -103 338 -58 q 194 -178 241 -149 q 101 -221 146 -207 q 20 -235 57 -235 q -21 -221 -7 -235 q -39 -189 -36 -207 q -35 -152 -43 -171 q -7 -125 -26 -134 q 82 -62 39 -104 q 160 41 126 -20 q 213 180 193 102 q 233 353 233 258 q 223 479 233 428 q 199 570 212 530 q 176 645 186 610 q 165 724 165 681 q 188 805 165 768 q 245 867 210 842 q 323 908 281 893 q 407 922 366 922 q 493 830 464 922 q 522 526 522 737 z "},"K":{"ha":869,"x_min":35,"x_max":869,"o":"m 869 232 q 856 166 869 207 q 816 87 842 126 q 753 20 790 49 q 669 -8 715 -8 q 614 7 640 -8 q 566 46 589 22 q 525 100 543 71 q 492 157 507 129 q 439 267 465 210 q 391 372 412 323 q 353 452 370 421 q 329 484 336 484 q 323 467 325 484 q 323 427 322 450 q 328 375 325 403 q 336 325 332 347 q 345 283 339 307 q 357 235 351 260 q 367 188 363 211 q 371 147 371 164 q 354 85 371 114 q 308 36 338 57 q 238 4 278 16 q 151 -7 197 -7 q 64 91 93 -7 q 35 404 35 189 q 42 522 35 458 q 60 646 49 586 q 87 758 72 707 q 117 838 102 808 q 181 901 140 880 q 267 921 222 921 q 334 894 314 921 q 354 818 354 867 q 349 743 354 785 q 337 664 343 701 q 329 602 332 627 q 332 576 326 576 q 377 596 353 576 q 427 647 401 616 q 476 714 452 677 q 523 784 501 750 q 562 844 545 818 q 589 880 579 871 q 677 913 623 913 q 815 892 774 913 q 856 835 856 871 q 828 781 856 808 q 759 725 800 753 q 670 671 718 697 q 582 620 623 644 q 513 572 541 595 q 485 532 485 550 q 513 504 485 522 q 585 460 542 485 q 677 408 628 436 q 769 349 726 379 q 841 290 812 319 q 869 232 869 260 z "},"L":{"ha":718,"x_min":35,"x_max":718,"o":"m 718 273 q 694 187 718 235 q 614 96 671 139 q 464 24 557 53 q 231 -5 371 -5 q 198 -5 216 -5 q 160 1 179 -4 q 124 15 142 5 q 94 43 106 25 q 48 190 62 92 q 35 408 35 288 q 44 553 35 484 q 65 679 53 623 q 92 778 78 736 q 115 840 106 819 q 170 897 131 873 q 262 921 210 921 q 328 899 304 921 q 351 822 351 878 q 349 774 351 798 q 342 723 346 751 q 335 659 338 694 q 332 571 332 623 q 341 436 332 492 q 375 357 351 380 q 413 349 385 347 q 478 355 441 350 q 553 365 514 359 q 624 371 593 371 q 690 349 663 371 q 718 273 718 328 z "},"M":{"ha":1046,"x_min":35,"x_max":1011,"o":"m 1011 498 q 1003 381 1011 446 q 983 256 996 317 q 956 146 971 196 q 926 72 940 97 q 860 11 900 28 q 777 -5 819 -5 q 715 17 737 -5 q 693 94 693 39 q 696 150 693 119 q 705 215 700 180 q 713 288 710 250 q 717 364 717 325 q 713 440 717 395 q 702 529 710 486 q 683 602 694 571 q 654 632 671 632 q 628 624 642 632 q 603 600 615 615 q 585 564 591 585 q 578 518 578 543 q 583 482 578 497 q 596 452 589 467 q 610 424 604 437 q 615 392 615 410 q 593 335 615 359 q 530 311 571 311 q 474 331 498 311 q 454 403 450 351 q 449 482 457 440 q 424 558 440 524 q 388 616 408 593 q 349 639 368 639 q 335 631 340 639 q 328 613 330 624 q 324 591 325 603 q 323 571 323 579 q 336 472 323 521 q 363 375 349 422 q 390 284 378 328 q 403 201 403 240 q 384 131 403 167 q 333 65 366 94 q 255 18 300 36 q 157 0 210 0 q 110 17 132 0 q 71 78 87 33 q 44 202 54 122 q 35 407 35 282 q 43 531 35 464 q 64 659 52 597 q 91 769 77 720 q 118 840 106 818 q 179 900 140 879 q 258 921 218 921 q 339 889 311 921 q 410 794 380 840 q 460 710 440 747 q 492 651 481 673 q 509 629 503 629 q 520 643 514 629 q 546 685 526 657 q 604 753 566 713 q 708 846 642 793 q 793 895 743 873 q 892 916 843 916 q 984 813 957 916 q 1011 498 1011 710 z "},"N":{"ha":964,"x_min":35,"x_max":929,"o":"m 929 509 q 920 370 929 437 q 899 246 911 302 q 872 144 886 189 q 846 77 857 100 q 784 14 825 33 q 696 -5 743 -5 q 636 15 661 -5 q 611 68 611 36 q 620 133 611 97 q 628 203 628 170 q 608 314 628 262 q 556 409 587 366 q 488 485 525 452 q 417 541 452 518 q 358 575 383 564 q 325 587 334 587 q 308 578 311 587 q 304 553 304 568 q 320 481 304 524 q 353 391 335 439 q 386 294 371 343 q 401 205 401 245 q 384 133 401 170 q 333 66 366 96 q 253 19 300 37 q 150 0 207 0 q 62 103 89 0 q 35 407 35 205 q 44 549 35 478 q 67 681 54 621 q 95 784 81 741 q 117 842 109 827 q 150 883 132 867 q 186 907 168 899 q 220 918 204 916 q 245 921 236 921 q 282 916 262 921 q 323 898 302 911 q 366 861 345 885 q 410 799 387 836 q 519 622 472 690 q 611 554 567 554 q 615 569 621 554 q 598 608 610 583 q 577 663 587 632 q 567 728 567 694 q 588 797 567 762 q 642 858 608 831 q 720 902 676 885 q 811 918 764 918 q 873 879 850 918 q 908 780 896 840 q 925 647 921 720 q 929 509 929 575 z "},"O":{"ha":1093,"x_min":31,"x_max":1063,"o":"m 1063 465 q 1020 250 1063 339 q 904 104 977 160 q 740 21 832 47 q 547 -5 647 -5 q 354 21 447 -5 q 190 104 261 47 q 74 252 118 161 q 31 468 31 342 q 69 639 31 557 q 176 783 107 721 q 340 883 244 846 q 553 921 436 921 q 738 889 646 921 q 902 797 829 857 q 1018 653 974 737 q 1063 465 1063 570 m 760 581 q 742 671 760 629 q 694 745 724 713 q 626 794 664 777 q 547 812 587 812 q 465 794 504 812 q 398 743 427 775 q 353 668 370 711 q 336 574 336 624 q 350 485 336 526 q 390 414 363 444 q 456 367 416 385 q 547 350 496 350 q 657 376 615 350 q 722 439 699 403 q 752 514 745 475 q 760 581 760 554 z "},"P":{"ha":778,"x_min":35,"x_max":758,"o":"m 758 591 q 740 505 758 547 q 687 429 722 463 q 600 376 652 396 q 478 355 547 355 q 434 357 457 355 q 396 359 411 359 q 375 357 385 359 q 366 339 366 354 q 371 312 366 328 q 383 276 376 296 q 396 233 390 256 q 401 184 401 210 q 377 110 401 144 q 315 50 353 75 q 235 9 278 24 q 154 -5 192 -5 q 115 6 136 -5 q 76 59 93 18 q 46 180 58 100 q 35 399 35 261 q 43 535 35 465 q 64 665 52 604 q 91 771 77 725 q 118 839 106 818 q 188 904 146 888 q 296 921 229 921 q 378 916 330 921 q 478 897 427 911 q 579 860 529 884 q 670 800 629 836 q 734 712 710 764 q 758 591 758 661 m 504 713 q 496 744 504 729 q 474 769 488 758 q 443 787 460 781 q 406 794 425 794 q 360 780 382 794 q 338 733 338 765 q 360 676 338 697 q 422 654 382 654 q 485 673 467 654 q 504 713 504 692 z "},"Q":{"ha":1093,"x_min":31,"x_max":1063,"o":"m 1063 465 q 974 173 1063 286 q 720 12 885 60 q 675 0 701 7 q 627 -18 650 -7 q 588 -44 604 -29 q 571 -81 571 -60 q 590 -120 571 -109 q 632 -131 608 -131 q 672 -120 652 -131 q 714 -95 692 -109 q 764 -70 737 -81 q 823 -58 791 -58 q 884 -84 860 -58 q 908 -146 908 -110 q 881 -233 908 -196 q 813 -296 854 -271 q 724 -335 772 -322 q 633 -349 675 -349 q 554 -339 595 -349 q 479 -310 513 -330 q 424 -258 446 -290 q 403 -178 403 -225 q 417 -115 403 -143 q 449 -67 432 -87 q 481 -32 467 -46 q 496 -8 496 -18 q 478 3 496 3 q 396 11 443 3 q 301 40 350 20 q 203 94 252 60 q 116 180 154 127 q 54 303 78 232 q 31 468 31 374 q 69 639 31 557 q 176 783 107 721 q 340 883 244 846 q 553 921 436 921 q 737 889 646 921 q 900 797 828 857 q 1018 653 972 737 q 1063 465 1063 570 m 760 581 q 742 671 760 629 q 694 745 724 713 q 626 794 664 777 q 547 812 587 812 q 465 794 504 812 q 398 743 427 775 q 353 668 370 711 q 336 574 336 624 q 350 485 336 526 q 390 414 363 444 q 456 367 416 385 q 547 350 496 350 q 657 376 615 350 q 722 439 699 403 q 752 514 745 475 q 760 581 760 554 z "},"R":{"ha":856,"x_min":35,"x_max":856,"o":"m 856 201 q 836 122 856 160 q 788 56 817 85 q 728 12 760 28 q 669 -4 696 -4 q 609 14 637 -4 q 555 62 581 32 q 506 131 529 92 q 463 214 484 171 q 419 309 440 261 q 382 396 399 357 q 353 459 366 435 q 334 484 340 484 q 324 477 326 484 q 322 453 322 471 q 331 369 322 408 q 348 292 339 329 q 365 219 357 256 q 374 146 374 183 q 360 93 374 119 q 319 44 346 66 q 251 8 292 22 q 155 -5 210 -5 q 107 13 129 -5 q 69 78 85 32 q 44 201 53 123 q 35 395 35 278 q 43 537 35 468 q 64 664 52 606 q 91 768 77 722 q 118 839 106 814 q 190 906 144 890 q 297 921 236 921 q 376 916 329 921 q 475 898 424 911 q 577 863 526 885 q 669 808 628 842 q 735 729 710 775 q 760 623 760 684 q 742 539 760 574 q 700 481 725 504 q 644 445 675 458 q 589 423 614 431 q 546 412 564 415 q 529 404 529 408 q 553 381 529 392 q 614 358 578 370 q 692 332 650 346 q 771 300 734 318 q 831 258 807 282 q 856 201 856 233 m 504 713 q 494 748 504 733 q 470 772 485 762 q 438 787 454 782 q 406 791 421 791 q 354 775 370 791 q 339 730 339 758 q 360 678 339 703 q 425 653 380 653 q 487 671 469 653 q 504 713 504 689 z "},"S":{"ha":807,"x_min":20,"x_max":781,"o":"m 781 285 q 754 156 781 211 q 681 65 728 102 q 569 12 633 29 q 431 -5 505 -5 q 270 23 345 -5 q 139 101 195 52 q 52 215 83 150 q 20 351 20 279 q 39 413 20 395 q 77 432 58 432 q 124 413 97 432 q 187 372 151 395 q 266 331 222 350 q 366 313 310 313 q 406 327 392 313 q 419 359 419 342 q 412 384 419 372 q 390 403 406 396 q 279 454 332 428 q 186 513 227 479 q 122 592 146 547 q 98 700 98 637 q 119 792 98 751 q 178 862 140 833 q 267 906 215 890 q 382 921 319 921 q 501 909 450 921 q 585 877 551 897 q 634 833 618 857 q 650 783 650 808 q 630 728 650 755 q 559 701 610 701 q 501 717 521 701 q 465 752 481 733 q 429 786 449 771 q 371 802 408 802 q 317 785 340 802 q 294 734 294 768 q 310 687 294 707 q 348 653 325 668 q 399 630 371 639 q 453 614 427 621 q 543 585 488 604 q 651 528 599 566 q 742 431 704 490 q 781 285 781 372 z "},"T":{"ha":823,"x_min":-8,"x_max":831,"o":"m 831 771 q 824 731 831 750 q 804 695 817 711 q 773 669 791 679 q 729 660 754 660 q 661 671 693 660 q 604 695 629 682 q 559 719 578 708 q 532 730 541 730 q 523 719 526 730 q 517 687 519 707 q 515 644 515 668 q 514 595 514 619 q 525 465 514 519 q 550 365 536 410 q 575 280 564 319 q 586 197 586 241 q 563 114 586 151 q 502 50 539 77 q 420 9 465 24 q 332 -5 375 -5 q 288 14 309 -5 q 251 77 267 33 q 227 194 236 121 q 218 372 218 267 q 228 517 218 449 q 247 636 237 585 q 262 718 257 688 q 261 747 268 747 q 206 734 229 747 q 162 704 183 721 q 122 674 142 688 q 74 661 102 661 q 34 669 50 661 q 8 688 18 676 q -5 713 -1 700 q -8 739 -8 726 q 11 800 -8 774 q 62 840 31 825 q 141 870 96 856 q 237 896 186 885 q 345 914 289 907 q 452 921 400 921 q 626 910 554 921 q 744 881 699 900 q 810 835 789 863 q 831 771 831 807 z "},"U":{"ha":930,"x_min":35,"x_max":896,"o":"m 896 427 q 890 341 896 389 q 869 247 885 294 q 826 153 852 199 q 755 72 799 107 q 649 15 711 36 q 501 -7 586 -7 q 290 31 378 -7 q 144 137 201 69 q 61 297 87 205 q 35 496 35 389 q 45 647 35 571 q 75 783 56 722 q 123 881 94 843 q 186 920 151 920 q 287 900 243 920 q 363 850 332 880 q 411 783 395 821 q 428 707 428 745 q 417 645 428 676 q 395 583 407 614 q 373 522 383 551 q 363 464 363 492 q 384 397 363 422 q 435 358 406 372 q 493 338 464 343 q 538 334 522 334 q 596 342 567 334 q 649 369 625 351 q 687 413 672 386 q 701 475 701 440 q 683 568 701 529 q 641 643 664 607 q 599 718 618 679 q 581 808 581 757 q 602 890 581 860 q 675 920 623 920 q 759 897 725 920 q 815 832 793 875 q 851 744 836 793 q 876 643 865 696 q 891 535 886 590 q 896 427 896 479 z "},"V":{"ha":893,"x_min":7,"x_max":886,"o":"m 886 711 q 863 530 886 625 q 799 345 839 435 q 703 176 758 256 q 583 41 647 97 q 535 8 561 22 q 478 -7 510 -7 q 431 4 454 -7 q 390 29 408 16 q 246 170 315 86 q 123 352 176 254 q 39 552 71 449 q 7 751 7 656 q 10 820 7 789 q 27 873 14 851 q 66 907 40 895 q 135 920 92 920 q 233 904 186 920 q 316 860 281 889 q 373 788 351 831 q 395 689 395 745 q 391 637 395 663 q 387 583 387 611 q 400 504 387 545 q 437 428 412 463 q 496 371 461 393 q 574 349 530 349 q 630 369 608 349 q 663 421 652 390 q 679 485 675 452 q 684 543 684 518 q 676 614 684 579 q 661 685 669 650 q 645 755 652 721 q 637 823 637 790 q 660 897 637 873 q 734 921 682 921 q 810 903 781 921 q 857 855 840 885 q 880 788 873 825 q 886 711 886 750 z "},"W":{"ha":1249,"x_min":7,"x_max":1242,"o":"m 1242 708 q 1219 526 1242 621 q 1156 342 1196 432 q 1059 172 1116 252 q 935 36 1002 93 q 890 6 914 18 q 838 -7 865 -7 q 772 20 802 -7 q 720 79 743 47 q 681 138 697 111 q 654 165 665 165 q 632 138 646 165 q 596 79 618 111 q 544 20 575 47 q 471 -7 513 -7 q 412 10 443 -7 q 350 54 382 26 q 288 114 318 81 q 231 180 257 147 q 183 244 204 214 q 150 296 163 275 q 45 522 83 404 q 7 749 7 640 q 9 814 7 783 q 25 869 12 846 q 61 907 37 893 q 126 921 85 921 q 223 906 176 921 q 308 863 271 892 q 368 792 346 835 q 390 694 390 750 q 387 642 390 668 q 385 590 385 616 q 396 510 385 553 q 432 432 408 468 q 490 372 456 396 q 567 349 524 349 q 608 392 608 349 q 599 437 608 414 q 579 486 590 461 q 559 538 568 511 q 550 596 550 566 q 587 678 550 652 q 673 704 624 704 q 818 660 770 704 q 865 518 865 616 q 867 463 865 493 q 879 408 869 433 q 905 365 888 382 q 953 347 922 347 q 995 370 978 347 q 1022 422 1011 392 q 1036 483 1032 452 q 1040 530 1040 514 q 1033 605 1040 568 q 1017 679 1025 642 q 1001 751 1008 715 q 993 825 993 787 q 1018 898 993 875 q 1092 921 1043 921 q 1166 901 1137 921 q 1212 852 1196 882 q 1235 784 1229 822 q 1242 708 1242 746 z "},"X":{"ha":975,"x_min":0,"x_max":975,"o":"m 975 78 q 959 43 975 58 q 916 17 942 28 q 859 0 890 5 q 798 -5 828 -5 q 694 3 745 -5 q 616 36 644 12 q 586 83 602 49 q 558 160 571 117 q 533 251 545 204 q 513 337 522 297 q 498 401 504 376 q 488 427 492 427 q 478 404 484 427 q 466 347 473 382 q 448 269 458 313 q 426 182 437 225 q 399 102 414 139 q 367 41 385 65 q 299 5 347 16 q 187 -5 250 -5 q 119 0 153 -5 q 58 16 85 5 q 16 42 32 26 q 0 79 0 58 q 27 195 0 139 q 95 300 54 252 q 183 390 136 349 q 272 460 231 431 q 340 508 313 490 q 367 529 367 526 q 345 548 367 533 q 292 587 323 564 q 223 641 261 611 q 155 703 186 671 q 102 768 123 734 q 81 832 81 802 q 125 898 81 875 q 236 921 170 921 q 301 908 267 921 q 359 857 336 895 q 406 767 385 818 q 445 672 428 717 q 474 596 463 627 q 488 566 485 566 q 504 595 493 566 q 531 670 514 625 q 570 769 547 715 q 624 869 593 822 q 676 909 642 897 q 750 921 711 921 q 806 915 779 921 q 852 899 832 909 q 884 870 872 888 q 896 829 896 852 q 874 765 896 799 q 821 700 852 732 q 752 639 789 668 q 684 586 715 610 q 630 548 652 562 q 608 529 608 533 q 635 508 608 526 q 704 460 663 490 q 792 389 745 429 q 880 299 839 349 q 948 194 921 250 q 975 78 975 138 z "},"Y":{"ha":901,"x_min":7,"x_max":882,"o":"m 882 637 q 862 451 882 553 q 802 248 842 350 q 706 51 762 146 q 577 -119 650 -45 q 416 -238 504 -193 q 228 -282 329 -282 q 154 -256 183 -282 q 125 -183 125 -231 q 153 -122 125 -147 q 215 -97 180 -97 q 275 -103 245 -97 q 332 -109 304 -109 q 368 -103 345 -109 q 416 -87 392 -97 q 457 -65 440 -78 q 475 -36 475 -52 q 463 -18 475 -25 q 387 31 422 5 q 315 90 351 57 q 201 223 257 144 q 103 390 146 301 q 33 571 60 478 q 7 749 7 664 q 10 814 7 783 q 26 869 14 846 q 63 907 39 893 q 127 921 87 921 q 229 906 180 921 q 315 863 278 892 q 374 790 351 833 q 396 689 396 746 q 392 634 396 661 q 389 579 389 607 q 402 499 389 541 q 440 424 415 458 q 501 367 465 389 q 579 345 536 345 q 628 362 608 345 q 661 404 648 379 q 679 458 673 429 q 685 511 685 488 q 674 594 685 553 q 652 676 664 636 q 630 757 640 717 q 619 835 619 798 q 646 902 619 884 q 717 921 672 921 q 803 892 771 921 q 853 820 835 863 q 876 728 871 778 q 882 637 882 679 z "},"Z":{"ha":726,"x_min":17,"x_max":708,"o":"m 708 140 q 679 56 708 85 q 606 13 650 26 q 514 -3 562 -1 q 425 -5 465 -5 q 365 -5 404 -5 q 282 -2 325 -4 q 203 6 240 0 q 147 22 165 12 q 49 125 81 61 q 17 264 17 189 q 41 346 17 300 q 100 437 65 392 q 172 522 135 482 q 235 585 210 561 q 347 677 292 637 q 460 761 403 717 q 478 777 473 772 q 482 786 482 782 q 458 797 482 791 q 383 802 435 802 q 300 787 332 802 q 246 754 269 772 q 201 721 222 736 q 150 707 180 707 q 92 728 117 707 q 66 786 66 750 q 85 842 66 819 q 132 881 103 865 q 197 903 161 896 q 270 915 233 911 q 338 920 306 920 q 393 921 371 921 q 461 919 418 921 q 546 906 504 917 q 618 876 587 896 q 648 818 648 856 q 636 766 648 786 q 600 726 624 746 q 510 645 554 690 q 431 548 465 600 q 376 439 397 496 q 354 321 354 382 q 355 299 354 310 q 371 289 357 289 q 408 297 386 289 q 457 316 431 306 q 512 335 484 326 q 570 343 541 343 q 632 322 606 343 q 675 270 659 301 q 700 203 692 239 q 708 140 708 168 z "},"[":{"ha":489,"x_min":35,"x_max":503,"o":"m 503 -193 q 492 -235 503 -215 q 463 -271 481 -256 q 424 -295 446 -286 q 382 -304 403 -304 q 288 -298 334 -304 q 195 -292 241 -292 q 157 -295 175 -292 q 121 -298 139 -298 q 58 -279 81 -298 q 35 -218 35 -260 q 47 68 35 -77 q 60 358 60 214 q 56 574 60 467 q 53 789 53 681 q 57 842 53 817 q 73 887 61 868 q 105 919 85 907 q 158 930 126 930 q 286 929 222 930 q 412 928 349 928 q 456 915 436 928 q 476 876 476 901 q 451 819 476 840 q 392 798 425 798 q 329 811 359 798 q 267 825 298 825 q 242 822 252 825 q 227 817 232 819 q 205 777 214 810 q 192 697 197 743 q 184 599 186 652 q 180 499 182 546 q 179 416 179 452 q 179 370 179 380 q 180 311 179 351 q 185 219 182 271 q 194 111 189 168 q 205 5 199 54 q 219 -81 211 -45 q 236 -129 227 -118 q 249 -137 240 -135 q 264 -139 257 -139 q 331 -130 298 -139 q 400 -121 364 -121 q 437 -123 418 -121 q 470 -135 456 -126 q 494 -157 485 -143 q 503 -193 503 -171 z "},"\\":{"ha":460,"x_min":12,"x_max":456,"o":"m 435 98 q 442 27 456 61 q 382 -7 428 -7 q 330 12 358 -7 q 286 93 302 31 q 268 156 281 115 q 240 247 256 197 q 205 353 224 297 q 167 461 186 408 q 76 695 113 610 q 21 821 39 781 q 13 860 12 840 q 21 896 14 880 q 44 921 29 911 q 81 930 60 930 q 122 919 103 930 q 151 875 142 908 q 202 703 171 806 q 278 478 233 600 q 325 348 304 404 q 364 247 346 292 q 399 168 382 203 q 435 98 416 132 z "},"]":{"ha":489,"x_min":-14,"x_max":454,"o":"m 454 -218 q 431 -279 454 -260 q 368 -298 408 -298 q 331 -295 349 -298 q 293 -292 313 -292 q 201 -298 248 -292 q 106 -304 154 -304 q 64 -295 85 -304 q 25 -271 43 -286 q -3 -235 8 -256 q -14 -193 -14 -215 q -5 -157 -14 -171 q 19 -135 4 -143 q 52 -123 33 -126 q 89 -121 71 -121 q 157 -130 123 -121 q 222 -139 191 -139 q 253 -129 244 -139 q 270 -81 262 -118 q 284 5 278 -45 q 295 111 290 54 q 303 219 300 168 q 309 311 307 271 q 310 370 310 351 q 310 419 310 383 q 309 503 310 456 q 305 602 307 550 q 297 700 302 654 q 283 777 292 745 q 262 817 275 810 q 247 822 257 819 q 222 825 237 825 q 160 811 191 825 q 97 798 129 798 q 38 819 64 798 q 12 876 12 840 q 33 915 12 901 q 77 928 53 928 q 203 929 140 928 q 330 930 267 930 q 384 919 363 930 q 416 887 404 907 q 432 842 428 868 q 436 789 436 817 q 433 574 436 681 q 429 358 429 467 q 442 68 429 214 q 454 -218 454 -77 z "},"^":{"ha":575,"x_min":26,"x_max":549,"o":"m 549 722 q 539 686 549 704 q 514 653 530 668 q 476 628 498 637 q 425 618 453 618 q 349 644 379 618 q 297 702 318 671 q 266 760 277 733 q 248 786 254 786 q 220 755 235 786 q 179 676 205 724 q 140 639 164 648 q 97 629 115 629 q 48 649 71 629 q 26 705 26 668 q 45 755 26 736 q 81 782 64 775 q 205 896 174 822 q 230 924 215 917 q 264 932 244 932 q 306 923 288 932 q 340 890 325 914 q 371 851 355 868 q 406 822 387 833 q 445 801 424 810 q 496 786 467 793 q 534 764 519 781 q 549 722 549 747 z "},"_":{"ha":958,"x_min":3,"x_max":956,"o":"m 956 -225 q 934 -275 956 -254 q 876 -296 913 -296 q 829 -295 863 -296 q 754 -293 796 -294 q 665 -291 711 -292 q 576 -289 618 -290 q 503 -287 534 -288 q 460 -286 472 -286 q 419 -287 449 -286 q 353 -288 390 -288 q 274 -290 315 -289 q 194 -291 232 -290 q 127 -292 157 -292 q 86 -293 98 -293 q 27 -276 52 -293 q 3 -222 3 -260 q 28 -177 3 -195 q 86 -160 53 -160 q 127 -161 98 -160 q 193 -161 155 -161 q 272 -163 231 -161 q 351 -164 313 -164 q 419 -165 389 -164 q 461 -165 449 -165 q 508 -165 476 -165 q 579 -163 539 -164 q 663 -162 619 -163 q 746 -161 707 -161 q 819 -159 786 -160 q 867 -158 851 -158 q 929 -174 903 -158 q 956 -225 956 -189 z "},"`":{"ha":282,"x_min":26,"x_max":256,"o":"m 256 777 q 234 726 256 747 q 174 704 212 704 q 119 715 146 704 q 72 747 93 726 q 39 796 52 768 q 26 857 26 823 q 28 876 26 864 q 33 898 29 888 q 42 916 36 908 q 57 924 47 924 q 70 919 65 924 q 81 907 75 914 q 140 851 110 867 q 210 827 170 835 q 243 810 231 822 q 256 777 256 798 z "},"a":{"ha":901,"x_min":26,"x_max":875,"o":"m 875 338 q 873 268 875 307 q 865 191 871 229 q 847 117 859 153 q 817 56 835 81 q 754 8 793 22 q 676 -5 715 -5 q 642 -4 663 -5 q 601 3 621 -3 q 569 21 582 9 q 555 54 555 33 q 563 104 555 78 q 579 156 571 131 q 595 199 587 180 q 603 225 603 218 q 599 231 603 231 q 594 227 596 231 q 587 216 591 224 q 532 136 561 175 q 468 66 503 97 q 390 16 433 35 q 292 -3 347 -3 q 185 17 233 -3 q 101 73 136 37 q 46 157 65 109 q 26 264 26 205 q 62 433 26 359 q 158 557 97 507 q 299 632 218 607 q 468 657 379 657 q 548 655 500 657 q 645 645 596 653 q 738 622 694 636 q 803 582 781 607 q 837 529 823 559 q 860 466 851 498 q 871 400 868 433 q 875 338 875 367 m 559 453 q 549 497 559 479 q 520 527 538 515 q 480 545 503 539 q 436 550 458 550 q 374 542 406 550 q 317 518 343 534 q 276 476 292 501 q 260 415 260 452 q 270 373 260 390 q 296 343 279 355 q 333 326 313 332 q 376 321 354 321 q 437 329 404 321 q 496 354 469 338 q 542 394 524 370 q 559 453 559 419 z "},"b":{"ha":892,"x_min":35,"x_max":865,"o":"m 865 297 q 843 163 865 220 q 781 68 821 106 q 688 12 742 31 q 570 -7 633 -7 q 431 24 490 -7 q 330 95 371 56 q 267 172 289 135 q 237 220 244 208 q 230 227 233 227 q 227 220 227 227 q 231 194 227 211 q 239 156 235 176 q 247 115 243 136 q 250 78 250 94 q 231 22 250 45 q 171 -1 211 -1 q 115 12 134 -1 q 83 54 96 25 q 69 107 78 69 q 53 196 60 146 q 40 302 46 245 q 35 408 35 358 q 42 578 35 500 q 61 716 50 656 q 84 818 72 777 q 109 878 97 860 q 162 920 127 909 q 229 930 197 930 q 323 894 292 930 q 355 799 355 857 q 346 737 355 770 q 324 675 336 704 q 299 624 311 646 q 283 591 288 602 q 290 586 278 578 q 314 603 298 591 q 354 626 329 614 q 415 647 379 637 q 500 656 452 656 q 635 633 570 656 q 753 564 701 610 q 835 451 804 518 q 865 297 865 385 m 625 411 q 609 471 625 446 q 569 514 593 497 q 515 539 545 530 q 460 547 486 547 q 366 519 397 547 q 334 447 334 492 q 345 402 334 425 q 378 360 355 379 q 433 329 400 342 q 509 317 465 317 q 550 321 529 317 q 588 338 571 326 q 615 368 604 350 q 625 411 625 386 z "},"c":{"ha":714,"x_min":26,"x_max":701,"o":"m 701 256 q 676 149 701 197 q 609 66 652 100 q 511 13 566 32 q 395 -7 456 -7 q 327 -3 366 -7 q 247 13 288 1 q 166 47 207 25 q 96 106 126 69 q 46 196 65 143 q 26 321 26 249 q 67 489 26 424 q 169 591 109 554 q 297 642 229 628 q 418 656 364 656 q 508 649 465 656 q 584 627 551 642 q 636 591 616 612 q 656 542 656 570 q 636 493 656 511 q 582 475 616 475 q 544 487 561 475 q 509 512 528 498 q 466 538 490 526 q 408 550 441 550 q 319 519 350 550 q 289 443 289 489 q 297 397 289 419 q 321 358 304 375 q 363 330 338 340 q 425 319 389 319 q 486 329 463 319 q 529 350 510 339 q 567 371 547 361 q 612 380 586 380 q 672 349 643 380 q 701 256 701 318 z "},"d":{"ha":893,"x_min":26,"x_max":859,"o":"m 859 408 q 853 302 859 358 q 840 196 847 245 q 824 107 832 146 q 808 54 815 69 q 777 11 794 22 q 721 -1 760 -1 q 662 22 681 -1 q 643 78 643 45 q 646 115 643 94 q 654 156 650 136 q 663 194 659 176 q 667 220 667 211 q 663 227 667 227 q 656 220 660 227 q 626 170 648 207 q 562 94 603 134 q 462 24 521 54 q 323 -7 403 -7 q 205 12 260 -7 q 112 68 151 31 q 49 163 72 106 q 26 297 26 220 q 58 451 26 385 q 140 564 89 518 q 258 633 192 610 q 393 656 323 656 q 477 647 441 656 q 537 627 513 639 q 577 604 562 615 q 600 587 593 593 q 610 584 607 582 q 610 591 612 586 q 594 624 606 602 q 569 675 582 646 q 547 737 557 704 q 538 799 538 770 q 570 894 538 857 q 664 930 602 930 q 730 921 696 930 q 785 878 765 911 q 808 818 796 860 q 832 716 821 777 q 851 578 843 656 q 859 408 859 500 m 559 447 q 528 519 559 492 q 433 547 496 547 q 378 539 407 547 q 324 514 349 530 q 284 471 300 497 q 268 411 268 446 q 278 368 268 386 q 306 338 289 350 q 343 321 322 326 q 385 317 364 317 q 460 329 428 317 q 515 360 493 342 q 549 402 538 379 q 559 447 559 425 z "},"e":{"ha":786,"x_min":26,"x_max":760,"o":"m 760 421 q 738 328 760 368 q 683 261 717 288 q 610 221 650 235 q 534 208 571 208 q 444 221 479 208 q 387 248 408 233 q 356 275 366 262 q 342 288 346 288 q 337 275 339 288 q 335 241 335 262 q 342 195 335 221 q 366 147 349 170 q 414 110 383 125 q 494 96 446 96 q 550 107 528 96 q 590 133 572 119 q 626 159 608 147 q 668 171 644 171 q 720 154 699 171 q 741 109 741 138 q 729 69 741 89 q 688 32 717 49 q 609 4 659 16 q 485 -7 559 -7 q 321 11 403 -7 q 174 69 239 29 q 67 172 109 109 q 26 328 26 236 q 70 485 26 421 q 175 588 113 549 q 309 643 237 627 q 436 660 380 660 q 567 641 507 660 q 670 590 627 623 q 736 514 713 558 q 760 421 760 471 m 561 469 q 526 529 561 505 q 444 553 492 553 q 392 545 414 553 q 354 525 370 538 q 331 498 339 513 q 323 469 323 484 q 357 412 323 437 q 443 387 390 387 q 526 408 490 387 q 561 469 561 429 z "},"f":{"ha":604,"x_min":-14,"x_max":618,"o":"m 618 566 q 589 499 618 519 q 518 478 561 478 q 459 486 490 478 q 404 494 428 494 q 397 484 397 494 q 406 429 397 460 q 421 376 414 397 q 438 329 429 355 q 455 274 447 302 q 467 219 463 245 q 472 168 472 192 q 452 98 472 131 q 401 42 432 65 q 333 6 371 20 q 261 -7 296 -7 q 205 15 228 -7 q 168 72 183 37 q 145 150 153 107 q 133 234 138 192 q 128 311 129 275 q 127 366 127 346 q 128 394 127 375 q 131 435 129 414 q 133 472 132 456 q 134 492 134 488 q 126 500 134 500 q 114 500 122 500 q 96 499 106 500 q 78 498 86 498 q 66 498 69 498 q 6 527 26 498 q -14 591 -14 555 q -5 621 -14 610 q 15 637 3 632 q 44 645 28 643 q 74 647 60 647 q 109 642 93 647 q 143 636 125 636 q 155 652 151 636 q 164 683 158 663 q 178 720 171 703 q 217 803 195 765 q 271 870 240 842 q 345 915 302 899 q 443 930 387 930 q 491 926 463 930 q 547 912 519 922 q 593 886 574 903 q 612 843 612 869 q 597 810 612 819 q 561 802 582 802 q 528 808 543 802 q 494 814 513 814 q 447 799 467 814 q 415 760 428 783 q 396 710 403 737 q 390 661 390 684 q 392 647 390 652 q 403 643 395 643 q 458 648 431 643 q 514 653 486 653 q 587 633 557 653 q 618 566 618 614 z "},"g":{"ha":922,"x_min":26,"x_max":888,"o":"m 888 319 q 829 19 888 153 q 660 -196 770 -114 q 592 -238 629 -220 q 519 -268 555 -256 q 446 -286 482 -279 q 378 -292 410 -292 q 262 -278 309 -292 q 190 -245 216 -265 q 154 -203 164 -225 q 143 -161 143 -180 q 159 -122 143 -139 q 208 -106 175 -106 q 254 -118 236 -106 q 290 -146 272 -131 q 329 -174 307 -161 q 383 -186 350 -186 q 472 -155 435 -186 q 534 -80 509 -125 q 574 18 559 -35 q 595 116 589 71 q 602 192 602 161 q 599 222 603 222 q 571 187 590 222 q 515 108 551 151 q 423 30 478 65 q 290 -5 368 -5 q 202 8 249 -5 q 117 52 155 21 q 52 133 78 83 q 26 257 26 183 q 64 430 26 355 q 163 554 102 504 q 306 630 225 604 q 475 656 387 656 q 688 640 606 656 q 814 579 770 624 q 832 554 821 574 q 857 503 844 534 q 879 425 869 471 q 888 319 888 379 m 566 449 q 529 524 566 498 q 441 549 493 549 q 372 539 404 549 q 315 511 339 529 q 276 468 290 493 q 262 411 262 443 q 298 339 262 363 q 382 315 334 315 q 447 325 414 315 q 506 351 479 334 q 549 393 532 368 q 566 449 566 418 z "},"h":{"ha":822,"x_min":35,"x_max":796,"o":"m 796 406 q 784 290 796 343 q 753 194 771 236 q 714 122 734 153 q 675 72 693 92 q 522 0 607 0 q 459 15 482 0 q 436 54 436 29 q 444 95 436 74 q 461 142 452 115 q 478 204 471 170 q 486 285 486 239 q 454 429 486 376 q 378 481 422 481 q 294 395 294 481 q 306 327 294 363 q 331 256 317 292 q 356 185 345 220 q 367 118 367 150 q 322 22 367 52 q 212 -8 277 -8 q 146 6 178 -8 q 89 67 114 21 q 49 203 64 114 q 35 440 35 292 q 42 574 35 507 q 62 701 50 642 q 89 808 74 761 q 118 879 104 854 q 168 921 135 907 q 225 935 200 935 q 300 909 278 935 q 322 812 322 884 q 315 715 322 762 q 301 631 309 668 q 289 572 293 595 q 289 550 285 550 q 312 567 294 550 q 359 603 329 583 q 432 639 389 623 q 533 656 476 656 q 640 638 591 656 q 724 588 689 621 q 777 510 758 555 q 796 406 796 464 z "},"i":{"ha":401,"x_min":35,"x_max":375,"o":"m 343 829 q 326 782 343 803 q 283 746 309 761 q 231 722 258 730 q 180 714 203 714 q 155 717 168 714 q 131 726 142 720 q 112 742 119 732 q 104 768 104 753 q 122 818 104 796 q 164 854 139 839 q 217 878 189 869 q 265 886 244 886 q 291 883 278 886 q 316 873 304 880 q 335 856 328 867 q 343 829 343 844 m 375 165 q 358 102 375 134 q 311 46 340 71 q 242 8 282 22 q 158 -7 203 -7 q 111 15 134 -7 q 72 76 89 36 q 44 174 54 117 q 35 301 35 231 q 55 488 35 410 q 98 603 75 567 q 146 644 118 632 q 205 656 174 656 q 281 634 257 656 q 304 553 304 612 q 302 507 304 534 q 300 443 300 479 q 312 353 300 392 q 337 283 323 314 q 363 224 351 252 q 375 165 375 196 z "},"j":{"ha":440,"x_min":14,"x_max":406,"o":"m 300 829 q 282 782 300 803 q 240 746 265 761 q 188 722 215 730 q 139 714 160 714 q 113 717 126 714 q 89 726 100 720 q 70 742 78 732 q 62 770 62 753 q 79 819 62 798 q 121 856 96 840 q 174 879 146 871 q 224 886 201 886 q 249 883 235 886 q 274 873 262 880 q 292 856 285 867 q 300 829 300 846 m 406 288 q 389 124 406 203 q 345 -24 372 45 q 283 -149 317 -93 q 212 -243 249 -204 q 154 -284 184 -273 q 100 -296 123 -296 q 14 -215 14 -296 q 31 -160 14 -191 q 70 -87 49 -129 q 109 10 92 -46 q 126 146 126 66 q 117 264 126 215 q 95 350 107 313 q 72 418 82 387 q 62 484 62 449 q 87 562 62 529 q 144 615 111 595 q 213 646 178 636 q 271 656 249 656 q 316 637 292 656 q 360 575 340 618 q 392 463 379 533 q 406 288 406 392 z "},"k":{"ha":814,"x_min":35,"x_max":814,"o":"m 814 161 q 794 101 814 132 q 745 46 775 71 q 679 6 714 21 q 610 -9 643 -9 q 536 11 566 -9 q 484 65 507 32 q 419 174 444 121 q 374 268 393 227 q 339 333 355 309 q 300 358 322 358 q 295 350 296 358 q 296 330 294 342 q 303 303 298 318 q 311 277 307 289 q 341 197 326 232 q 355 131 355 163 q 340 77 355 102 q 300 34 325 52 q 242 7 275 17 q 174 -3 210 -3 q 130 4 154 -3 q 85 43 106 11 q 49 142 64 75 q 35 330 35 210 q 47 526 35 435 q 77 689 60 618 q 112 809 94 761 q 139 872 129 857 q 196 917 161 905 q 264 928 231 928 q 328 899 313 928 q 343 829 343 869 q 339 784 343 812 q 329 722 335 755 q 315 655 322 689 q 304 591 309 621 q 295 526 298 557 q 290 474 292 496 q 289 439 288 452 q 296 427 290 427 q 345 448 321 427 q 394 499 370 469 q 441 562 418 529 q 490 616 465 595 q 537 642 505 632 q 625 652 570 652 q 667 650 643 652 q 714 643 692 648 q 753 627 737 637 q 770 597 770 616 q 743 551 770 574 q 679 513 715 528 q 617 489 650 500 q 557 468 585 478 q 512 447 530 457 q 494 428 494 437 q 518 392 494 412 q 577 351 542 372 q 654 306 612 329 q 731 258 696 282 q 790 209 766 233 q 814 161 814 184 z "},"l":{"ha":403,"x_min":35,"x_max":376,"o":"m 376 165 q 356 96 376 127 q 306 41 336 64 q 238 5 275 18 q 168 -8 201 -8 q 125 4 149 -8 q 81 59 102 16 q 48 188 61 103 q 35 421 35 273 q 44 549 35 478 q 67 686 53 619 q 96 805 81 753 q 125 876 111 857 q 176 916 144 903 q 241 929 207 929 q 329 828 329 929 q 318 706 329 778 q 307 532 307 633 q 318 411 307 464 q 341 315 329 358 q 365 237 354 272 q 376 165 376 201 z "},"m":{"ha":1260,"x_min":26,"x_max":1234,"o":"m 1234 406 q 1220 284 1234 340 q 1185 183 1206 228 q 1142 106 1165 139 q 1099 56 1118 74 q 1037 13 1071 31 q 953 -4 1003 -4 q 891 12 911 -4 q 872 47 872 28 q 881 90 872 66 q 898 142 889 114 q 915 203 907 171 q 924 273 924 236 q 915 368 924 329 q 889 432 905 407 q 854 469 873 457 q 814 481 835 481 q 788 476 802 481 q 761 463 774 472 q 741 438 749 454 q 733 396 733 421 q 741 308 733 345 q 757 244 749 272 q 773 193 765 216 q 781 143 781 170 q 727 34 781 72 q 582 -4 673 -4 q 463 119 463 -4 q 467 194 463 154 q 472 285 472 233 q 442 429 472 376 q 358 481 412 481 q 278 392 278 481 q 289 318 278 351 q 313 253 300 285 q 337 188 326 221 q 349 115 349 155 q 310 23 349 56 q 200 -9 271 -9 q 121 15 154 -9 q 68 84 89 40 q 37 189 47 127 q 26 321 26 250 q 46 502 26 433 q 96 612 66 570 q 138 647 113 636 q 183 657 163 657 q 249 640 235 657 q 262 596 262 623 q 260 578 262 587 q 258 561 258 570 q 257 547 257 553 q 261 542 257 542 q 282 560 265 542 q 330 598 300 578 q 402 637 359 619 q 503 656 446 656 q 606 640 566 656 q 672 604 647 624 q 709 567 697 583 q 724 551 721 551 q 744 567 730 551 q 785 604 758 583 q 854 640 812 624 q 958 656 896 656 q 1042 647 994 656 q 1133 610 1090 637 q 1204 534 1175 583 q 1234 406 1234 485 z "},"n":{"ha":800,"x_min":26,"x_max":774,"o":"m 774 407 q 737 208 774 296 q 650 66 700 121 q 578 15 618 31 q 503 0 539 0 q 439 13 463 0 q 415 50 415 26 q 424 94 415 71 q 441 144 432 117 q 458 205 450 172 q 467 279 467 239 q 436 427 467 375 q 358 479 406 479 q 297 460 318 479 q 277 392 277 441 q 288 318 277 351 q 312 254 298 285 q 336 190 325 222 q 347 118 347 157 q 307 22 347 54 q 203 -9 267 -9 q 69 82 111 -9 q 26 330 26 174 q 46 499 26 429 q 96 612 65 570 q 136 647 111 636 q 184 657 161 657 q 245 641 229 657 q 261 597 261 624 q 256 559 261 576 q 261 542 252 542 q 282 559 265 542 q 330 598 298 576 q 408 637 361 619 q 518 654 454 654 q 624 635 576 654 q 704 583 671 616 q 755 505 737 550 q 774 407 774 460 z "},"o":{"ha":840,"x_min":26,"x_max":814,"o":"m 814 321 q 778 170 814 232 q 684 69 742 109 q 552 11 625 29 q 406 -7 479 -7 q 282 11 349 -7 q 160 67 216 28 q 65 168 103 106 q 26 318 26 229 q 56 454 26 392 q 137 562 85 517 q 260 633 189 607 q 415 659 332 659 q 574 634 501 659 q 701 565 647 610 q 784 458 754 521 q 814 321 814 396 m 572 432 q 529 519 572 485 q 419 553 486 553 q 356 542 385 553 q 309 515 328 532 q 280 478 290 498 q 269 437 269 457 q 312 350 269 379 q 421 321 355 321 q 479 329 452 321 q 528 350 507 336 q 561 385 549 364 q 572 432 572 406 z "},"p":{"ha":876,"x_min":35,"x_max":850,"o":"m 850 294 q 830 171 850 227 q 772 76 810 115 q 681 16 734 37 q 558 -5 627 -5 q 456 11 500 -5 q 376 53 412 26 q 310 113 340 79 q 249 182 279 147 q 243 186 244 186 q 240 183 240 186 q 243 164 240 175 q 250 140 245 153 q 258 117 254 127 q 265 98 262 106 q 289 39 275 74 q 316 -33 302 4 q 338 -105 329 -69 q 347 -167 347 -140 q 308 -260 347 -229 q 210 -292 269 -292 q 136 -274 165 -292 q 86 -218 107 -257 q 70 -168 77 -201 q 56 -94 62 -135 q 46 -8 50 -53 q 39 80 41 37 q 36 158 37 122 q 35 214 35 193 q 37 294 35 249 q 45 385 39 339 q 62 474 52 431 q 89 549 72 517 q 127 598 104 581 q 184 628 150 615 q 239 642 210 636 q 298 651 268 648 q 359 656 329 654 q 415 657 389 657 q 574 634 496 657 q 713 565 652 611 q 812 452 775 519 q 850 294 850 385 m 615 412 q 599 471 615 446 q 558 514 583 497 q 503 541 533 532 q 443 550 472 550 q 398 545 421 550 q 356 528 375 539 q 327 498 338 517 q 315 453 315 479 q 333 396 315 421 q 379 354 351 371 q 439 329 407 338 q 498 319 471 319 q 540 325 519 319 q 578 341 561 330 q 605 370 595 353 q 615 412 615 387 z "},"q":{"ha":876,"x_min":26,"x_max":842,"o":"m 842 214 q 840 158 842 193 q 836 80 839 122 q 830 -8 833 37 q 820 -94 827 -53 q 806 -168 814 -135 q 789 -218 799 -201 q 738 -274 766 -257 q 665 -292 710 -292 q 567 -260 606 -292 q 529 -167 529 -229 q 538 -105 529 -140 q 560 -33 547 -69 q 586 39 572 4 q 610 98 600 74 q 623 135 615 113 q 636 179 631 158 q 633 186 637 186 q 627 182 631 186 q 567 113 597 147 q 500 53 536 79 q 419 11 464 26 q 317 -5 375 -5 q 195 16 249 -5 q 103 76 140 37 q 46 171 65 115 q 26 294 26 227 q 64 452 26 385 q 163 565 102 519 q 302 634 224 611 q 461 657 380 657 q 578 651 514 657 q 690 628 642 646 q 745 600 722 616 q 786 549 768 583 q 813 474 803 517 q 830 385 823 431 q 839 294 836 339 q 842 214 842 249 m 559 453 q 549 498 559 479 q 519 528 538 517 q 478 545 501 539 q 432 550 456 550 q 372 541 403 550 q 317 514 342 532 q 276 471 292 497 q 260 412 260 446 q 270 370 260 387 q 297 341 281 353 q 335 325 314 330 q 376 319 355 319 q 436 329 404 319 q 496 354 468 338 q 542 396 524 371 q 559 453 559 421 z "},"r":{"ha":644,"x_min":26,"x_max":631,"o":"m 631 526 q 618 471 631 500 q 584 420 606 443 q 535 382 562 397 q 479 367 509 367 q 440 385 453 367 q 415 427 427 403 q 385 465 404 452 q 345 478 366 478 q 295 458 313 478 q 277 395 277 437 q 288 320 277 354 q 312 254 298 286 q 336 190 325 222 q 347 119 347 157 q 335 60 347 85 q 303 19 323 35 q 258 -3 283 4 q 205 -9 233 -9 q 26 336 26 -9 q 47 504 26 436 q 92 607 68 572 q 137 646 111 635 q 186 657 163 657 q 241 643 221 657 q 261 597 261 629 q 256 560 261 579 q 256 541 250 541 q 277 558 261 541 q 321 596 293 575 q 391 634 350 616 q 488 652 432 652 q 558 641 530 652 q 602 613 586 631 q 624 573 618 596 q 631 526 631 550 z "},"s":{"ha":600,"x_min":14,"x_max":581,"o":"m 581 214 q 569 145 581 183 q 528 73 557 107 q 449 16 498 39 q 323 -7 399 -7 q 176 24 235 -7 q 81 97 117 54 q 29 184 45 139 q 14 257 14 229 q 26 296 14 277 q 62 315 39 315 q 97 300 79 315 q 136 267 114 285 q 184 234 158 249 q 244 218 211 218 q 279 230 268 218 q 290 257 290 241 q 260 313 290 290 q 192 358 229 335 q 123 415 154 382 q 93 503 93 449 q 104 557 93 530 q 139 608 115 585 q 200 645 163 631 q 289 659 237 659 q 422 631 370 659 q 475 553 475 603 q 458 510 475 529 q 411 492 441 492 q 371 502 389 492 q 340 524 354 511 q 314 546 326 536 q 286 555 301 555 q 255 545 264 555 q 245 522 245 534 q 276 483 245 500 q 358 444 307 465 q 413 424 376 437 q 488 383 450 410 q 553 316 525 357 q 581 214 581 275 z "},"t":{"ha":585,"x_min":-14,"x_max":619,"o":"m 619 572 q 518 488 619 488 q 460 494 490 488 q 407 501 431 501 q 395 486 395 501 q 399 451 395 471 q 409 412 403 432 q 422 373 415 392 q 433 339 429 354 q 459 252 447 298 q 472 164 472 205 q 451 94 472 126 q 399 40 431 62 q 331 6 368 18 q 260 -7 293 -7 q 206 15 228 -7 q 170 70 184 36 q 148 146 155 104 q 136 228 140 187 q 132 305 132 269 q 131 361 131 340 q 132 424 131 393 q 132 486 132 454 q 129 504 132 498 q 111 510 125 510 q 93 509 102 510 q 77 507 85 507 q 9 531 32 507 q -14 591 -14 555 q 8 638 -14 625 q 53 652 29 652 q 100 647 77 652 q 143 642 123 642 q 153 650 151 642 q 182 773 168 725 q 224 860 196 822 q 277 909 244 889 q 346 929 310 929 q 403 908 382 929 q 424 850 424 886 q 419 806 424 828 q 409 764 414 785 q 399 721 404 743 q 395 675 395 699 q 398 657 395 665 q 412 648 401 648 q 465 654 440 648 q 517 660 490 660 q 589 639 558 660 q 619 572 619 618 z "},"u":{"ha":806,"x_min":26,"x_max":779,"o":"m 779 367 q 774 308 779 345 q 752 231 768 272 q 708 147 736 189 q 637 70 681 104 q 530 15 593 36 q 383 -7 468 -7 q 244 19 310 -7 q 131 91 179 45 q 54 202 82 138 q 26 345 26 267 q 45 457 26 400 q 95 560 64 514 q 167 635 126 606 q 253 664 208 664 q 278 655 264 664 q 293 623 293 646 q 284 585 293 603 q 264 547 275 567 q 244 505 253 528 q 235 453 235 482 q 276 350 235 379 q 375 321 317 321 q 452 349 428 321 q 476 412 476 376 q 469 453 476 435 q 455 490 463 472 q 440 527 447 507 q 433 570 433 546 q 469 633 433 608 q 558 659 505 659 q 662 631 621 659 q 730 560 704 603 q 768 465 757 517 q 779 367 779 414 z "},"v":{"ha":730,"x_min":7,"x_max":724,"o":"m 724 526 q 704 390 724 461 q 651 253 685 319 q 573 127 618 186 q 475 29 528 69 q 378 -7 428 -7 q 321 8 346 -7 q 200 116 257 49 q 100 261 143 183 q 32 419 57 339 q 7 566 7 500 q 21 618 7 599 q 59 647 36 637 q 111 660 82 657 q 165 663 139 663 q 252 643 212 663 q 315 582 292 624 q 332 542 326 564 q 340 496 338 519 q 345 449 343 472 q 349 404 346 425 q 362 353 353 380 q 389 301 372 325 q 428 260 406 277 q 478 244 450 244 q 514 258 500 244 q 538 292 529 272 q 551 334 547 311 q 554 374 554 357 q 541 476 554 427 q 528 578 528 526 q 557 637 528 618 q 623 657 586 657 q 674 647 654 657 q 704 620 693 637 q 720 578 715 602 q 724 526 724 554 z "},"w":{"ha":1015,"x_min":7,"x_max":1008,"o":"m 1008 530 q 989 391 1008 463 q 936 252 970 319 q 856 127 903 184 q 755 28 810 69 q 714 3 737 14 q 668 -7 692 -7 q 615 8 639 -7 q 574 40 591 22 q 545 72 557 57 q 526 86 533 86 q 509 72 522 86 q 476 40 496 57 q 429 8 456 22 q 372 -7 403 -7 q 339 -1 355 -7 q 311 12 323 4 q 197 116 252 53 q 99 254 142 179 q 32 409 57 329 q 7 561 7 489 q 21 615 7 595 q 57 645 35 635 q 106 657 79 654 q 160 660 134 660 q 245 641 204 660 q 310 582 286 623 q 328 537 322 559 q 336 494 334 515 q 339 450 338 472 q 345 404 340 428 q 360 351 349 379 q 388 300 371 323 q 427 260 404 277 q 479 244 450 244 q 503 253 493 244 q 513 277 513 262 q 505 310 513 292 q 489 349 497 328 q 473 392 481 370 q 465 437 465 414 q 498 506 465 482 q 572 529 532 529 q 671 491 632 529 q 710 392 710 453 q 711 351 710 375 q 718 303 711 326 q 736 262 724 279 q 774 245 749 245 q 805 260 793 245 q 826 295 818 275 q 836 337 833 315 q 839 372 839 358 q 826 474 839 425 q 814 572 814 522 q 843 635 814 616 q 913 654 872 654 q 959 645 940 654 q 989 618 978 635 q 1004 578 1000 602 q 1008 530 1008 555 z "},"x":{"ha":765,"x_min":0,"x_max":765,"o":"m 765 66 q 754 35 765 49 q 724 11 743 21 q 681 -3 705 1 q 632 -7 657 -7 q 548 2 587 -7 q 478 39 509 11 q 438 103 454 61 q 411 186 422 144 q 394 258 400 228 q 382 289 387 289 q 371 258 378 289 q 353 184 364 227 q 325 99 342 142 q 282 32 309 56 q 222 3 260 12 q 136 -7 184 -7 q 88 -3 113 -7 q 44 10 64 0 q 13 35 25 20 q 0 72 0 50 q 20 156 0 117 q 71 230 40 196 q 137 291 102 264 q 203 337 172 318 q 253 369 233 357 q 273 385 273 382 q 241 408 273 389 q 171 453 210 427 q 100 512 132 479 q 68 576 68 545 q 78 614 68 599 q 105 639 89 629 q 141 653 121 648 q 180 659 161 659 q 235 651 210 659 q 279 621 260 643 q 311 567 294 604 q 342 491 328 529 q 368 424 357 453 q 382 395 379 395 q 397 422 386 395 q 423 488 408 450 q 453 562 437 525 q 484 616 469 599 q 526 649 501 640 q 583 659 551 659 q 661 639 625 659 q 696 575 696 619 q 681 531 696 553 q 642 488 665 509 q 592 451 619 468 q 543 420 566 433 q 504 398 519 407 q 489 385 489 389 q 509 370 489 382 q 560 339 529 358 q 627 292 591 319 q 694 231 663 265 q 745 155 725 196 q 765 66 765 114 z "},"y":{"ha":743,"x_min":7,"x_max":724,"o":"m 724 525 q 679 215 724 363 q 560 -47 633 66 q 392 -227 486 -160 q 200 -294 298 -294 q 119 -272 151 -294 q 86 -210 86 -249 q 107 -164 86 -182 q 160 -146 129 -146 q 212 -154 187 -146 q 257 -161 236 -161 q 324 -144 292 -161 q 378 -106 357 -127 q 407 -65 400 -85 q 397 -39 414 -45 q 260 50 329 -14 q 134 197 191 113 q 42 377 78 281 q 7 566 7 473 q 21 618 7 599 q 57 648 35 637 q 106 661 79 659 q 158 664 132 664 q 248 645 201 664 q 318 575 294 625 q 338 513 334 543 q 345 454 343 482 q 351 397 347 425 q 364 345 354 370 q 420 269 383 296 q 489 241 457 241 q 510 245 497 241 q 534 260 522 249 q 555 292 546 272 q 564 346 564 313 q 558 404 564 374 q 547 465 553 435 q 535 522 541 494 q 529 570 529 549 q 553 632 529 606 q 627 659 578 659 q 699 623 675 659 q 724 525 724 587 z "},"z":{"ha":538,"x_min":20,"x_max":550,"o":"m 550 110 q 537 52 550 74 q 488 17 524 29 q 392 -3 446 1 q 293 -7 338 -7 q 216 -5 257 -7 q 140 8 175 -3 q 94 32 115 16 q 55 69 72 47 q 29 115 39 90 q 20 165 20 140 q 40 257 20 212 q 93 340 61 301 q 161 412 125 379 q 229 469 197 444 q 282 509 261 493 q 302 530 302 525 q 287 547 302 543 q 261 550 271 550 q 212 540 232 550 q 175 518 192 530 q 141 496 158 505 q 102 486 125 486 q 56 503 74 486 q 39 547 39 519 q 68 607 39 585 q 139 641 98 629 q 223 656 180 653 q 292 659 265 659 q 354 656 318 659 q 422 643 390 653 q 477 611 454 632 q 500 554 500 590 q 485 506 500 525 q 447 473 469 488 q 397 445 424 458 q 349 414 371 432 q 286 333 304 378 q 268 254 268 288 q 281 240 268 240 q 306 249 292 240 q 338 269 321 258 q 376 288 355 279 q 419 297 397 297 q 474 277 450 297 q 515 229 498 257 q 541 168 532 200 q 550 110 550 135 z "},"{":{"ha":441,"x_min":22,"x_max":456,"o":"m 456 -205 q 413 -274 456 -249 q 306 -300 371 -300 q 213 -273 254 -300 q 144 -203 172 -245 q 101 -109 117 -161 q 86 -3 86 -56 q 95 154 86 89 q 104 268 104 220 q 99 330 104 304 q 84 372 93 355 q 65 398 75 389 q 46 414 54 408 q 22 447 22 428 q 27 465 22 457 q 46 478 32 473 q 72 488 57 481 q 100 511 86 496 q 123 551 114 526 q 132 610 132 575 q 129 642 132 627 q 121 674 125 657 q 115 712 118 692 q 111 760 111 733 q 125 838 111 806 q 162 892 139 871 q 213 922 184 913 q 271 932 241 932 q 308 930 286 932 q 353 923 330 929 q 390 903 375 917 q 406 863 406 889 q 394 831 406 847 q 357 815 382 815 q 333 821 343 815 q 315 833 323 827 q 296 846 306 840 q 272 851 286 851 q 245 843 260 851 q 231 808 231 835 q 241 750 231 777 q 264 699 252 724 q 287 647 277 673 q 297 587 297 621 q 278 528 297 553 q 237 488 260 504 q 194 463 214 472 q 175 450 175 454 q 195 437 175 444 q 239 411 215 429 q 282 362 262 393 q 302 279 302 330 q 290 201 302 239 q 263 126 278 164 q 236 45 249 87 q 224 -47 224 3 q 241 -168 224 -131 q 296 -205 258 -205 q 321 -196 311 -205 q 339 -174 330 -186 q 360 -153 349 -163 q 392 -143 372 -143 q 441 -164 427 -143 q 456 -205 456 -186 z "},"|":{"ha":243,"x_min":35,"x_max":208,"o":"m 208 54 q 188 -9 208 17 q 122 -36 167 -36 q 56 -10 78 -36 q 35 47 35 16 q 37 100 35 69 q 42 179 39 131 q 47 295 45 227 q 49 461 49 364 q 47 630 49 562 q 42 744 45 699 q 37 820 39 790 q 35 875 35 850 q 56 932 35 907 q 122 958 78 958 q 188 932 167 958 q 208 868 208 905 q 206 821 208 848 q 201 747 204 793 q 197 632 199 701 q 195 463 195 564 q 197 295 195 364 q 201 177 199 225 q 206 100 204 129 q 208 54 208 71 z "},"}":{"ha":441,"x_min":-14,"x_max":419,"o":"m 419 447 q 396 414 419 427 q 378 400 387 410 q 360 373 368 390 q 345 330 351 355 q 339 268 339 304 q 347 154 339 220 q 355 -3 355 89 q 340 -109 355 -56 q 297 -203 325 -161 q 228 -273 269 -245 q 136 -300 187 -300 q 28 -274 69 -300 q -14 -205 -14 -249 q 1 -164 -14 -186 q 49 -143 16 -143 q 81 -153 69 -143 q 102 -174 93 -163 q 121 -196 111 -186 q 147 -205 131 -205 q 201 -168 183 -205 q 218 -47 218 -131 q 206 45 218 3 q 178 126 193 87 q 150 201 163 164 q 138 279 138 239 q 158 362 138 330 q 203 411 178 393 q 248 437 228 429 q 268 450 268 444 q 249 463 268 454 q 206 488 229 472 q 164 528 183 504 q 144 587 144 553 q 155 647 144 621 q 179 699 165 673 q 202 750 192 724 q 212 808 212 777 q 197 843 212 835 q 168 851 182 851 q 146 846 155 851 q 127 833 136 840 q 108 821 118 827 q 85 815 98 815 q 48 831 60 815 q 36 863 36 847 q 51 903 36 889 q 88 923 66 917 q 133 930 110 929 q 170 932 155 932 q 229 922 200 932 q 279 892 257 913 q 315 838 301 871 q 329 760 329 806 q 326 712 329 733 q 319 674 322 692 q 312 642 315 657 q 309 610 309 627 q 318 551 309 575 q 341 512 328 526 q 369 490 354 497 q 396 478 385 482 q 419 447 419 469 z "},"~":{"ha":596,"x_min":35,"x_max":561,"o":"m 561 447 q 525 355 561 392 q 432 318 489 318 q 343 347 382 318 q 272 412 304 376 q 215 476 240 447 q 167 505 191 505 q 146 499 155 505 q 138 479 138 493 q 144 459 138 468 q 158 440 150 450 q 173 419 167 431 q 179 390 179 407 q 160 351 179 366 q 118 336 142 336 q 78 346 94 336 q 53 371 62 355 q 39 408 43 387 q 35 452 35 429 q 43 506 35 479 q 67 553 52 532 q 108 586 83 574 q 164 599 132 599 q 221 590 195 599 q 271 571 248 582 q 315 552 294 561 q 355 543 336 543 q 384 555 375 543 q 399 581 393 567 q 413 606 406 595 q 437 618 421 618 q 483 603 461 618 q 523 564 505 587 q 551 510 541 541 q 561 447 561 479 z "},"Ä":{"ha":878,"x_min":7,"x_max":871,"o":"m 710 1060 q 694 1018 710 1038 q 654 984 677 999 q 606 962 631 970 q 561 954 581 954 q 518 964 539 954 q 497 1000 497 974 q 512 1045 497 1025 q 551 1079 528 1065 q 600 1101 574 1093 q 646 1108 625 1108 q 690 1098 669 1108 q 710 1060 710 1088 m 446 1060 q 430 1018 446 1038 q 391 984 414 999 q 342 962 368 970 q 297 954 317 954 q 255 964 277 954 q 233 1000 233 974 q 249 1045 233 1025 q 287 1079 264 1065 q 335 1101 310 1093 q 382 1108 361 1108 q 426 1098 406 1108 q 446 1060 446 1088 m 871 66 q 853 28 871 41 q 812 9 836 16 q 762 1 789 3 q 720 0 736 0 q 671 2 700 0 q 616 13 643 4 q 569 37 589 21 q 550 81 550 53 q 553 103 550 92 q 555 125 555 114 q 538 170 555 151 q 496 201 521 189 q 443 219 471 214 q 395 225 415 225 q 340 214 363 225 q 317 167 317 203 q 321 134 317 150 q 326 100 326 118 q 301 49 326 69 q 242 17 277 29 q 173 -1 208 4 q 115 -5 138 -5 q 74 -3 94 -5 q 40 8 54 0 q 16 32 25 17 q 7 72 7 47 q 15 177 7 122 q 37 287 24 232 q 67 394 50 342 q 103 493 85 447 q 151 594 122 541 q 212 698 179 647 q 279 794 244 749 q 345 869 314 839 q 388 905 364 889 q 443 921 412 921 q 487 910 468 921 q 522 880 505 899 q 592 799 557 846 q 659 701 627 753 q 720 596 692 650 q 770 493 749 543 q 807 390 789 447 q 840 275 825 334 q 863 162 854 216 q 871 66 871 107 m 521 589 q 512 636 521 602 q 492 708 504 671 q 465 773 479 745 q 437 802 450 802 q 411 772 427 802 q 383 705 396 743 q 360 631 370 667 q 351 581 351 595 q 378 532 351 545 q 433 519 404 519 q 496 533 472 519 q 521 589 521 546 z "},"Å":{"ha":878,"x_min":7,"x_max":871,"o":"m 568 1064 q 528 983 568 1013 q 435 954 488 954 q 356 979 386 954 q 326 1051 326 1003 q 337 1092 326 1074 q 367 1122 349 1109 q 410 1142 386 1135 q 458 1149 433 1149 q 535 1127 501 1149 q 568 1064 568 1105 m 496 1075 q 485 1097 496 1090 q 454 1104 473 1104 q 413 1094 424 1104 q 401 1072 401 1083 q 447 1040 401 1040 q 483 1050 469 1040 q 496 1075 496 1060 m 871 66 q 853 28 871 41 q 812 9 836 16 q 762 1 789 3 q 720 0 736 0 q 671 2 700 0 q 616 13 643 4 q 569 37 589 21 q 550 81 550 53 q 553 103 550 92 q 555 125 555 114 q 538 170 555 151 q 496 201 521 189 q 443 219 471 214 q 395 225 415 225 q 340 214 363 225 q 317 167 317 203 q 321 134 317 150 q 326 100 326 118 q 301 49 326 69 q 242 17 277 29 q 173 -1 208 4 q 115 -5 138 -5 q 74 -3 94 -5 q 40 8 54 0 q 16 32 25 17 q 7 72 7 47 q 15 177 7 122 q 37 287 24 232 q 67 394 50 342 q 103 493 85 447 q 151 594 122 541 q 212 698 179 647 q 279 794 244 749 q 345 869 314 839 q 388 905 364 889 q 443 921 412 921 q 487 910 468 921 q 522 880 505 899 q 592 799 557 846 q 659 701 627 753 q 720 596 692 650 q 770 493 749 543 q 807 390 789 447 q 840 275 825 334 q 863 162 854 216 q 871 66 871 107 m 521 589 q 512 636 521 602 q 492 708 504 671 q 465 773 479 745 q 437 802 450 802 q 411 772 427 802 q 383 705 396 743 q 360 631 370 667 q 351 581 351 595 q 378 532 351 545 q 433 519 404 519 q 496 533 472 519 q 521 589 521 546 z "},"Ç":{"ha":885,"x_min":26,"x_max":859,"o":"m 859 249 q 840 161 859 201 q 792 90 822 121 q 722 37 762 58 q 635 5 681 16 q 627 0 627 4 q 645 -21 627 -7 q 685 -55 664 -35 q 726 -101 707 -75 q 745 -157 745 -127 q 709 -237 745 -208 q 625 -265 673 -265 q 579 -258 603 -265 q 536 -238 555 -252 q 504 -203 517 -224 q 490 -158 490 -183 q 517 -131 490 -131 q 534 -133 526 -131 q 549 -135 542 -135 q 579 -127 566 -135 q 593 -100 593 -119 q 565 -36 593 -65 q 494 -4 538 -7 q 415 5 463 -3 q 316 33 368 14 q 213 86 264 53 q 120 171 161 119 q 52 294 78 222 q 26 461 26 366 q 67 660 26 574 q 176 804 107 746 q 337 892 244 863 q 536 921 431 921 q 658 909 606 921 q 745 878 710 897 q 799 833 781 859 q 817 781 817 808 q 788 719 817 737 q 730 701 760 701 q 677 716 699 701 q 633 749 656 732 q 581 782 610 766 q 503 798 551 798 q 354 740 412 798 q 296 572 296 682 q 317 474 296 517 q 370 405 338 432 q 445 364 403 378 q 528 350 486 350 q 595 360 568 350 q 645 384 623 371 q 690 408 668 397 q 741 418 711 418 q 794 401 772 418 q 831 360 817 385 q 852 305 846 335 q 859 249 859 275 z "},"É":{"ha":803,"x_min":35,"x_max":783,"o":"m 557 1107 q 544 1046 557 1074 q 511 997 532 1018 q 464 965 490 977 q 410 954 437 954 q 349 976 371 954 q 328 1026 328 997 q 374 1076 328 1068 q 444 1100 414 1083 q 503 1157 473 1117 q 513 1169 509 1164 q 526 1174 518 1174 q 542 1166 536 1174 q 551 1148 547 1158 q 555 1125 554 1137 q 557 1107 557 1114 m 783 273 q 755 182 783 231 q 666 92 728 134 q 505 22 604 50 q 261 -5 406 -5 q 155 8 201 -5 q 86 62 109 22 q 49 191 64 103 q 35 406 35 279 q 43 533 35 465 q 64 661 52 600 q 92 772 77 722 q 121 846 107 822 q 172 888 138 873 q 248 910 205 903 q 335 920 290 918 q 416 921 379 921 q 663 882 581 921 q 746 772 746 843 q 740 730 746 750 q 719 694 733 710 q 681 670 704 679 q 624 661 657 661 q 562 676 593 661 q 500 708 532 692 q 435 734 469 724 q 363 734 401 745 q 340 708 349 730 q 329 659 332 685 q 328 612 326 633 q 335 590 329 590 q 393 597 366 590 q 457 604 421 604 q 566 528 566 604 q 546 485 566 504 q 482 465 526 465 q 426 472 457 465 q 342 478 395 478 q 339 459 338 478 q 350 417 340 440 q 380 376 359 395 q 432 357 400 357 q 485 360 453 357 q 552 366 517 363 q 622 372 587 370 q 686 375 657 375 q 718 373 701 375 q 749 362 734 371 q 773 332 764 353 q 783 273 783 311 z "},"Ñ":{"ha":964,"x_min":35,"x_max":929,"o":"m 652 1036 q 628 977 652 1000 q 568 954 604 954 q 512 972 534 954 q 472 1012 489 990 q 443 1052 456 1034 q 416 1069 431 1069 q 401 1057 401 1069 q 406 1046 401 1051 q 414 1034 410 1040 q 424 1020 419 1028 q 428 1002 428 1013 q 415 974 428 985 q 385 964 401 964 q 342 988 354 964 q 330 1039 330 1013 q 352 1106 330 1079 q 415 1133 374 1133 q 453 1128 436 1133 q 483 1119 469 1124 q 509 1109 497 1114 q 532 1104 521 1104 q 543 1111 541 1104 q 548 1124 546 1117 q 553 1137 550 1131 q 567 1143 557 1143 q 598 1132 583 1143 q 626 1104 614 1121 q 645 1069 637 1088 q 652 1036 652 1051 m 929 509 q 920 370 929 437 q 899 246 911 302 q 872 144 886 189 q 846 77 857 100 q 784 14 825 33 q 696 -5 743 -5 q 636 15 661 -5 q 611 68 611 36 q 620 133 611 97 q 628 203 628 170 q 608 314 628 262 q 556 409 587 366 q 488 485 525 452 q 417 541 452 518 q 358 575 383 564 q 325 587 334 587 q 308 578 311 587 q 304 553 304 568 q 320 481 304 524 q 353 391 335 439 q 386 294 371 343 q 401 205 401 245 q 384 133 401 170 q 333 66 366 96 q 253 19 300 37 q 150 0 207 0 q 62 103 89 0 q 35 407 35 205 q 44 549 35 478 q 67 681 54 621 q 95 784 81 741 q 117 842 109 827 q 150 883 132 867 q 186 907 168 899 q 220 918 204 916 q 245 921 236 921 q 282 916 262 921 q 323 898 302 911 q 366 861 345 885 q 410 799 387 836 q 519 622 472 690 q 611 554 567 554 q 615 569 621 554 q 598 608 610 583 q 577 663 587 632 q 567 728 567 694 q 588 797 567 762 q 642 858 608 831 q 720 902 676 885 q 811 918 764 918 q 873 879 850 918 q 908 780 896 840 q 925 647 921 720 q 929 509 929 575 z "},"Ö":{"ha":1093,"x_min":31,"x_max":1063,"o":"m 789 1061 q 773 1019 789 1039 q 734 985 757 999 q 686 963 711 971 q 640 954 660 954 q 598 965 619 954 q 576 1000 576 975 q 592 1045 576 1025 q 631 1079 608 1065 q 680 1101 654 1093 q 726 1108 705 1108 q 769 1098 749 1108 q 789 1061 789 1088 m 528 1061 q 512 1019 528 1039 q 473 985 496 999 q 425 963 450 971 q 379 954 399 954 q 335 965 357 954 q 314 1000 314 975 q 330 1045 314 1025 q 369 1079 346 1065 q 417 1101 392 1093 q 464 1108 443 1108 q 508 1098 488 1108 q 528 1061 528 1088 m 1063 465 q 1020 250 1063 339 q 904 104 977 160 q 740 21 832 47 q 547 -5 647 -5 q 354 21 447 -5 q 190 104 261 47 q 74 252 118 161 q 31 468 31 342 q 69 639 31 557 q 176 783 107 721 q 340 883 244 846 q 553 921 436 921 q 738 889 646 921 q 902 797 829 857 q 1018 653 974 737 q 1063 465 1063 570 m 760 581 q 742 671 760 629 q 694 745 724 713 q 626 794 664 777 q 547 812 587 812 q 465 794 504 812 q 398 743 427 775 q 353 668 370 711 q 336 574 336 624 q 350 485 336 526 q 390 414 363 444 q 456 367 416 385 q 547 350 496 350 q 657 376 615 350 q 722 439 699 403 q 752 514 745 475 q 760 581 760 554 z "},"Ü":{"ha":930,"x_min":35,"x_max":896,"o":"m 704 1061 q 688 1019 704 1039 q 649 985 672 999 q 600 963 625 971 q 555 954 575 954 q 512 965 533 954 q 492 1000 492 975 q 507 1045 492 1025 q 545 1079 522 1065 q 594 1101 568 1093 q 640 1108 619 1108 q 684 1098 664 1108 q 704 1061 704 1088 m 440 1061 q 424 1019 440 1039 q 386 985 408 999 q 337 963 363 971 q 292 954 311 954 q 249 965 271 954 q 228 1000 228 975 q 244 1045 228 1025 q 283 1079 260 1065 q 331 1101 306 1093 q 378 1108 357 1108 q 421 1098 401 1108 q 440 1061 440 1088 m 896 427 q 890 341 896 389 q 869 247 885 294 q 826 153 852 199 q 755 72 799 107 q 649 15 711 36 q 501 -7 586 -7 q 290 31 378 -7 q 144 137 201 69 q 61 297 87 205 q 35 496 35 389 q 45 647 35 571 q 75 783 56 722 q 123 881 94 843 q 186 920 151 920 q 287 900 243 920 q 363 850 332 880 q 411 783 395 821 q 428 707 428 745 q 417 645 428 676 q 395 583 407 614 q 373 522 383 551 q 363 464 363 492 q 384 397 363 422 q 435 358 406 372 q 493 338 464 343 q 538 334 522 334 q 596 342 567 334 q 649 369 625 351 q 687 413 672 386 q 701 475 701 440 q 683 568 701 529 q 641 643 664 607 q 599 718 618 679 q 581 808 581 757 q 602 890 581 860 q 675 920 623 920 q 759 897 725 920 q 815 832 793 875 q 851 744 836 793 q 876 643 865 696 q 891 535 886 590 q 896 427 896 479 z "},"á":{"ha":901,"x_min":26,"x_max":875,"o":"m 875 338 q 873 268 875 307 q 865 191 871 229 q 847 117 859 153 q 817 56 835 81 q 754 8 793 22 q 676 -5 715 -5 q 642 -4 663 -5 q 601 3 621 -3 q 569 21 582 9 q 555 54 555 33 q 563 104 555 78 q 579 156 571 131 q 595 199 587 180 q 603 225 603 218 q 599 231 603 231 q 594 227 596 231 q 587 216 591 224 q 532 136 561 175 q 468 66 503 97 q 390 16 433 35 q 292 -3 347 -3 q 185 17 233 -3 q 101 73 136 37 q 46 157 65 109 q 26 264 26 205 q 62 433 26 359 q 158 557 97 507 q 299 632 218 607 q 468 657 379 657 q 548 655 500 657 q 645 645 596 653 q 738 622 694 636 q 803 582 781 607 q 837 529 823 559 q 860 466 851 498 q 871 400 868 433 q 875 338 875 367 m 559 453 q 549 497 559 479 q 520 527 538 515 q 480 545 503 539 q 436 550 458 550 q 374 542 406 550 q 317 518 343 534 q 276 476 292 501 q 260 415 260 452 q 270 373 260 390 q 296 343 279 355 q 333 326 313 332 q 376 321 354 321 q 437 329 404 321 q 496 354 469 338 q 542 394 524 370 q 559 453 559 419 m 619 857 q 607 796 619 823 q 574 747 595 768 q 526 715 553 726 q 472 704 500 704 q 412 726 433 704 q 390 777 390 747 q 436 827 390 818 q 506 850 476 833 q 566 907 536 867 q 576 919 571 914 q 589 924 581 924 q 604 916 599 924 q 613 898 610 908 q 618 876 616 888 q 619 857 619 864 z "},"à":{"ha":901,"x_min":26,"x_max":875,"o":"m 875 338 q 873 268 875 307 q 865 191 871 229 q 847 117 859 153 q 817 56 835 81 q 754 8 793 22 q 676 -5 715 -5 q 642 -4 663 -5 q 601 3 621 -3 q 569 21 582 9 q 555 54 555 33 q 563 104 555 78 q 579 156 571 131 q 595 199 587 180 q 603 225 603 218 q 599 231 603 231 q 594 227 596 231 q 587 216 591 224 q 532 136 561 175 q 468 66 503 97 q 390 16 433 35 q 292 -3 347 -3 q 185 17 233 -3 q 101 73 136 37 q 46 157 65 109 q 26 264 26 205 q 62 433 26 359 q 158 557 97 507 q 299 632 218 607 q 468 657 379 657 q 548 655 500 657 q 645 645 596 653 q 738 622 694 636 q 803 582 781 607 q 837 529 823 559 q 860 466 851 498 q 871 400 868 433 q 875 338 875 367 m 559 453 q 549 497 559 479 q 520 527 538 515 q 480 545 503 539 q 436 550 458 550 q 374 542 406 550 q 317 518 343 534 q 276 476 292 501 q 260 415 260 452 q 270 373 260 390 q 296 343 279 355 q 333 326 313 332 q 376 321 354 321 q 437 329 404 321 q 496 354 469 338 q 542 394 524 370 q 559 453 559 419 m 586 777 q 565 726 586 747 q 504 704 543 704 q 450 715 476 704 q 403 747 424 726 q 369 796 382 768 q 357 857 357 823 q 358 876 357 864 q 363 898 359 888 q 372 916 367 908 q 387 924 378 924 q 401 919 396 924 q 411 907 406 914 q 470 851 440 867 q 541 827 500 835 q 573 810 561 822 q 586 777 586 798 z "},"â":{"ha":901,"x_min":26,"x_max":875,"o":"m 875 338 q 873 268 875 307 q 865 191 871 229 q 847 117 859 153 q 817 56 835 81 q 754 8 793 22 q 676 -5 715 -5 q 642 -4 663 -5 q 601 3 621 -3 q 569 21 582 9 q 555 54 555 33 q 563 104 555 78 q 579 156 571 131 q 595 199 587 180 q 603 225 603 218 q 599 231 603 231 q 594 227 596 231 q 587 216 591 224 q 532 136 561 175 q 468 66 503 97 q 390 16 433 35 q 292 -3 347 -3 q 185 17 233 -3 q 101 73 136 37 q 46 157 65 109 q 26 264 26 205 q 62 433 26 359 q 158 557 97 507 q 299 632 218 607 q 468 657 379 657 q 548 655 500 657 q 645 645 596 653 q 738 622 694 636 q 803 582 781 607 q 837 529 823 559 q 860 466 851 498 q 871 400 868 433 q 875 338 875 367 m 559 453 q 549 497 559 479 q 520 527 538 515 q 480 545 503 539 q 436 550 458 550 q 374 542 406 550 q 317 518 343 534 q 276 476 292 501 q 260 415 260 452 q 270 373 260 390 q 296 343 279 355 q 333 326 313 332 q 376 321 354 321 q 437 329 404 321 q 496 354 469 338 q 542 394 524 370 q 559 453 559 419 m 667 766 q 644 720 667 743 q 585 697 621 697 q 534 714 554 697 q 500 753 514 732 q 478 791 486 774 q 467 808 471 808 q 449 788 458 808 q 421 736 439 768 q 394 710 410 717 q 367 704 378 704 q 334 717 349 704 q 319 755 319 730 q 331 788 319 775 q 355 806 343 800 q 439 882 416 831 q 478 905 450 905 q 505 899 493 905 q 528 878 517 893 q 571 832 549 847 q 632 808 593 817 q 657 794 647 806 q 667 766 667 783 z "},"ä":{"ha":901,"x_min":26,"x_max":875,"o":"m 875 338 q 873 268 875 307 q 865 191 871 229 q 847 117 859 153 q 817 56 835 81 q 754 8 793 22 q 676 -5 715 -5 q 642 -4 663 -5 q 601 3 621 -3 q 569 21 582 9 q 555 54 555 33 q 563 104 555 78 q 579 156 571 131 q 595 199 587 180 q 603 225 603 218 q 599 231 603 231 q 594 227 596 231 q 587 216 591 224 q 532 136 561 175 q 468 66 503 97 q 390 16 433 35 q 292 -3 347 -3 q 185 17 233 -3 q 101 73 136 37 q 46 157 65 109 q 26 264 26 205 q 62 433 26 359 q 158 557 97 507 q 299 632 218 607 q 468 657 379 657 q 548 655 500 657 q 645 645 596 653 q 738 622 694 636 q 803 582 781 607 q 837 529 823 559 q 860 466 851 498 q 871 400 868 433 q 875 338 875 367 m 559 453 q 549 497 559 479 q 520 527 538 515 q 480 545 503 539 q 436 550 458 550 q 374 542 406 550 q 317 518 343 534 q 276 476 292 501 q 260 415 260 452 q 270 373 260 390 q 296 343 279 355 q 333 326 313 332 q 376 321 354 321 q 437 329 404 321 q 496 354 469 338 q 542 394 524 370 q 559 453 559 419 m 755 818 q 740 777 755 796 q 701 743 724 757 q 653 722 677 729 q 608 714 628 714 q 564 724 585 714 q 543 758 543 733 q 559 803 543 783 q 598 837 575 822 q 646 859 621 851 q 693 867 672 867 q 735 856 715 867 q 755 818 755 844 m 492 818 q 476 777 492 796 q 437 743 460 757 q 389 722 414 729 q 345 714 364 714 q 301 724 322 714 q 281 758 281 733 q 296 803 281 783 q 334 837 311 822 q 382 859 357 851 q 429 867 408 867 q 472 856 453 867 q 492 818 492 844 z "},"ã":{"ha":901,"x_min":26,"x_max":875,"o":"m 646 786 q 622 727 646 750 q 561 704 599 704 q 506 722 528 704 q 467 761 484 741 q 437 800 450 782 q 410 818 424 818 q 396 807 396 818 q 409 783 396 793 q 421 751 421 772 q 409 724 421 733 q 379 714 396 714 q 335 738 347 714 q 323 789 323 762 q 345 855 323 828 q 408 882 367 882 q 447 877 431 882 q 477 867 464 872 q 502 858 490 863 q 525 852 514 852 q 536 859 533 852 q 541 873 539 865 q 547 887 543 880 q 559 893 550 893 q 592 882 576 893 q 620 854 607 871 q 639 820 632 838 q 646 786 646 802 m 875 338 q 873 268 875 307 q 865 191 871 229 q 847 117 859 153 q 817 56 835 81 q 754 8 793 22 q 676 -5 715 -5 q 642 -4 663 -5 q 601 3 621 -3 q 569 21 582 9 q 555 54 555 33 q 563 104 555 78 q 579 156 571 131 q 595 199 587 180 q 603 225 603 218 q 599 231 603 231 q 594 227 596 231 q 587 216 591 224 q 532 136 561 175 q 468 66 503 97 q 390 16 433 35 q 292 -3 347 -3 q 185 17 233 -3 q 101 73 136 37 q 46 157 65 109 q 26 264 26 205 q 62 433 26 359 q 158 557 97 507 q 299 632 218 607 q 468 657 379 657 q 548 655 500 657 q 645 645 596 653 q 738 622 694 636 q 803 582 781 607 q 837 529 823 559 q 860 466 851 498 q 871 400 868 433 q 875 338 875 367 m 559 453 q 549 497 559 479 q 520 527 538 515 q 480 545 503 539 q 436 550 458 550 q 374 542 406 550 q 317 518 343 534 q 276 476 292 501 q 260 415 260 452 q 270 373 260 390 q 296 343 279 355 q 333 326 313 332 q 376 321 354 321 q 437 329 404 321 q 496 354 469 338 q 542 394 524 370 q 559 453 559 419 z "},"å":{"ha":901,"x_min":26,"x_max":875,"o":"m 579 825 q 539 745 579 772 q 447 717 500 717 q 368 741 399 717 q 338 812 338 765 q 349 854 338 836 q 378 885 359 872 q 421 903 397 897 q 471 909 446 909 q 546 888 513 909 q 579 825 579 867 m 507 838 q 496 859 507 852 q 467 865 485 865 q 425 856 436 865 q 414 835 414 846 q 458 803 414 803 q 507 838 507 803 m 875 338 q 873 268 875 307 q 865 191 871 229 q 847 117 859 153 q 817 56 835 81 q 754 8 793 22 q 676 -5 715 -5 q 642 -4 663 -5 q 601 3 621 -3 q 569 21 582 9 q 555 54 555 33 q 563 104 555 78 q 579 156 571 131 q 595 199 587 180 q 603 225 603 218 q 599 231 603 231 q 594 227 596 231 q 587 216 591 224 q 532 136 561 175 q 468 66 503 97 q 390 16 433 35 q 292 -3 347 -3 q 185 17 233 -3 q 101 73 136 37 q 46 157 65 109 q 26 264 26 205 q 62 433 26 359 q 158 557 97 507 q 299 632 218 607 q 468 657 379 657 q 548 655 500 657 q 645 645 596 653 q 738 622 694 636 q 803 582 781 607 q 837 529 823 559 q 860 466 851 498 q 871 400 868 433 q 875 338 875 367 m 559 453 q 549 497 559 479 q 520 527 538 515 q 480 545 503 539 q 436 550 458 550 q 374 542 406 550 q 317 518 343 534 q 276 476 292 501 q 260 415 260 452 q 270 373 260 390 q 296 343 279 355 q 333 326 313 332 q 376 321 354 321 q 437 329 404 321 q 496 354 469 338 q 542 394 524 370 q 559 453 559 419 z "},"ç":{"ha":714,"x_min":26,"x_max":701,"o":"m 701 254 q 685 168 701 208 q 639 95 668 127 q 570 39 610 62 q 484 3 530 16 q 473 -4 475 0 q 471 -14 471 -8 q 487 -46 471 -28 q 524 -87 504 -65 q 560 -133 543 -110 q 576 -180 576 -157 q 549 -244 576 -220 q 482 -268 522 -268 q 433 -260 458 -268 q 388 -238 408 -252 q 356 -208 368 -225 q 343 -174 343 -191 q 351 -155 343 -161 q 370 -149 358 -149 q 382 -150 376 -149 q 396 -151 389 -151 q 428 -144 414 -151 q 441 -118 441 -138 q 432 -83 441 -102 q 406 -47 422 -64 q 367 -18 389 -31 q 319 -3 345 -5 q 200 29 254 5 q 107 93 146 53 q 48 188 69 132 q 26 319 26 244 q 67 488 26 422 q 168 590 109 553 q 296 641 228 627 q 418 654 364 654 q 508 647 465 654 q 584 624 551 639 q 636 589 616 610 q 656 541 656 568 q 636 492 656 510 q 582 473 616 473 q 544 485 561 473 q 509 511 528 497 q 466 537 490 525 q 408 549 441 549 q 319 518 350 549 q 289 441 289 488 q 297 396 289 418 q 321 356 304 374 q 363 329 338 339 q 425 318 389 318 q 486 328 463 318 q 529 349 510 338 q 567 369 547 359 q 612 379 586 379 q 672 348 643 379 q 701 254 701 317 z "},"é":{"ha":786,"x_min":26,"x_max":760,"o":"m 760 421 q 738 328 760 368 q 683 261 717 288 q 610 221 650 235 q 534 208 571 208 q 444 221 479 208 q 387 248 408 233 q 356 275 366 262 q 342 288 346 288 q 337 275 339 288 q 335 241 335 262 q 342 195 335 221 q 366 147 349 170 q 414 110 383 125 q 494 96 446 96 q 550 107 528 96 q 590 133 572 119 q 626 159 608 147 q 668 171 644 171 q 720 154 699 171 q 741 109 741 138 q 729 69 741 89 q 688 32 717 49 q 609 4 659 16 q 485 -7 559 -7 q 321 11 403 -7 q 174 69 239 29 q 67 172 109 109 q 26 328 26 236 q 70 485 26 421 q 175 588 113 549 q 309 643 237 627 q 436 660 380 660 q 567 641 507 660 q 670 590 627 623 q 736 514 713 558 q 760 421 760 471 m 561 469 q 526 529 561 505 q 444 553 492 553 q 392 545 414 553 q 354 525 370 538 q 331 498 339 513 q 323 469 323 484 q 357 412 323 437 q 443 387 390 387 q 526 408 490 387 q 561 469 561 429 m 575 857 q 563 796 575 823 q 529 747 550 768 q 482 715 509 726 q 428 704 456 704 q 367 726 389 704 q 346 777 346 747 q 392 827 346 818 q 462 850 432 833 q 521 907 492 867 q 531 919 526 914 q 545 924 536 924 q 560 916 554 924 q 569 898 566 908 q 574 876 572 888 q 575 857 575 864 z "},"è":{"ha":786,"x_min":26,"x_max":760,"o":"m 760 421 q 738 328 760 368 q 683 261 717 288 q 610 221 650 235 q 534 208 571 208 q 444 221 479 208 q 387 248 408 233 q 356 275 366 262 q 342 288 346 288 q 337 275 339 288 q 335 241 335 262 q 342 195 335 221 q 366 147 349 170 q 414 110 383 125 q 494 96 446 96 q 550 107 528 96 q 590 133 572 119 q 626 159 608 147 q 668 171 644 171 q 720 154 699 171 q 741 109 741 138 q 729 69 741 89 q 688 32 717 49 q 609 4 659 16 q 485 -7 559 -7 q 321 11 403 -7 q 174 69 239 29 q 67 172 109 109 q 26 328 26 236 q 70 485 26 421 q 175 588 113 549 q 309 643 237 627 q 436 660 380 660 q 567 641 507 660 q 670 590 627 623 q 736 514 713 558 q 760 421 760 471 m 561 469 q 526 529 561 505 q 444 553 492 553 q 392 545 414 553 q 354 525 370 538 q 331 498 339 513 q 323 469 323 484 q 357 412 323 437 q 443 387 390 387 q 526 408 490 387 q 561 469 561 429 m 559 777 q 538 726 559 747 q 478 704 517 704 q 424 715 450 704 q 376 747 397 726 q 343 796 355 768 q 330 857 330 823 q 332 876 330 864 q 337 898 334 888 q 346 916 340 908 q 361 924 351 924 q 374 919 370 924 q 385 907 379 914 q 444 851 414 867 q 514 827 473 835 q 547 810 534 822 q 559 777 559 798 z "},"ê":{"ha":786,"x_min":26,"x_max":760,"o":"m 760 421 q 738 328 760 368 q 683 261 717 288 q 610 221 650 235 q 534 208 571 208 q 444 221 479 208 q 387 248 408 233 q 356 275 366 262 q 342 288 346 288 q 337 275 339 288 q 335 241 335 262 q 342 195 335 221 q 366 147 349 170 q 414 110 383 125 q 494 96 446 96 q 550 107 528 96 q 590 133 572 119 q 626 159 608 147 q 668 171 644 171 q 720 154 699 171 q 741 109 741 138 q 729 69 741 89 q 688 32 717 49 q 609 4 659 16 q 485 -7 559 -7 q 321 11 403 -7 q 174 69 239 29 q 67 172 109 109 q 26 328 26 236 q 70 485 26 421 q 175 588 113 549 q 309 643 237 627 q 436 660 380 660 q 567 641 507 660 q 670 590 627 623 q 736 514 713 558 q 760 421 760 471 m 561 469 q 526 529 561 505 q 444 553 492 553 q 392 545 414 553 q 354 525 370 538 q 331 498 339 513 q 323 469 323 484 q 357 412 323 437 q 443 387 390 387 q 526 408 490 387 q 561 469 561 429 m 618 766 q 595 720 618 743 q 536 697 572 697 q 485 714 505 697 q 451 753 465 732 q 430 791 437 774 q 418 808 422 808 q 400 788 410 808 q 372 736 390 768 q 345 710 361 717 q 318 704 329 704 q 285 717 300 704 q 271 755 271 730 q 282 788 271 775 q 307 806 294 800 q 390 882 368 831 q 429 905 401 905 q 456 899 444 905 q 479 878 468 893 q 522 832 500 847 q 583 808 545 817 q 608 794 599 806 q 618 766 618 783 z "},"ë":{"ha":786,"x_min":26,"x_max":760,"o":"m 760 421 q 738 328 760 368 q 683 261 717 288 q 610 221 650 235 q 534 208 571 208 q 444 221 479 208 q 387 248 408 233 q 356 275 366 262 q 342 288 346 288 q 337 275 339 288 q 335 241 335 262 q 342 195 335 221 q 366 147 349 170 q 414 110 383 125 q 494 96 446 96 q 550 107 528 96 q 590 133 572 119 q 626 159 608 147 q 668 171 644 171 q 720 154 699 171 q 741 109 741 138 q 729 69 741 89 q 688 32 717 49 q 609 4 659 16 q 485 -7 559 -7 q 321 11 403 -7 q 174 69 239 29 q 67 172 109 109 q 26 328 26 236 q 70 485 26 421 q 175 588 113 549 q 309 643 237 627 q 436 660 380 660 q 567 641 507 660 q 670 590 627 623 q 736 514 713 558 q 760 421 760 471 m 561 469 q 526 529 561 505 q 444 553 492 553 q 392 545 414 553 q 354 525 370 538 q 331 498 339 513 q 323 469 323 484 q 357 412 323 437 q 443 387 390 387 q 526 408 490 387 q 561 469 561 429 m 696 818 q 680 777 696 796 q 641 743 664 757 q 593 722 618 729 q 549 714 568 714 q 504 724 525 714 q 484 758 484 733 q 499 803 484 783 q 538 837 515 822 q 587 859 561 851 q 633 867 612 867 q 676 856 656 867 q 696 818 696 844 m 432 818 q 416 777 432 796 q 377 743 400 757 q 329 722 354 729 q 285 714 304 714 q 242 724 262 714 q 221 758 221 733 q 236 803 221 783 q 274 837 252 822 q 323 859 297 851 q 370 867 349 867 q 413 856 393 867 q 432 818 432 844 z "},"í":{"ha":401,"x_min":35,"x_max":375,"o":"m 375 165 q 358 102 375 134 q 311 46 340 71 q 242 8 282 22 q 158 -7 203 -7 q 111 15 134 -7 q 72 76 89 36 q 44 174 54 117 q 35 301 35 231 q 55 488 35 410 q 98 603 75 567 q 146 644 118 632 q 205 656 174 656 q 281 634 257 656 q 304 553 304 612 q 302 507 304 534 q 300 443 300 479 q 312 353 300 392 q 337 283 323 314 q 363 224 351 252 q 375 165 375 196 m 328 857 q 315 796 328 823 q 282 747 302 768 q 235 715 261 726 q 180 704 208 704 q 120 726 142 704 q 98 777 98 747 q 144 827 98 818 q 214 850 184 833 q 273 907 244 867 q 284 919 279 914 q 297 924 289 924 q 313 916 307 924 q 321 898 318 908 q 326 876 325 888 q 328 857 328 864 z "},"ì":{"ha":401,"x_min":35,"x_max":375,"o":"m 375 165 q 358 102 375 134 q 311 46 340 71 q 242 8 282 22 q 158 -7 203 -7 q 111 15 134 -7 q 72 76 89 36 q 44 174 54 117 q 35 301 35 231 q 55 488 35 410 q 98 603 75 567 q 146 644 118 632 q 205 656 174 656 q 281 634 257 656 q 304 553 304 612 q 302 507 304 534 q 300 443 300 479 q 312 353 300 392 q 337 283 323 314 q 363 224 351 252 q 375 165 375 196 m 289 777 q 267 726 289 747 q 207 704 245 704 q 153 715 179 704 q 105 747 126 726 q 72 796 85 768 q 60 857 60 823 q 61 876 60 864 q 66 898 62 888 q 75 916 69 908 q 90 924 81 924 q 103 919 98 924 q 114 907 109 914 q 173 851 143 867 q 243 827 203 835 q 276 810 264 822 q 289 777 289 798 z "},"î":{"ha":401,"x_min":35,"x_max":382,"o":"m 375 165 q 358 102 375 134 q 311 46 340 71 q 242 8 282 22 q 158 -7 203 -7 q 111 15 134 -7 q 72 76 89 36 q 44 174 54 117 q 35 301 35 231 q 55 488 35 410 q 98 603 75 567 q 146 644 118 632 q 205 656 174 656 q 281 634 257 656 q 304 553 304 612 q 302 507 304 534 q 300 443 300 479 q 312 353 300 392 q 337 283 323 314 q 363 224 351 252 q 375 165 375 196 m 382 766 q 359 720 382 743 q 300 697 336 697 q 249 714 269 697 q 215 753 229 732 q 194 791 201 774 q 182 808 186 808 q 164 788 174 808 q 136 736 154 768 q 109 710 125 717 q 82 704 93 704 q 49 717 64 704 q 35 755 35 730 q 46 788 35 775 q 71 806 58 800 q 154 882 132 831 q 193 905 165 905 q 220 899 208 905 q 243 878 232 893 q 286 832 264 847 q 347 808 309 817 q 372 794 363 806 q 382 766 382 783 z "},"ï":{"ha":401,"x_min":-22,"x_max":453,"o":"m 375 165 q 358 102 375 134 q 311 46 340 71 q 242 8 282 22 q 158 -7 203 -7 q 111 15 134 -7 q 72 76 89 36 q 44 174 54 117 q 35 301 35 231 q 55 488 35 410 q 98 603 75 567 q 146 644 118 632 q 205 656 174 656 q 281 634 257 656 q 304 553 304 612 q 302 507 304 534 q 300 443 300 479 q 312 353 300 392 q 337 283 323 314 q 363 224 351 252 q 375 165 375 196 m 453 818 q 437 777 453 796 q 398 743 421 757 q 350 722 375 729 q 306 714 325 714 q 261 724 282 714 q 240 758 240 733 q 256 803 240 783 q 295 837 272 822 q 344 859 318 851 q 390 867 370 867 q 433 856 412 867 q 453 818 453 844 m 189 818 q 173 777 189 796 q 134 743 157 757 q 86 722 111 729 q 41 714 61 714 q -1 724 20 714 q -22 758 -22 733 q -7 803 -22 783 q 31 837 8 822 q 80 859 54 851 q 126 867 106 867 q 170 856 150 867 q 189 818 189 844 z "},"ñ":{"ha":800,"x_min":26,"x_max":774,"o":"m 564 786 q 539 727 564 750 q 479 704 515 704 q 424 722 446 704 q 385 761 401 741 q 355 800 368 782 q 328 818 342 818 q 314 807 314 818 q 327 783 314 793 q 339 751 339 772 q 327 724 339 733 q 297 714 314 714 q 253 738 265 714 q 241 789 241 762 q 263 855 241 828 q 326 882 285 882 q 365 877 349 882 q 395 867 382 872 q 420 858 408 863 q 443 852 432 852 q 454 859 452 852 q 459 873 457 865 q 465 887 461 880 q 478 893 468 893 q 510 882 494 893 q 537 854 525 871 q 557 820 550 838 q 564 786 564 802 m 774 407 q 737 208 774 296 q 650 66 700 121 q 578 15 618 31 q 503 0 539 0 q 439 13 463 0 q 415 50 415 26 q 424 94 415 71 q 441 144 432 117 q 458 205 450 172 q 467 279 467 239 q 436 427 467 375 q 358 479 406 479 q 297 460 318 479 q 277 392 277 441 q 288 318 277 351 q 312 254 298 285 q 336 190 325 222 q 347 118 347 157 q 307 22 347 54 q 203 -9 267 -9 q 69 82 111 -9 q 26 330 26 174 q 46 499 26 429 q 96 612 65 570 q 136 647 111 636 q 184 657 161 657 q 245 641 229 657 q 261 597 261 624 q 256 559 261 576 q 261 542 252 542 q 282 559 265 542 q 330 598 298 576 q 408 637 361 619 q 518 654 454 654 q 624 635 576 654 q 704 583 671 616 q 755 505 737 550 q 774 407 774 460 z "},"ó":{"ha":840,"x_min":26,"x_max":814,"o":"m 814 321 q 778 170 814 232 q 684 69 742 109 q 552 11 625 29 q 406 -7 479 -7 q 282 11 349 -7 q 160 67 216 28 q 65 168 103 106 q 26 318 26 229 q 56 454 26 392 q 137 562 85 517 q 260 633 189 607 q 415 659 332 659 q 574 634 501 659 q 701 565 647 610 q 784 458 754 521 q 814 321 814 396 m 572 432 q 529 519 572 485 q 419 553 486 553 q 356 542 385 553 q 309 515 328 532 q 280 478 290 498 q 269 437 269 457 q 312 350 269 379 q 421 321 355 321 q 479 329 452 321 q 528 350 507 336 q 561 385 549 364 q 572 432 572 406 m 578 857 q 565 796 578 823 q 532 747 553 768 q 485 715 511 726 q 431 704 458 704 q 370 726 392 704 q 349 777 349 747 q 395 827 349 818 q 465 850 435 833 q 524 907 494 867 q 534 919 529 914 q 547 924 539 924 q 563 916 557 924 q 572 898 568 908 q 576 876 575 888 q 578 857 578 864 z "},"ò":{"ha":840,"x_min":26,"x_max":814,"o":"m 814 321 q 778 170 814 232 q 684 69 742 109 q 552 11 625 29 q 406 -7 479 -7 q 282 11 349 -7 q 160 67 216 28 q 65 168 103 106 q 26 318 26 229 q 56 454 26 392 q 137 562 85 517 q 260 633 189 607 q 415 659 332 659 q 574 634 501 659 q 701 565 647 610 q 784 458 754 521 q 814 321 814 396 m 572 432 q 529 519 572 485 q 419 553 486 553 q 356 542 385 553 q 309 515 328 532 q 280 478 290 498 q 269 437 269 457 q 312 350 269 379 q 421 321 355 321 q 479 329 452 321 q 528 350 507 336 q 561 385 549 364 q 572 432 572 406 m 562 777 q 541 726 562 747 q 481 704 519 704 q 427 715 453 704 q 379 747 400 726 q 346 796 358 768 q 334 857 334 823 q 335 876 334 864 q 340 898 336 888 q 349 916 343 908 q 364 924 354 924 q 377 919 372 924 q 387 907 382 914 q 446 851 416 867 q 517 827 476 835 q 550 810 538 822 q 562 777 562 798 z "},"ô":{"ha":840,"x_min":26,"x_max":814,"o":"m 814 321 q 778 170 814 232 q 684 69 742 109 q 552 11 625 29 q 406 -7 479 -7 q 282 11 349 -7 q 160 67 216 28 q 65 168 103 106 q 26 318 26 229 q 56 454 26 392 q 137 562 85 517 q 260 633 189 607 q 415 659 332 659 q 574 634 501 659 q 701 565 647 610 q 784 458 754 521 q 814 321 814 396 m 572 432 q 529 519 572 485 q 419 553 486 553 q 356 542 385 553 q 309 515 328 532 q 280 478 290 498 q 269 437 269 457 q 312 350 269 379 q 421 321 355 321 q 479 329 452 321 q 528 350 507 336 q 561 385 549 364 q 572 432 572 406 m 618 766 q 595 720 618 743 q 536 697 572 697 q 485 714 505 697 q 451 753 465 732 q 430 791 437 774 q 418 808 422 808 q 400 788 410 808 q 372 736 390 768 q 345 710 361 717 q 318 704 329 704 q 285 717 300 704 q 271 755 271 730 q 282 788 271 775 q 307 806 294 800 q 390 882 368 831 q 429 905 401 905 q 456 899 444 905 q 479 878 468 893 q 522 832 500 847 q 583 808 545 817 q 608 794 599 806 q 618 766 618 783 z "},"ö":{"ha":840,"x_min":26,"x_max":814,"o":"m 671 818 q 655 777 671 796 q 616 743 639 757 q 568 722 593 729 q 524 714 543 714 q 479 724 500 714 q 458 758 458 733 q 474 803 458 783 q 513 837 490 822 q 562 859 536 851 q 608 867 587 867 q 651 856 631 867 q 671 818 671 844 m 407 818 q 391 777 407 796 q 352 743 375 757 q 304 722 329 729 q 260 714 279 714 q 217 724 237 714 q 196 758 196 733 q 211 803 196 783 q 249 837 227 822 q 298 859 272 851 q 345 867 323 867 q 388 856 368 867 q 407 818 407 844 m 814 321 q 778 170 814 232 q 684 69 742 109 q 552 11 625 29 q 406 -7 479 -7 q 282 11 349 -7 q 160 67 216 28 q 65 168 103 106 q 26 318 26 229 q 56 454 26 392 q 137 562 85 517 q 260 633 189 607 q 415 659 332 659 q 574 634 501 659 q 701 565 647 610 q 784 458 754 521 q 814 321 814 396 m 572 432 q 529 519 572 485 q 419 553 486 553 q 356 542 385 553 q 309 515 328 532 q 280 478 290 498 q 269 437 269 457 q 312 350 269 379 q 421 321 355 321 q 479 329 452 321 q 528 350 507 336 q 561 385 549 364 q 572 432 572 406 z "},"õ":{"ha":840,"x_min":26,"x_max":814,"o":"m 582 786 q 558 727 582 750 q 498 704 534 704 q 442 722 465 704 q 402 761 419 741 q 373 800 386 782 q 347 818 361 818 q 334 807 334 818 q 346 783 334 793 q 358 751 358 772 q 346 724 358 733 q 317 714 334 714 q 273 738 285 714 q 261 789 261 762 q 283 855 261 828 q 346 882 304 882 q 385 877 368 882 q 415 867 401 872 q 440 858 428 863 q 463 852 452 852 q 473 859 471 852 q 478 873 476 865 q 484 887 481 880 q 497 893 488 893 q 529 882 514 893 q 556 854 545 871 q 575 820 568 838 q 582 786 582 802 m 814 321 q 778 170 814 232 q 684 69 742 109 q 552 11 625 29 q 406 -7 479 -7 q 282 11 349 -7 q 160 67 216 28 q 65 168 103 106 q 26 318 26 229 q 56 454 26 392 q 137 562 85 517 q 260 633 189 607 q 415 659 332 659 q 574 634 501 659 q 701 565 647 610 q 784 458 754 521 q 814 321 814 396 m 572 432 q 529 519 572 485 q 419 553 486 553 q 356 542 385 553 q 309 515 328 532 q 280 478 290 498 q 269 437 269 457 q 312 350 269 379 q 421 321 355 321 q 479 329 452 321 q 528 350 507 336 q 561 385 549 364 q 572 432 572 406 z "},"ú":{"ha":806,"x_min":26,"x_max":779,"o":"m 779 367 q 774 308 779 345 q 752 231 768 272 q 708 147 736 189 q 637 70 681 104 q 530 15 593 36 q 383 -7 468 -7 q 244 19 310 -7 q 131 91 179 45 q 54 202 82 138 q 26 345 26 267 q 45 457 26 400 q 95 560 64 514 q 167 635 126 606 q 253 664 208 664 q 278 655 264 664 q 293 623 293 646 q 284 585 293 603 q 264 547 275 567 q 244 505 253 528 q 235 453 235 482 q 276 350 235 379 q 375 321 317 321 q 452 349 428 321 q 476 412 476 376 q 469 453 476 435 q 455 490 463 472 q 440 527 447 507 q 433 570 433 546 q 469 633 433 608 q 558 659 505 659 q 662 631 621 659 q 730 560 704 603 q 768 465 757 517 q 779 367 779 414 m 530 857 q 518 796 530 823 q 485 747 505 768 q 437 715 464 726 q 383 704 411 704 q 323 726 345 704 q 301 777 301 747 q 347 827 301 818 q 417 850 387 833 q 476 907 447 867 q 487 919 482 914 q 500 924 492 924 q 515 916 510 924 q 524 898 521 908 q 529 876 528 888 q 530 857 530 864 z "},"ù":{"ha":806,"x_min":26,"x_max":779,"o":"m 779 367 q 774 308 779 345 q 752 231 768 272 q 708 147 736 189 q 637 70 681 104 q 530 15 593 36 q 383 -7 468 -7 q 244 19 310 -7 q 131 91 179 45 q 54 202 82 138 q 26 345 26 267 q 45 457 26 400 q 95 560 64 514 q 167 635 126 606 q 253 664 208 664 q 278 655 264 664 q 293 623 293 646 q 284 585 293 603 q 264 547 275 567 q 244 505 253 528 q 235 453 235 482 q 276 350 235 379 q 375 321 317 321 q 452 349 428 321 q 476 412 476 376 q 469 453 476 435 q 455 490 463 472 q 440 527 447 507 q 433 570 433 546 q 469 633 433 608 q 558 659 505 659 q 662 631 621 659 q 730 560 704 603 q 768 465 757 517 q 779 367 779 414 m 510 777 q 488 726 510 747 q 428 704 467 704 q 374 715 400 704 q 327 747 347 726 q 293 796 306 768 q 281 857 281 823 q 282 876 281 864 q 287 898 283 888 q 296 916 290 908 q 311 924 301 924 q 324 919 319 924 q 335 907 329 914 q 394 851 364 867 q 464 827 424 835 q 497 810 485 822 q 510 777 510 798 z "},"û":{"ha":806,"x_min":26,"x_max":779,"o":"m 779 367 q 774 308 779 345 q 752 231 768 272 q 708 147 736 189 q 637 70 681 104 q 530 15 593 36 q 383 -7 468 -7 q 244 19 310 -7 q 131 91 179 45 q 54 202 82 138 q 26 345 26 267 q 45 457 26 400 q 95 560 64 514 q 167 635 126 606 q 253 664 208 664 q 278 655 264 664 q 293 623 293 646 q 284 585 293 603 q 264 547 275 567 q 244 505 253 528 q 235 453 235 482 q 276 350 235 379 q 375 321 317 321 q 452 349 428 321 q 476 412 476 376 q 469 453 476 435 q 455 490 463 472 q 440 527 447 507 q 433 570 433 546 q 469 633 433 608 q 558 659 505 659 q 662 631 621 659 q 730 560 704 603 q 768 465 757 517 q 779 367 779 414 m 570 766 q 547 720 570 743 q 488 697 524 697 q 437 714 457 697 q 402 753 416 732 q 381 791 389 774 q 370 808 374 808 q 351 788 361 808 q 323 736 342 768 q 297 710 313 717 q 269 704 281 704 q 237 717 252 704 q 222 755 222 730 q 234 788 222 775 q 258 806 245 800 q 342 882 319 831 q 380 905 353 905 q 408 899 396 905 q 431 878 419 893 q 474 832 452 847 q 534 808 496 817 q 560 794 550 806 q 570 766 570 783 z "},"ü":{"ha":806,"x_min":26,"x_max":779,"o":"m 671 818 q 655 777 671 796 q 616 743 639 757 q 568 722 593 729 q 524 714 543 714 q 479 724 500 714 q 458 758 458 733 q 474 803 458 783 q 513 837 490 822 q 562 859 536 851 q 608 867 587 867 q 651 856 631 867 q 671 818 671 844 m 407 818 q 391 777 407 796 q 352 743 375 757 q 304 722 329 729 q 260 714 279 714 q 217 724 237 714 q 196 758 196 733 q 211 803 196 783 q 249 837 227 822 q 298 859 272 851 q 345 867 323 867 q 388 856 368 867 q 407 818 407 844 m 779 367 q 774 308 779 345 q 752 231 768 272 q 708 147 736 189 q 637 70 681 104 q 530 15 593 36 q 383 -7 468 -7 q 244 19 310 -7 q 131 91 179 45 q 54 202 82 138 q 26 345 26 267 q 45 457 26 400 q 95 560 64 514 q 167 635 126 606 q 253 664 208 664 q 278 655 264 664 q 293 623 293 646 q 284 585 293 603 q 264 547 275 567 q 244 505 253 528 q 235 453 235 482 q 276 350 235 379 q 375 321 317 321 q 452 349 428 321 q 476 412 476 376 q 469 453 476 435 q 455 490 463 472 q 440 527 447 507 q 433 570 433 546 q 469 633 433 608 q 558 659 505 659 q 662 631 621 659 q 730 560 704 603 q 768 465 757 517 q 779 367 779 414 z "},"†":{"ha":664,"x_min":20,"x_max":644,"o":"m 644 661 q 618 598 644 619 q 553 578 591 578 q 520 578 539 578 q 482 579 501 579 q 445 580 463 579 q 414 581 427 581 q 397 568 397 581 l 397 463 q 399 295 397 364 q 404 177 401 225 q 409 100 407 129 q 411 54 411 71 q 390 -9 411 17 q 323 -36 368 -36 q 258 -10 279 -36 q 237 47 237 16 q 239 103 237 69 q 243 185 241 136 q 248 303 245 235 q 250 461 250 371 l 250 567 q 247 578 250 576 q 233 581 243 581 q 215 580 229 581 q 181 578 200 579 q 144 576 163 576 q 114 575 125 575 q 46 596 72 575 q 20 657 20 618 q 44 710 20 689 q 114 730 69 730 q 170 729 138 730 q 228 728 201 728 q 244 749 245 728 q 239 815 241 778 q 237 875 237 852 q 258 932 237 907 q 323 958 279 958 q 390 932 368 958 q 411 868 411 905 q 410 843 411 859 q 409 808 410 827 q 407 773 408 790 q 404 746 406 757 q 407 732 403 734 q 421 729 411 729 q 441 730 425 729 q 476 732 457 732 q 516 734 496 733 q 549 736 536 736 q 615 716 586 736 q 644 661 644 697 z "},"°":{"ha":346,"x_min":26,"x_max":319,"o":"m 319 789 q 308 728 319 754 q 275 685 296 703 q 227 659 254 668 q 171 650 200 650 q 121 657 147 650 q 75 682 96 665 q 40 725 54 699 q 26 787 26 751 q 36 842 26 817 q 65 887 46 868 q 113 919 85 907 q 175 930 140 930 q 229 920 203 930 q 276 891 256 909 q 308 846 296 872 q 319 789 319 821 m 225 836 q 205 876 225 867 q 174 885 186 885 q 133 871 146 885 q 119 836 119 857 q 132 805 119 821 q 172 789 144 789 q 212 803 199 789 q 225 836 225 817 z "},"¢":{"ha":697,"x_min":26,"x_max":685,"o":"m 685 404 q 662 301 685 346 q 605 226 639 257 q 531 176 571 195 q 457 151 490 157 q 453 143 453 150 q 456 99 453 119 q 458 60 458 79 q 441 16 458 32 q 396 0 424 0 q 354 15 370 0 q 338 57 338 29 q 343 97 338 77 q 349 139 349 117 q 340 150 349 150 q 105 246 184 161 q 26 464 26 330 q 87 659 26 582 q 260 772 147 736 q 346 790 302 786 q 349 791 347 790 q 350 799 350 791 q 345 839 350 818 q 340 879 340 860 q 359 915 340 904 q 400 926 378 926 q 442 912 427 926 q 457 871 457 899 q 454 833 457 851 q 452 798 452 815 q 454 793 452 793 q 511 785 479 791 q 572 767 543 779 q 622 733 602 754 q 642 679 642 711 q 622 634 642 652 q 574 616 602 616 q 532 628 549 616 q 498 653 515 640 q 459 679 481 667 q 401 690 437 690 q 315 665 349 690 q 282 583 282 639 q 319 494 282 524 q 415 465 357 465 q 475 474 452 465 q 517 494 498 484 q 554 514 536 505 q 595 524 572 524 q 635 512 618 524 q 663 484 652 501 q 679 445 673 467 q 685 404 685 424 z "},"£":{"ha":971,"x_min":26,"x_max":971,"o":"m 971 243 q 951 174 971 216 q 888 92 932 132 q 773 22 844 52 q 599 -7 703 -7 q 443 16 519 -7 q 307 96 367 39 q 282 124 292 111 q 265 136 272 136 q 240 114 253 136 q 209 66 227 92 q 168 18 192 40 q 107 -4 143 -4 q 63 14 79 -4 q 46 60 46 32 q 58 101 46 86 q 87 126 69 115 q 127 150 106 138 q 166 181 149 161 q 196 232 184 200 q 208 317 208 264 q 208 342 208 329 q 205 367 208 355 q 197 385 203 378 q 178 392 191 392 q 139 385 158 392 q 98 378 119 378 q 46 396 66 378 q 26 443 26 414 q 47 490 26 476 q 102 504 68 504 q 140 499 122 504 q 178 494 158 494 q 198 506 195 494 q 204 539 201 517 q 248 722 215 647 q 329 845 281 798 q 440 913 378 892 q 572 935 503 935 q 664 925 618 935 q 746 897 710 916 q 804 849 782 878 q 827 783 827 821 q 800 726 827 747 q 737 705 774 705 q 679 722 699 705 q 645 760 659 739 q 619 797 632 781 q 579 814 606 814 q 531 796 549 814 q 505 752 514 778 q 494 698 496 726 q 492 647 492 669 q 492 581 492 619 q 500 511 493 543 q 505 500 501 505 q 517 496 509 496 q 590 504 554 496 q 664 513 627 513 q 698 510 681 513 q 729 499 715 507 q 752 477 743 490 q 761 443 761 464 q 733 392 761 407 q 673 376 705 376 q 599 382 636 376 q 525 389 562 389 q 521 385 521 389 q 526 359 521 374 q 539 332 532 345 q 574 276 554 302 q 620 228 595 249 q 673 194 644 207 q 732 182 701 182 q 775 192 760 182 q 801 218 791 203 q 816 252 810 233 q 832 286 822 271 q 857 312 842 301 q 899 322 872 322 q 952 299 933 322 q 971 243 971 275 z "},"§":{"ha":696,"x_min":26,"x_max":669,"o":"m 669 395 q 627 249 669 313 q 518 144 585 186 q 507 133 510 139 q 515 115 504 126 q 552 60 538 90 q 567 -5 567 31 q 555 -66 567 -36 q 517 -122 543 -97 q 449 -162 490 -147 q 351 -178 408 -178 q 205 -147 262 -178 q 147 -61 147 -117 q 165 -15 147 -35 q 216 5 183 5 q 260 -6 241 5 q 295 -29 279 -17 q 325 -53 311 -41 q 354 -64 339 -64 q 388 -53 378 -64 q 399 -28 399 -41 q 362 17 399 -4 q 271 60 325 39 q 186 99 229 75 q 107 158 143 123 q 49 240 72 193 q 26 350 26 288 q 70 495 26 432 q 180 600 113 558 q 180 631 199 611 q 143 686 157 657 q 129 750 129 714 q 141 810 129 779 q 180 865 154 840 q 247 906 205 890 q 345 921 288 921 q 492 891 433 921 q 550 806 550 861 q 531 758 550 779 q 479 737 513 737 q 435 748 454 737 q 401 773 416 760 q 372 797 386 786 q 342 808 358 808 q 308 797 318 808 q 297 772 297 786 q 333 728 297 749 q 427 685 370 707 q 510 645 467 669 q 588 586 553 621 q 647 504 624 551 q 669 395 669 457 m 446 432 q 419 484 446 464 q 357 504 392 504 q 301 485 322 504 q 279 439 279 467 q 302 386 279 407 q 366 364 325 364 q 424 382 403 364 q 446 432 446 400 z "},"•":{"ha":418,"x_min":26,"x_max":392,"o":"m 392 475 q 365 401 392 435 q 299 342 338 367 q 216 303 260 317 q 138 289 172 289 q 100 293 119 289 q 64 307 81 297 q 37 331 47 317 q 26 368 26 346 q 53 445 26 410 q 118 503 79 479 q 201 539 157 526 q 282 553 245 553 q 319 549 300 553 q 355 535 339 545 q 381 511 371 526 q 392 475 392 496 z "},"¶":{"ha":1485,"x_min":-14,"x_max":1458,"o":"m 1458 161 q 1443 106 1458 135 q 1400 52 1428 77 q 1335 10 1373 26 q 1251 -7 1297 -7 q 1200 8 1225 -7 q 1156 70 1175 24 q 1125 199 1136 115 q 1114 419 1114 283 q 1118 486 1114 456 q 1117 519 1122 515 q 1109 520 1112 522 q 1101 513 1105 518 q 1089 502 1096 507 q 1074 492 1082 496 q 1020 479 1047 481 q 969 481 993 478 q 926 489 945 485 q 899 493 907 493 q 890 469 889 493 q 907 400 890 444 q 949 276 930 336 q 968 168 968 215 q 950 106 968 138 q 903 50 932 75 q 837 9 873 25 q 761 -7 800 -7 q 705 13 730 -7 q 660 76 679 32 q 632 189 642 119 q 623 357 623 258 q 629 469 623 427 q 625 511 635 511 q 584 511 618 511 q 510 509 550 510 q 437 507 471 509 q 400 504 404 505 q 397 495 397 504 q 398 472 396 486 q 404 442 400 458 q 412 408 407 425 q 455 281 436 343 q 475 171 475 220 q 456 103 475 136 q 408 46 437 71 q 339 8 378 22 q 262 -7 301 -7 q 168 76 207 -7 q 129 334 129 158 q 131 406 129 376 q 136 453 134 435 q 137 480 138 471 q 132 496 136 490 q 107 500 125 503 q 71 498 89 498 q 44 503 58 498 q 16 517 29 507 q -5 546 3 528 q -14 593 -14 564 q -4 624 -14 614 q 19 640 5 635 q 48 646 33 646 q 71 647 62 647 q 109 645 94 647 q 132 641 123 643 q 144 638 140 639 q 153 640 149 637 q 161 657 158 644 q 170 691 164 669 q 189 743 176 713 q 224 812 201 774 q 272 871 244 848 q 330 908 300 895 q 392 926 361 921 q 450 930 422 930 q 515 924 485 930 q 567 906 545 918 q 601 879 589 895 q 614 846 614 864 q 601 815 614 827 q 561 803 589 803 q 533 808 547 803 q 490 814 518 814 q 432 787 453 814 q 402 726 411 760 q 393 665 393 693 q 396 636 392 637 q 447 633 408 633 q 529 632 486 632 q 605 633 571 632 q 642 636 639 635 q 650 650 647 637 q 659 685 653 663 q 678 739 665 707 q 715 811 690 771 q 769 873 739 850 q 829 910 799 897 q 888 926 860 922 q 933 930 916 930 q 1066 903 1025 930 q 1107 842 1107 876 q 1092 813 1107 823 q 1055 803 1078 803 q 1028 808 1043 803 q 985 814 1014 814 q 928 788 949 814 q 897 731 907 762 q 885 673 886 700 q 886 644 884 646 q 920 646 892 642 q 986 653 949 650 q 1064 652 1023 656 q 1135 629 1104 648 q 1141 656 1137 628 q 1152 724 1145 684 q 1171 809 1158 764 q 1204 886 1183 854 q 1251 924 1219 909 q 1315 939 1282 939 q 1386 914 1364 939 q 1409 843 1409 889 q 1399 715 1409 790 q 1389 532 1389 640 q 1400 410 1389 464 q 1424 313 1411 357 q 1447 233 1436 269 q 1458 161 1458 197 z "},"ß":{"ha":864,"x_min":35,"x_max":838,"o":"m 838 182 q 822 106 838 140 q 779 48 806 72 q 715 13 751 25 q 637 0 679 0 q 536 19 581 0 q 461 64 492 37 q 415 121 431 92 q 399 174 399 151 q 408 201 399 193 q 431 210 416 210 q 451 205 439 210 q 478 200 464 200 q 512 216 497 200 q 528 278 528 232 q 508 381 528 332 q 464 470 489 431 q 414 534 439 509 q 380 568 390 559 q 365 589 371 576 q 361 615 359 602 q 373 641 363 628 q 406 659 383 653 q 447 679 425 664 q 468 728 468 693 q 460 769 468 751 q 439 798 452 786 q 413 815 427 810 q 387 821 399 821 q 354 813 371 821 q 323 785 336 806 q 301 726 310 764 q 293 629 293 689 q 305 457 293 528 q 331 333 317 386 q 358 241 346 281 q 370 161 370 201 q 347 88 370 119 q 292 36 325 57 q 224 4 260 16 q 163 -7 189 -7 q 70 92 104 -7 q 35 406 35 191 q 64 644 35 546 q 144 804 94 742 q 258 893 195 865 q 389 921 322 921 q 506 904 446 921 q 615 859 566 888 q 697 791 665 831 q 729 705 729 751 q 712 651 729 672 q 671 619 696 631 q 617 602 646 607 q 564 596 589 597 q 522 594 539 595 q 505 589 505 593 q 530 570 505 586 q 592 528 554 554 q 672 465 629 501 q 751 385 714 429 q 813 290 789 340 q 838 182 838 239 z "},"®":{"ha":1121,"x_min":26,"x_max":1095,"o":"m 1095 463 q 1052 280 1095 366 q 938 131 1010 195 q 768 30 865 66 q 559 -7 671 -7 q 353 30 450 -7 q 183 131 256 66 q 68 280 110 195 q 26 463 26 366 q 68 645 26 559 q 183 794 110 730 q 353 894 256 857 q 559 930 450 930 q 768 894 671 930 q 938 794 865 857 q 1052 645 1010 730 q 1095 463 1095 559 m 1002 489 q 964 645 1002 575 q 865 765 926 715 q 724 843 804 815 q 559 871 644 871 q 381 843 463 871 q 241 765 300 815 q 151 645 183 715 q 119 489 119 575 q 151 338 119 404 q 241 228 183 272 q 381 160 300 183 q 559 138 463 138 q 738 160 657 138 q 878 228 819 183 q 969 338 936 272 q 1002 489 1002 404 m 815 366 q 804 320 815 342 q 776 282 793 298 q 741 257 760 267 q 707 248 722 248 q 642 283 671 248 q 589 372 614 319 q 565 428 576 400 q 543 478 553 456 q 526 514 533 500 q 515 528 519 528 q 507 510 507 528 q 512 462 507 485 q 522 418 517 439 q 533 376 528 397 q 538 334 538 355 q 506 275 538 302 q 412 248 475 248 q 385 258 397 248 q 362 296 372 269 q 348 367 353 322 q 343 478 343 411 q 359 630 343 561 q 390 730 375 699 q 432 769 406 761 q 494 778 458 778 q 567 771 522 778 q 655 745 612 764 q 728 693 697 726 q 760 607 760 660 q 739 542 760 566 q 694 506 718 518 q 649 489 669 493 q 628 481 628 485 q 657 462 628 471 q 722 440 686 453 q 786 411 757 428 q 815 366 815 393 m 615 654 q 594 693 615 681 q 553 705 572 705 q 520 694 530 705 q 510 667 510 684 q 525 634 510 650 q 566 618 539 618 q 605 629 595 618 q 615 654 615 640 z "},"©":{"ha":1121,"x_min":26,"x_max":1095,"o":"m 1095 463 q 1052 280 1095 366 q 938 131 1010 195 q 768 30 865 66 q 559 -7 671 -7 q 353 30 450 -7 q 183 131 256 66 q 68 280 110 195 q 26 463 26 366 q 68 645 26 559 q 183 794 110 730 q 353 894 256 857 q 559 930 450 930 q 768 894 671 930 q 938 794 865 857 q 1052 645 1010 730 q 1095 463 1095 559 m 1002 489 q 964 645 1002 575 q 865 765 926 715 q 724 843 804 815 q 559 871 644 871 q 381 843 463 871 q 241 765 300 815 q 151 645 183 715 q 119 489 119 575 q 151 338 119 404 q 241 228 183 272 q 381 160 300 183 q 559 138 463 138 q 738 160 657 138 q 878 228 819 183 q 969 338 936 272 q 1002 489 1002 404 m 781 376 q 765 316 781 343 q 722 270 749 289 q 661 242 696 252 q 589 232 627 232 q 502 242 553 232 q 404 283 450 253 q 323 367 357 313 q 290 507 290 421 q 315 629 290 578 q 382 714 340 681 q 479 763 424 747 q 596 778 534 778 q 715 750 673 778 q 757 692 757 722 q 744 660 757 676 q 708 644 732 644 q 674 653 688 644 q 647 674 660 663 q 620 695 635 686 q 579 704 604 704 q 529 698 553 704 q 487 676 505 692 q 459 634 469 661 q 449 566 449 607 q 490 474 449 507 q 593 441 532 441 q 628 448 614 441 q 654 461 642 454 q 679 474 667 468 q 707 481 690 481 q 763 449 745 481 q 781 376 781 416 z "},"™":{"ha":933,"x_min":7,"x_max":905,"o":"m 905 729 q 902 683 905 713 q 893 621 899 653 q 880 560 888 589 q 864 517 872 532 q 832 486 851 494 q 790 478 814 478 q 751 525 751 478 q 758 592 751 558 q 764 661 764 627 q 762 692 764 669 q 755 738 760 714 q 745 780 751 761 q 730 799 739 799 q 711 792 720 799 q 698 776 703 786 q 690 756 693 766 q 688 739 688 746 q 697 706 688 718 q 707 681 707 694 q 663 637 707 637 q 637 654 642 637 q 632 688 632 671 q 629 717 632 699 q 617 755 625 736 q 599 789 610 775 q 575 803 589 803 q 563 789 566 803 q 561 765 561 775 q 567 719 561 742 q 581 673 574 696 q 594 627 587 650 q 600 581 600 604 q 589 539 600 558 q 561 508 578 521 q 522 488 543 494 q 481 481 501 481 q 445 505 457 481 q 428 566 433 529 q 424 645 424 597 q 428 742 424 693 q 441 834 432 791 q 463 900 450 878 q 530 939 486 939 q 565 926 550 939 q 594 896 581 914 q 617 858 607 878 q 635 825 627 839 q 646 805 637 819 q 657 791 654 791 q 667 804 660 791 q 682 827 675 817 q 714 864 696 844 q 755 900 733 884 q 801 926 777 916 q 848 936 825 936 q 883 910 871 936 q 899 849 895 884 q 905 779 904 814 q 905 729 905 745 m 418 869 q 407 829 418 846 q 371 812 396 812 q 340 818 355 812 q 312 830 325 823 q 288 842 298 836 q 273 847 278 847 q 267 835 269 847 q 263 807 264 823 q 262 777 262 791 q 262 757 262 762 q 268 712 262 734 q 280 667 273 689 q 292 624 286 646 q 297 578 297 602 q 285 537 297 555 q 255 505 273 518 q 216 485 237 492 q 175 478 195 478 q 143 504 154 478 q 127 565 132 530 q 121 633 122 600 q 121 681 121 667 q 134 793 121 739 q 138 812 136 802 q 142 833 140 823 q 144 850 144 843 q 139 857 143 857 q 110 850 122 857 q 88 835 98 843 q 67 820 78 827 q 45 812 57 812 q 17 822 28 812 q 7 850 7 832 q 35 892 7 875 q 100 919 62 909 q 175 933 138 929 q 233 937 212 937 q 284 937 253 937 q 345 930 315 936 q 396 910 375 924 q 418 869 418 896 z "},"´":{"ha":282,"x_min":26,"x_max":256,"o":"m 256 857 q 243 796 256 823 q 210 747 231 768 q 163 715 189 726 q 109 704 136 704 q 48 726 69 704 q 26 777 26 747 q 72 827 26 818 q 142 850 113 833 q 201 907 172 867 q 212 919 207 914 q 225 924 216 924 q 240 916 235 924 q 249 898 245 908 q 254 876 253 888 q 256 857 256 864 z "},"¨":{"ha":528,"x_min":26,"x_max":501,"o":"m 501 818 q 485 777 501 796 q 447 743 469 757 q 399 722 424 729 q 354 714 374 714 q 310 724 330 714 q 289 758 289 733 q 305 803 289 783 q 344 837 321 822 q 392 859 367 851 q 439 867 418 867 q 481 856 461 867 q 501 818 501 844 m 237 818 q 221 777 237 796 q 183 743 205 757 q 135 722 160 729 q 90 714 110 714 q 47 724 68 714 q 26 758 26 733 q 42 803 26 783 q 80 837 57 822 q 129 859 103 851 q 175 867 154 867 q 218 856 199 867 q 237 818 237 844 z "},"≠":{"ha":694,"x_min":35,"x_max":660,"o":"m 660 315 q 633 253 660 273 q 568 232 607 232 q 470 235 528 232 q 351 237 412 237 q 343 232 345 237 q 331 184 338 211 q 319 138 325 157 q 281 57 304 77 q 227 37 258 37 q 194 47 208 37 q 171 72 179 57 q 163 108 163 87 q 172 151 163 129 q 186 184 179 167 q 204 227 193 201 q 200 232 205 232 q 171 231 193 232 q 129 229 149 229 q 61 251 87 229 q 35 311 35 272 q 60 364 35 343 q 129 385 85 385 q 156 384 138 385 q 194 383 174 383 q 233 382 214 383 q 260 382 252 382 q 268 389 265 382 q 285 435 275 406 q 301 484 294 464 q 294 490 304 490 q 264 489 286 490 q 218 486 243 488 q 169 484 193 485 q 129 482 144 482 q 61 504 87 482 q 35 564 35 525 q 60 617 35 596 q 129 637 85 637 q 163 637 140 637 q 214 635 186 636 q 275 634 243 635 q 338 633 307 633 q 353 644 349 633 q 377 725 368 690 q 392 778 386 760 q 419 817 400 806 q 461 828 439 828 q 497 818 482 828 q 520 793 513 808 q 528 758 528 778 q 521 718 529 737 q 507 687 514 703 q 489 647 500 671 q 494 640 486 640 q 531 642 513 642 q 564 643 549 643 q 631 624 602 643 q 660 568 660 604 q 633 506 660 526 q 568 485 607 485 q 537 486 555 485 q 499 487 518 486 q 462 488 479 488 q 432 489 444 489 q 422 484 424 489 q 406 438 415 465 q 389 390 396 411 q 392 382 386 382 q 436 383 412 382 q 483 386 460 385 q 527 389 505 387 q 564 390 549 390 q 631 371 602 390 q 660 315 660 351 z "},"Æ":{"ha":1257,"x_min":7,"x_max":1238,"o":"m 1238 293 q 1227 225 1238 254 q 1202 175 1217 196 q 1113 90 1165 123 q 999 36 1060 56 q 874 7 939 16 q 751 -1 810 -1 q 665 7 697 -1 q 615 30 633 16 q 590 63 597 45 q 576 102 582 82 q 564 142 571 122 q 541 178 557 161 q 512 198 529 189 q 474 213 494 207 q 433 223 454 220 q 396 227 412 227 q 342 214 364 227 q 321 165 321 201 q 326 131 321 147 q 330 97 330 115 q 305 48 330 68 q 244 15 279 28 q 172 -2 208 3 q 113 -7 135 -7 q 35 10 64 -7 q 7 79 7 26 q 17 182 7 125 q 42 297 26 239 q 75 412 57 355 q 111 511 93 468 q 155 602 127 551 q 217 703 183 652 q 285 800 250 754 q 349 875 319 846 q 392 910 368 895 q 447 926 416 926 q 510 903 484 926 q 555 843 536 880 q 562 835 559 835 q 572 846 566 835 q 628 892 591 876 q 708 915 665 908 q 795 923 751 922 q 871 924 839 924 q 930 923 896 924 q 999 919 964 922 q 1070 907 1035 916 q 1133 883 1105 899 q 1177 842 1160 867 q 1194 781 1194 817 q 1166 696 1194 729 q 1083 664 1137 664 q 1022 676 1051 664 q 965 702 993 688 q 908 729 937 717 q 846 741 879 741 q 811 731 823 741 q 792 706 799 721 q 783 672 785 690 q 781 635 781 653 q 782 610 781 625 q 790 595 783 595 q 846 600 818 595 q 904 606 875 606 q 944 604 924 606 q 980 594 964 602 q 1007 573 997 587 q 1018 533 1018 558 q 991 483 1018 496 q 932 469 965 469 q 865 474 897 469 q 798 479 832 479 q 790 472 790 479 q 797 436 790 456 q 817 400 804 416 q 845 371 829 383 q 878 359 861 359 q 1009 369 945 359 q 1139 379 1074 379 q 1216 355 1194 379 q 1238 293 1238 330 m 526 587 q 519 636 526 600 q 499 710 511 672 q 471 778 486 749 q 441 807 456 807 q 415 777 429 807 q 388 709 400 747 q 366 634 375 671 q 357 583 357 597 q 383 534 357 546 q 441 522 410 522 q 501 535 476 522 q 526 587 526 547 z "},"Ø":{"ha":1093,"x_min":31,"x_max":1063,"o":"m 1063 465 q 1025 263 1063 351 q 919 115 987 175 q 756 25 851 56 q 547 -5 661 -5 q 458 0 494 -5 q 410 5 421 5 q 394 -11 399 5 q 385 -51 389 -26 q 376 -104 380 -75 q 360 -156 371 -132 q 330 -196 349 -180 q 279 -212 311 -212 q 227 -192 248 -212 q 207 -140 207 -172 q 220 -89 207 -115 q 249 -38 233 -62 q 278 6 265 -14 q 292 37 292 25 q 286 46 292 43 q 249 65 267 56 q 215 85 232 74 q 74 251 117 151 q 31 468 31 351 q 69 639 31 557 q 176 783 107 721 q 340 883 244 846 q 553 921 436 921 q 577 920 564 921 q 595 920 590 920 q 608 921 604 920 q 615 936 611 922 q 624 969 619 949 q 632 1010 628 989 q 640 1050 636 1031 q 648 1079 644 1069 q 680 1115 659 1103 q 725 1126 701 1126 q 776 1112 753 1126 q 799 1065 799 1097 q 787 1026 799 1048 q 762 979 775 1003 q 737 934 749 956 q 725 899 725 913 q 729 892 725 893 q 861 827 800 868 q 966 732 921 786 q 1037 610 1011 677 q 1063 465 1063 543 m 576 803 q 572 809 578 806 q 547 812 567 812 q 465 794 504 812 q 398 743 427 775 q 353 668 370 711 q 336 574 336 624 q 348 490 336 530 q 387 416 359 449 q 404 399 393 410 q 421 389 415 389 q 433 406 427 389 q 453 455 440 421 q 482 531 467 489 q 513 618 497 572 q 543 703 529 664 q 566 770 557 742 q 576 803 575 798 m 760 581 q 748 653 760 621 q 721 710 736 686 q 692 746 707 733 q 673 758 677 758 q 665 750 668 758 q 651 713 663 743 q 625 641 640 682 q 593 551 610 599 q 562 463 576 504 q 537 393 547 422 q 525 358 526 364 q 547 350 524 350 q 657 376 615 350 q 722 439 699 403 q 752 514 745 475 q 760 581 760 554 z "},"±":{"ha":694,"x_min":35,"x_max":660,"o":"m 660 514 q 637 457 660 484 q 581 431 615 431 q 543 432 568 431 q 492 435 518 433 q 447 436 467 436 q 424 433 427 436 q 420 410 419 431 q 422 365 421 390 q 426 315 424 340 q 428 278 428 290 q 406 221 428 244 q 347 197 385 197 q 294 221 317 197 q 271 279 271 245 q 273 315 271 290 q 277 365 275 340 q 278 410 278 390 q 273 433 278 431 q 251 435 271 436 q 205 433 231 435 q 153 430 179 432 q 115 428 127 428 q 58 450 82 428 q 35 510 35 472 q 60 562 35 539 q 117 585 85 585 q 153 583 127 585 q 203 581 178 582 q 249 581 228 581 q 272 583 269 581 q 274 604 275 586 q 272 647 273 623 q 269 695 271 671 q 267 733 267 720 q 287 795 267 768 q 343 822 307 822 q 373 816 358 822 q 399 799 387 810 q 419 773 411 787 q 427 742 427 758 q 425 704 427 729 q 421 653 422 679 q 419 606 419 627 q 424 583 419 586 q 445 583 427 582 q 486 585 463 583 q 533 588 509 586 q 571 590 557 590 q 633 570 606 590 q 660 514 660 550 m 660 77 q 633 15 660 35 q 568 -5 607 -5 q 463 -3 525 -5 q 336 0 400 0 q 283 -1 311 0 q 227 -4 256 -3 q 174 -7 199 -5 q 129 -8 149 -8 q 61 13 87 -8 q 35 72 35 33 q 60 126 35 104 q 129 147 85 147 q 163 146 140 147 q 214 144 186 146 q 275 142 243 143 q 338 142 307 142 q 467 147 408 142 q 564 153 525 153 q 631 133 602 153 q 660 77 660 113 z "},"≤":{"ha":694,"x_min":35,"x_max":660,"o":"m 586 629 q 567 576 586 597 q 515 539 547 554 q 443 516 484 525 q 357 501 401 507 q 328 491 334 498 q 322 478 322 484 q 328 463 322 471 q 355 458 334 456 q 453 455 411 464 q 525 430 496 447 q 569 388 554 412 q 585 336 585 364 q 558 272 585 292 q 500 252 532 252 q 441 262 472 252 q 374 302 410 273 q 287 358 335 335 q 187 392 239 380 q 119 424 143 401 q 94 479 94 446 q 115 533 94 509 q 178 567 135 557 q 303 611 256 583 q 385 681 351 639 q 425 716 404 704 q 479 728 446 728 q 517 721 498 728 q 552 701 536 714 q 576 670 567 688 q 586 629 586 652 m 660 132 q 633 70 660 90 q 568 50 607 50 q 463 53 525 50 q 336 56 400 56 q 283 54 311 56 q 227 52 256 53 q 174 49 199 50 q 129 47 149 47 q 61 68 87 47 q 35 127 35 89 q 60 181 35 160 q 129 203 85 203 q 163 202 140 203 q 214 200 186 201 q 275 198 243 199 q 338 197 307 197 q 467 203 408 197 q 564 208 525 208 q 631 188 602 208 q 660 132 660 168 z "},"≥":{"ha":694,"x_min":35,"x_max":660,"o":"m 600 479 q 576 424 600 446 q 507 392 551 401 q 408 358 456 380 q 321 302 359 335 q 254 262 285 273 q 195 252 222 252 q 136 272 163 252 q 110 336 110 292 q 125 388 110 364 q 170 430 140 412 q 241 455 199 447 q 339 458 283 464 q 367 463 361 456 q 372 478 372 471 q 367 492 372 485 q 338 501 361 498 q 252 516 293 507 q 179 539 211 525 q 128 576 147 554 q 109 629 109 597 q 118 670 109 652 q 143 701 127 688 q 178 721 158 714 q 215 728 197 728 q 270 716 249 728 q 310 681 290 705 q 391 611 343 639 q 517 567 439 583 q 579 533 558 557 q 600 479 600 509 m 660 127 q 633 68 660 89 q 566 47 607 47 q 522 49 547 47 q 467 52 496 50 q 411 54 439 53 q 358 56 383 56 q 232 53 294 56 q 126 50 170 50 q 61 70 87 50 q 35 132 35 90 q 64 188 35 168 q 131 208 93 208 q 228 203 170 208 q 357 197 286 197 q 419 198 387 197 q 480 200 452 199 q 531 202 509 201 q 566 203 554 203 q 635 181 610 203 q 660 127 660 160 z "},"¥":{"ha":1069,"x_min":0,"x_max":1125,"o":"m 1125 283 q 1099 238 1125 256 q 1028 221 1074 221 q 985 223 1007 221 q 943 229 964 225 q 906 234 922 232 q 878 236 889 236 q 867 235 871 236 q 860 225 863 233 q 801 101 838 165 q 721 -23 765 36 q 628 -131 677 -82 q 528 -210 578 -179 q 409 -263 467 -245 q 302 -281 351 -281 q 262 -276 282 -281 q 226 -259 241 -271 q 201 -229 211 -248 q 192 -182 192 -210 q 219 -119 192 -143 q 282 -96 245 -96 q 345 -101 321 -96 q 401 -107 368 -107 q 447 -101 422 -107 q 491 -85 471 -94 q 525 -63 511 -75 q 539 -37 539 -50 q 533 -23 539 -31 q 517 -9 526 -16 q 451 33 486 7 q 382 92 415 60 q 319 158 349 123 q 268 227 289 193 q 254 236 262 235 q 235 237 245 237 q 182 232 218 237 q 115 227 146 227 q 28 242 57 227 q 0 294 0 257 q 17 337 0 318 q 78 355 33 355 q 104 353 89 355 q 135 347 119 350 q 166 342 151 345 q 191 339 180 339 q 195 347 201 339 q 182 366 189 354 q 138 453 158 403 q 103 555 118 503 q 80 659 89 608 q 72 749 72 710 q 83 844 72 810 q 110 895 94 879 q 142 915 122 908 q 196 921 161 921 q 313 900 262 921 q 395 846 363 879 q 444 774 428 814 q 460 696 460 734 q 459 666 460 684 q 457 632 458 648 q 455 601 456 615 q 454 579 454 586 q 477 468 454 513 q 531 395 500 422 q 594 357 562 368 q 644 346 627 346 q 721 393 690 346 q 751 511 751 440 q 741 599 751 555 q 717 685 730 643 q 694 765 704 726 q 684 836 684 803 q 713 903 684 885 q 783 921 743 921 q 833 912 804 921 q 887 873 861 903 q 931 786 913 843 q 949 635 949 729 q 947 587 949 616 q 939 519 945 557 q 924 440 933 482 q 903 357 916 399 q 899 345 900 350 q 905 339 897 339 q 952 346 916 339 q 1032 353 989 353 q 1101 337 1076 353 q 1125 283 1125 321 z "},"µ":{"ha":1093,"x_min":-14,"x_max":1107,"o":"m 1107 567 q 1103 535 1107 551 q 1087 507 1099 519 q 1058 486 1076 494 q 1008 478 1039 478 q 974 481 991 478 q 938 488 956 485 q 908 494 921 492 q 889 493 895 496 q 888 461 885 490 q 907 385 890 432 q 925 333 916 361 q 942 277 935 306 q 956 220 950 249 q 961 167 961 192 q 941 97 961 129 q 890 42 921 65 q 821 6 859 20 q 750 -7 783 -7 q 695 14 720 -7 q 653 80 671 35 q 626 196 636 125 q 616 366 616 267 q 618 411 616 386 q 620 458 619 436 q 621 496 621 481 q 616 513 621 511 q 576 515 610 515 q 504 513 543 514 q 433 510 465 511 q 395 507 400 509 q 391 476 387 505 q 407 412 395 447 q 452 282 432 342 q 472 170 472 222 q 453 100 472 132 q 405 44 435 68 q 337 7 375 21 q 264 -7 300 -7 q 208 13 233 -7 q 164 78 182 33 q 137 192 147 122 q 127 359 127 261 q 129 407 127 383 q 132 450 131 431 q 134 483 134 469 q 129 498 134 496 q 105 503 122 504 q 66 501 89 501 q 13 522 39 501 q -14 596 -14 543 q -5 626 -14 615 q 17 641 4 636 q 43 647 29 646 q 65 648 57 648 q 123 643 106 648 q 147 642 140 637 q 159 658 155 646 q 168 692 163 671 q 183 742 172 713 q 218 810 195 771 q 270 870 240 847 q 330 907 300 893 q 389 926 361 921 q 439 930 418 930 q 562 905 514 930 q 610 846 610 879 q 595 812 610 822 q 559 802 581 802 q 527 808 542 802 q 489 814 511 814 q 431 788 453 814 q 399 730 410 762 q 387 670 389 699 q 389 637 386 642 q 427 633 392 635 q 506 633 463 632 q 588 635 550 633 q 633 637 627 636 q 645 653 640 639 q 657 691 650 668 q 678 745 665 714 q 711 811 690 777 q 810 904 751 878 q 930 930 869 930 q 995 924 964 930 q 1050 907 1026 918 q 1087 880 1074 896 q 1101 844 1101 864 q 1054 802 1101 802 q 1018 808 1032 802 q 982 814 1003 814 q 925 789 947 814 q 892 733 903 764 q 880 676 882 703 q 882 646 878 650 q 900 644 886 643 q 933 646 914 644 q 971 651 951 648 q 1003 653 990 653 q 1040 649 1021 653 q 1073 636 1059 646 q 1097 610 1088 627 q 1107 567 1107 593 z "},"ª":{"ha":1485,"x_min":-14,"x_max":1458,"o":"m 1458 165 q 1447 115 1458 144 q 1409 59 1435 86 q 1340 13 1382 32 q 1240 -5 1299 -5 q 1203 9 1223 -5 q 1163 59 1182 24 q 1130 153 1143 94 q 1117 301 1117 212 q 1120 362 1117 330 q 1124 420 1122 393 q 1127 467 1126 447 q 1124 494 1128 488 q 1087 506 1120 503 q 1015 511 1054 510 q 940 510 975 511 q 895 505 904 509 q 888 494 889 504 q 890 468 888 484 q 897 433 892 453 q 909 396 903 414 q 930 338 921 368 q 948 276 940 307 q 962 218 957 245 q 966 168 966 191 q 947 99 966 131 q 897 43 928 66 q 828 6 865 20 q 754 -7 790 -7 q 704 11 728 -7 q 663 70 681 28 q 633 186 644 113 q 623 372 623 260 q 626 471 623 436 q 623 509 629 505 q 584 512 616 511 q 512 511 551 513 q 440 509 473 510 q 399 505 407 507 q 393 483 392 504 q 411 415 395 461 q 454 282 435 350 q 473 168 473 215 q 455 102 473 134 q 407 46 437 71 q 338 8 376 22 q 260 -7 300 -7 q 165 76 200 -7 q 131 347 131 158 q 132 445 131 406 q 126 496 134 485 q 105 501 119 504 q 77 498 92 498 q 46 503 62 498 q 17 517 31 507 q -5 546 4 528 q -14 591 -14 564 q -5 622 -14 611 q 15 639 3 633 q 41 646 28 644 q 62 647 54 647 q 125 641 107 647 q 150 640 143 635 q 158 655 155 643 q 168 690 161 668 q 186 742 174 711 q 221 811 199 772 q 272 872 243 848 q 333 909 301 896 q 394 926 364 922 q 446 930 424 930 q 573 902 532 930 q 615 842 615 873 q 568 802 615 802 q 536 808 553 802 q 492 815 519 815 q 433 788 454 815 q 403 728 412 761 q 393 666 393 694 q 397 636 392 637 q 446 632 408 633 q 526 631 484 631 q 602 633 568 632 q 640 636 636 635 q 651 655 646 639 q 663 697 656 672 q 683 753 671 722 q 715 815 694 785 q 768 873 739 851 q 827 908 798 896 q 882 926 856 921 q 926 930 908 930 q 1042 908 1010 930 q 1075 857 1075 885 q 1064 824 1075 838 q 1029 811 1053 811 q 1009 813 1022 811 q 981 815 996 815 q 927 787 947 815 q 897 726 907 760 q 884 664 886 692 q 885 636 882 636 q 999 636 940 633 q 1109 644 1057 639 q 1204 653 1161 648 q 1274 657 1247 657 q 1332 650 1310 657 q 1367 628 1354 643 q 1383 592 1379 614 q 1388 542 1388 571 q 1385 504 1388 528 q 1382 444 1382 481 q 1394 355 1382 395 q 1420 283 1406 315 q 1447 222 1435 250 q 1458 165 1458 195 m 1428 829 q 1410 782 1428 803 q 1368 746 1393 761 q 1315 722 1343 730 q 1265 714 1287 714 q 1239 717 1253 714 q 1215 726 1226 720 q 1197 742 1204 732 q 1189 768 1189 753 q 1206 818 1189 796 q 1249 854 1223 839 q 1301 878 1274 869 q 1350 886 1329 886 q 1376 883 1362 886 q 1401 873 1389 880 q 1420 856 1413 867 q 1428 829 1428 844 z "},"º":{"ha":1074,"x_min":-14,"x_max":1108,"o":"m 1108 566 q 1080 507 1108 529 q 1007 485 1053 485 q 941 492 968 485 q 890 498 914 498 q 886 468 879 498 q 905 400 893 437 q 925 340 916 372 q 943 276 935 309 q 957 215 951 244 q 962 164 962 186 q 944 98 962 129 q 895 45 925 68 q 827 8 865 22 q 749 -5 789 -5 q 701 11 724 -5 q 660 68 677 26 q 632 182 643 110 q 621 367 621 254 q 624 474 621 437 q 621 511 628 511 q 583 511 618 511 q 508 509 549 510 q 434 507 468 509 q 397 504 400 505 q 391 480 392 501 q 408 414 390 458 q 453 283 433 350 q 472 168 472 216 q 454 105 472 136 q 406 49 436 74 q 337 8 375 24 q 260 -7 300 -7 q 217 8 240 -7 q 174 61 195 22 q 141 168 154 100 q 127 342 127 236 q 132 447 127 411 q 126 496 136 484 q 101 500 121 503 q 65 498 82 498 q 39 503 53 498 q 13 517 25 507 q -6 547 1 528 q -14 593 -14 566 q -5 624 -14 612 q 15 640 3 635 q 41 645 28 644 q 62 646 54 646 q 126 640 109 646 q 149 639 143 635 q 160 657 157 644 q 168 691 163 669 q 186 743 174 713 q 224 814 199 772 q 275 873 248 851 q 333 908 302 896 q 392 925 363 921 q 444 929 421 929 q 521 921 489 929 q 573 900 553 913 q 602 872 593 888 q 611 840 611 856 q 598 813 611 825 q 559 802 586 802 q 529 808 545 802 q 490 814 514 814 q 431 787 452 814 q 401 726 410 760 q 392 665 392 693 q 393 635 392 637 q 429 632 396 633 q 503 631 461 631 q 584 632 545 631 q 637 637 624 633 q 644 662 642 639 q 655 720 647 685 q 676 793 663 754 q 715 864 690 832 q 775 912 742 897 q 836 928 808 928 q 897 903 879 928 q 914 847 914 878 q 910 808 914 829 q 900 764 905 786 q 890 720 895 742 q 886 681 886 699 q 900 648 886 650 q 920 649 907 647 q 949 654 933 652 q 980 658 965 656 q 1007 660 996 660 q 1078 639 1047 660 q 1108 566 1108 618 z "},"æ":{"ha":1310,"x_min":26,"x_max":1283,"o":"m 1283 418 q 1263 329 1283 368 q 1211 262 1243 290 q 1138 220 1178 235 q 1055 205 1097 205 q 964 218 1000 205 q 907 246 928 231 q 877 274 886 261 q 863 286 867 286 q 856 275 860 286 q 852 248 852 264 q 859 199 852 227 q 883 149 865 172 q 935 109 901 125 q 1021 93 968 93 q 1071 105 1048 93 q 1113 131 1093 117 q 1152 156 1132 144 q 1196 168 1173 168 q 1250 148 1234 168 q 1265 104 1265 127 q 1196 19 1265 50 q 991 -12 1126 -12 q 915 -7 953 -12 q 845 5 878 -1 q 788 18 812 12 q 751 24 764 24 q 701 8 734 24 q 615 -7 667 -7 q 554 57 554 -7 q 558 95 554 74 q 567 140 562 117 q 575 183 571 163 q 579 216 579 203 q 572 232 579 232 q 556 215 567 232 q 527 171 545 197 q 486 114 510 144 q 431 57 461 83 q 362 13 400 31 q 281 -4 325 -4 q 189 11 235 -4 q 107 59 143 26 q 48 142 71 92 q 26 264 26 193 q 62 432 26 359 q 158 555 97 505 q 300 631 220 606 q 471 657 380 657 q 569 646 532 657 q 628 621 607 635 q 659 596 650 607 q 672 585 668 585 q 702 597 681 585 q 760 624 724 610 q 847 651 796 639 q 965 664 897 664 q 1080 647 1023 664 q 1182 600 1137 631 q 1255 522 1227 568 q 1283 418 1283 476 m 1082 469 q 1052 528 1082 500 q 964 555 1022 555 q 909 547 932 555 q 872 525 886 538 q 850 497 857 511 q 843 469 843 482 q 880 410 843 433 q 962 387 917 387 q 1055 413 1028 387 q 1082 469 1082 439 m 564 450 q 530 522 564 494 q 435 549 497 549 q 370 539 401 549 q 314 513 339 530 q 274 471 289 496 q 260 412 260 446 q 288 347 260 378 q 380 317 315 317 q 462 330 428 317 q 519 362 496 343 q 553 406 542 382 q 564 450 564 429 z "},"ø":{"ha":840,"x_min":26,"x_max":814,"o":"m 814 321 q 778 170 814 232 q 684 69 742 109 q 552 11 625 29 q 406 -7 479 -7 q 366 -5 386 -7 q 326 0 346 -3 q 316 -1 319 1 q 310 -12 313 -3 q 299 -51 304 -29 q 290 -94 294 -72 q 280 -134 285 -115 q 268 -164 275 -153 q 244 -188 257 -182 q 218 -193 231 -193 q 174 -177 191 -193 q 158 -135 158 -160 q 166 -97 158 -117 q 185 -58 175 -78 q 206 -21 196 -39 q 221 12 216 -3 q 224 26 224 20 q 216 35 224 32 q 148 74 182 50 q 87 133 114 98 q 43 214 60 168 q 26 318 26 260 q 56 454 26 392 q 137 562 85 517 q 260 633 189 607 q 415 659 332 659 q 435 658 428 659 q 444 657 443 657 q 449 657 447 657 q 454 663 452 657 q 466 696 461 677 q 476 734 471 715 q 485 769 481 753 q 493 799 489 786 q 512 823 498 814 q 551 832 526 832 q 592 818 575 832 q 608 782 608 803 q 588 724 608 754 q 553 663 567 693 q 557 639 545 643 q 746 519 679 604 q 814 321 814 433 m 414 539 q 410 551 418 551 q 314 519 357 551 q 269 437 272 488 q 284 380 268 406 q 326 342 300 354 q 340 343 338 336 q 380 436 359 382 q 414 539 400 490 m 572 432 q 554 492 572 468 q 513 529 536 515 q 500 522 504 533 q 460 419 479 471 q 432 330 441 368 q 440 322 431 322 q 481 329 458 322 q 524 348 504 335 q 558 382 545 361 q 572 432 572 403 z "},"¿":{"ha":647,"x_min":-14,"x_max":647,"o":"m 481 599 q 463 549 481 571 q 421 510 446 526 q 367 486 396 494 q 314 478 338 478 q 266 490 290 478 q 241 529 241 501 q 259 576 241 554 q 302 615 277 599 q 357 641 328 632 q 408 650 386 650 q 456 638 432 650 q 481 599 481 627 m 647 -143 q 611 -218 647 -189 q 525 -264 575 -248 q 422 -286 475 -281 q 336 -292 370 -292 q 225 -280 286 -292 q 111 -244 164 -269 q 22 -176 57 -218 q -14 -71 -14 -134 q 14 35 -14 -8 q 83 107 41 78 q 174 155 125 136 q 266 188 224 174 q 335 215 307 201 q 363 245 363 228 q 350 258 363 257 q 322 264 338 260 q 295 280 307 268 q 282 323 282 293 q 296 365 282 347 q 331 395 310 383 q 376 413 351 407 q 419 419 400 419 q 473 413 447 419 q 521 392 500 407 q 554 356 542 378 q 567 302 567 335 q 555 251 567 273 q 525 211 543 229 q 484 179 507 193 q 439 153 461 165 q 385 117 414 139 q 333 70 357 96 q 295 16 310 45 q 279 -46 279 -14 q 284 -90 279 -68 q 300 -129 289 -111 q 330 -157 311 -146 q 376 -168 349 -168 q 429 -152 408 -168 q 468 -115 449 -135 q 509 -79 486 -96 q 570 -62 532 -62 q 627 -84 607 -62 q 647 -143 647 -106 z "},"¡":{"ha":403,"x_min":26,"x_max":368,"o":"m 271 599 q 253 549 271 571 q 211 510 236 526 q 157 486 186 494 q 104 478 127 478 q 56 490 81 478 q 32 529 32 501 q 49 578 32 555 q 92 616 66 600 q 147 641 118 632 q 199 650 176 650 q 247 638 222 650 q 271 599 271 627 m 368 16 q 367 -34 368 -4 q 360 -98 366 -64 q 347 -167 355 -132 q 326 -229 339 -201 q 293 -274 313 -257 q 248 -292 273 -292 q 172 -280 211 -292 q 101 -245 134 -268 q 47 -190 68 -222 q 26 -117 26 -158 q 39 -50 26 -83 q 66 21 52 -16 q 93 100 81 58 q 104 191 104 142 q 100 253 104 222 q 96 315 96 283 q 121 390 96 363 q 195 418 146 418 q 256 407 229 418 q 301 368 282 396 q 332 297 319 343 q 353 199 345 250 q 365 97 361 147 q 368 16 368 47 z "},"ƒ":{"ha":901,"x_min":-28,"x_max":929,"o":"m 929 781 q 906 725 929 746 q 850 704 884 704 q 786 723 804 704 q 759 765 768 742 q 739 806 750 787 q 696 825 728 825 q 640 808 667 825 q 591 765 612 790 q 556 708 570 739 q 543 653 543 677 q 551 647 543 647 q 610 652 576 647 q 692 657 644 657 q 740 641 720 657 q 761 596 761 625 q 735 543 761 559 q 676 526 710 526 q 643 528 661 526 q 607 534 625 530 q 573 540 589 538 q 545 542 557 542 q 533 539 536 542 q 530 525 530 536 q 545 337 530 425 q 559 161 559 249 q 539 -1 559 81 q 476 -146 519 -82 q 367 -251 433 -211 q 210 -292 301 -292 q 126 -282 168 -292 q 50 -253 83 -273 q -6 -198 16 -232 q -28 -115 -28 -164 q -5 -51 -28 -77 q 53 -25 17 -25 q 111 -44 90 -25 q 132 -98 132 -64 q 130 -126 132 -110 q 135 -157 127 -143 q 189 -187 149 -187 q 247 -162 227 -187 q 268 -100 268 -136 q 262 -43 268 -71 q 250 15 257 -16 q 237 83 243 46 q 232 170 232 119 q 236 290 232 231 q 252 408 240 349 q 258 443 254 424 q 267 480 262 463 q 274 514 271 498 q 278 536 278 529 q 272 542 278 542 q 239 537 262 542 q 196 532 215 532 q 150 546 168 532 q 132 591 132 561 q 153 637 132 621 q 210 653 174 653 q 262 649 235 653 q 300 644 289 644 q 307 646 302 644 q 314 656 311 647 q 460 857 363 783 q 700 930 557 930 q 779 922 739 930 q 853 895 819 913 q 908 848 886 876 q 929 781 929 819 z "},"«":{"ha":566,"x_min":20,"x_max":539,"o":"m 539 215 q 514 149 539 172 q 456 125 489 125 q 380 186 400 125 q 366 225 374 208 q 349 258 358 243 q 327 287 339 273 q 296 318 314 301 q 272 366 272 339 q 300 414 272 396 q 356 475 336 437 q 385 543 375 513 q 412 586 395 574 q 456 599 429 599 q 509 579 488 599 q 530 528 530 559 q 498 449 530 476 q 422 399 465 421 q 404 388 411 393 q 396 375 396 382 q 404 362 396 367 q 427 350 412 357 q 507 293 475 326 q 539 215 539 260 m 286 215 q 261 149 286 172 q 203 125 236 125 q 127 186 147 125 q 113 225 121 208 q 96 258 106 243 q 74 287 86 273 q 43 318 61 301 q 20 366 20 339 q 47 414 20 396 q 103 475 83 437 q 132 543 122 513 q 159 586 142 574 q 203 599 176 599 q 256 579 235 599 q 278 528 278 559 q 245 449 278 476 q 170 399 212 421 q 151 388 158 393 q 143 375 143 382 q 152 362 143 367 q 174 350 160 357 q 254 293 222 326 q 286 215 286 260 z "},"»":{"ha":566,"x_min":26,"x_max":546,"o":"m 279 215 q 311 293 279 260 q 392 350 343 326 q 414 362 406 357 q 422 375 422 367 q 415 388 422 382 q 396 399 407 393 q 320 449 353 421 q 288 528 288 476 q 309 579 288 559 q 363 599 330 599 q 406 586 389 599 q 433 543 424 574 q 463 475 443 513 q 518 414 482 437 q 546 366 546 396 q 522 318 546 339 q 492 287 504 301 q 470 258 479 273 q 452 225 460 243 q 437 186 444 208 q 363 125 418 125 q 304 149 329 125 q 279 215 279 172 m 26 215 q 58 293 26 260 q 139 350 90 326 q 161 362 153 357 q 170 375 170 367 q 162 388 170 382 q 143 399 154 393 q 67 449 100 421 q 35 528 35 476 q 56 579 35 559 q 110 599 78 599 q 154 586 136 599 q 180 543 171 574 q 210 475 191 513 q 265 414 229 437 q 293 366 293 396 q 269 318 293 339 q 239 287 252 301 q 217 258 227 273 q 199 225 207 243 q 184 186 192 208 q 110 125 165 125 q 52 149 77 125 q 26 215 26 172 z "},"…":{"ha":829,"x_min":26,"x_max":803,"o":"m 803 104 q 786 57 803 79 q 743 19 768 35 q 690 -6 718 3 q 639 -16 661 -16 q 592 -4 615 -16 q 568 36 568 7 q 586 85 568 64 q 628 123 603 107 q 682 147 653 139 q 732 155 710 155 q 779 144 755 155 q 803 104 803 132 m 532 104 q 514 57 532 79 q 472 19 497 35 q 418 -6 447 3 q 368 -16 390 -16 q 321 -4 345 -16 q 297 36 297 7 q 314 85 297 64 q 357 123 332 107 q 410 147 382 139 q 461 155 439 155 q 508 144 485 155 q 532 104 532 132 m 261 104 q 244 57 261 79 q 201 19 227 35 q 148 -6 176 3 q 97 -16 119 -16 q 50 -4 74 -16 q 26 36 26 7 q 44 85 26 64 q 86 123 61 107 q 140 147 111 139 q 192 155 168 155 q 238 144 215 155 q 261 104 261 132 z "},"À":{"ha":878,"x_min":7,"x_max":871,"o":"m 871 66 q 853 28 871 41 q 812 9 836 16 q 762 1 789 3 q 720 0 736 0 q 671 2 700 0 q 616 13 643 4 q 569 37 589 21 q 550 81 550 53 q 553 103 550 92 q 555 125 555 114 q 538 170 555 151 q 496 201 521 189 q 443 219 471 214 q 395 225 415 225 q 340 214 363 225 q 317 167 317 203 q 321 134 317 150 q 326 100 326 118 q 301 49 326 69 q 242 17 277 29 q 173 -1 208 4 q 115 -5 138 -5 q 74 -3 94 -5 q 40 8 54 0 q 16 32 25 17 q 7 72 7 47 q 15 177 7 122 q 37 287 24 232 q 67 394 50 342 q 103 493 85 447 q 151 594 122 541 q 212 698 179 647 q 279 794 244 749 q 345 869 314 839 q 388 905 364 889 q 443 921 412 921 q 487 910 468 921 q 522 880 505 899 q 592 799 557 846 q 659 701 627 753 q 720 596 692 650 q 770 493 749 543 q 807 390 789 447 q 840 275 825 334 q 863 162 854 216 q 871 66 871 107 m 521 589 q 512 636 521 602 q 492 708 504 671 q 465 773 479 745 q 437 802 450 802 q 411 772 427 802 q 383 705 396 743 q 360 631 370 667 q 351 581 351 595 q 378 532 351 545 q 433 519 404 519 q 496 533 472 519 q 521 589 521 546 m 554 1025 q 533 974 554 996 q 472 953 511 953 q 418 964 444 953 q 371 996 392 975 q 337 1044 350 1017 q 325 1105 325 1072 q 326 1124 325 1112 q 331 1146 328 1136 q 340 1165 335 1157 q 355 1173 346 1173 q 369 1167 364 1173 q 379 1156 374 1162 q 438 1099 408 1116 q 509 1075 468 1083 q 542 1058 529 1071 q 554 1025 554 1046 z "},"Ã":{"ha":878,"x_min":7,"x_max":871,"o":"m 616 1035 q 593 976 616 999 q 533 953 570 953 q 477 971 500 953 q 438 1010 454 989 q 408 1050 421 1032 q 380 1068 395 1068 q 367 1055 367 1068 q 371 1044 367 1050 q 380 1033 375 1039 q 389 1019 385 1026 q 393 1000 393 1011 q 380 974 393 983 q 350 964 367 964 q 306 987 318 964 q 294 1038 294 1011 q 317 1105 294 1078 q 379 1132 339 1132 q 418 1127 401 1132 q 448 1117 435 1122 q 473 1107 461 1112 q 497 1103 485 1103 q 508 1109 505 1103 q 513 1122 511 1116 q 519 1135 515 1129 q 532 1141 522 1141 q 564 1131 549 1141 q 591 1103 579 1120 q 610 1068 603 1086 q 616 1035 616 1050 m 871 66 q 853 28 871 41 q 812 9 836 16 q 762 1 789 3 q 720 0 736 0 q 671 2 700 0 q 616 13 643 4 q 569 37 589 21 q 550 81 550 53 q 553 103 550 92 q 555 125 555 114 q 538 170 555 151 q 496 201 521 189 q 443 219 471 214 q 395 225 415 225 q 340 214 363 225 q 317 167 317 203 q 321 134 317 150 q 326 100 326 118 q 301 49 326 69 q 242 17 277 29 q 173 -1 208 4 q 115 -5 138 -5 q 74 -3 94 -5 q 40 8 54 0 q 16 32 25 17 q 7 72 7 47 q 15 177 7 122 q 37 287 24 232 q 67 394 50 342 q 103 493 85 447 q 151 594 122 541 q 212 698 179 647 q 279 794 244 749 q 345 869 314 839 q 388 905 364 889 q 443 921 412 921 q 487 910 468 921 q 522 880 505 899 q 592 799 557 846 q 659 701 627 753 q 720 596 692 650 q 770 493 749 543 q 807 390 789 447 q 840 275 825 334 q 863 162 854 216 q 871 66 871 107 m 521 589 q 512 636 521 602 q 492 708 504 671 q 465 773 479 745 q 437 802 450 802 q 411 772 427 802 q 383 705 396 743 q 360 631 370 667 q 351 581 351 595 q 378 532 351 545 q 433 519 404 519 q 496 533 472 519 q 521 589 521 546 z "},"Õ":{"ha":1093,"x_min":31,"x_max":1063,"o":"m 714 1035 q 690 976 714 999 q 631 953 667 953 q 574 971 597 953 q 535 1010 551 989 q 506 1050 518 1032 q 479 1068 493 1068 q 465 1055 465 1068 q 478 1033 465 1043 q 490 1000 490 1022 q 477 974 490 983 q 447 964 464 964 q 405 987 416 964 q 393 1038 393 1011 q 415 1105 393 1078 q 478 1132 436 1132 q 515 1127 498 1132 q 546 1117 532 1122 q 571 1107 559 1112 q 595 1103 583 1103 q 606 1109 603 1103 q 610 1122 608 1116 q 616 1135 612 1129 q 629 1141 619 1141 q 661 1131 646 1141 q 688 1103 676 1120 q 707 1068 700 1086 q 714 1035 714 1050 m 1063 465 q 1020 250 1063 339 q 904 104 977 160 q 740 21 832 47 q 547 -5 647 -5 q 354 21 447 -5 q 190 104 261 47 q 74 252 118 161 q 31 468 31 342 q 69 639 31 557 q 176 783 107 721 q 340 883 244 846 q 553 921 436 921 q 738 889 646 921 q 902 797 829 857 q 1018 653 974 737 q 1063 465 1063 570 m 760 581 q 742 671 760 629 q 694 745 724 713 q 626 794 664 777 q 547 812 587 812 q 465 794 504 812 q 398 743 427 775 q 353 668 370 711 q 336 574 336 624 q 350 485 336 526 q 390 414 363 444 q 456 367 416 385 q 547 350 496 350 q 657 376 615 350 q 722 439 699 403 q 752 514 745 475 q 760 581 760 554 z "},"Œ":{"ha":1518,"x_min":31,"x_max":1499,"o":"m 1499 277 q 1468 179 1499 229 q 1377 87 1438 129 q 1227 20 1317 46 q 1019 -7 1137 -7 q 942 0 987 -7 q 865 24 897 7 q 824 51 838 39 q 806 64 810 64 q 786 53 803 64 q 737 29 768 41 q 658 6 705 17 q 549 -5 611 -5 q 354 22 447 -5 q 189 107 261 49 q 74 256 117 165 q 31 472 31 346 q 77 667 31 581 q 198 812 123 753 q 369 902 273 871 q 559 933 464 933 q 676 923 628 933 q 755 900 724 913 q 803 876 786 886 q 825 865 819 865 q 836 876 829 865 q 872 900 843 886 q 961 923 901 913 q 1128 933 1021 933 q 1372 902 1286 933 q 1458 789 1458 871 q 1431 706 1458 743 q 1346 669 1404 669 q 1278 685 1312 669 q 1210 718 1244 701 q 1140 745 1175 734 q 1071 745 1105 755 q 1049 717 1059 741 q 1037 667 1040 693 q 1036 620 1034 642 q 1046 599 1038 599 q 1102 606 1069 599 q 1166 612 1135 612 q 1276 538 1276 612 q 1196 472 1276 472 q 1138 478 1171 472 q 1053 485 1105 485 q 1051 456 1043 485 q 1078 392 1059 427 q 1108 365 1090 370 q 1152 361 1126 361 q 1208 365 1173 361 q 1283 372 1244 368 q 1356 378 1322 375 q 1406 382 1389 382 q 1480 351 1461 382 q 1499 277 1499 321 m 768 589 q 751 677 768 635 q 704 753 733 720 q 637 806 675 786 q 558 825 600 825 q 473 806 513 825 q 404 755 433 787 q 356 679 374 724 q 339 582 339 635 q 349 507 339 547 q 382 433 358 467 q 449 378 407 400 q 554 355 490 355 q 662 381 621 355 q 728 443 704 407 q 760 519 751 479 q 768 589 768 559 z "},"œ":{"ha":1335,"x_min":26,"x_max":1308,"o":"m 1308 419 q 1287 326 1308 366 q 1232 259 1265 286 q 1158 219 1198 232 q 1079 205 1118 205 q 987 218 1022 205 q 930 246 951 231 q 899 274 908 261 q 885 286 889 286 q 878 275 880 286 q 875 244 875 264 q 882 197 875 224 q 908 148 889 171 q 958 109 926 125 q 1040 93 990 93 q 1095 105 1072 93 q 1138 131 1118 117 q 1175 156 1157 144 q 1215 168 1193 168 q 1264 153 1239 168 q 1289 103 1289 138 q 1277 65 1289 85 q 1236 28 1265 45 q 1157 0 1207 11 q 1029 -11 1107 -11 q 878 2 939 -11 q 777 32 817 16 q 716 62 737 49 q 685 75 694 75 q 655 63 675 75 q 604 34 636 50 q 525 6 572 18 q 412 -7 478 -7 q 251 20 322 -7 q 129 91 179 46 q 53 196 79 136 q 26 322 26 256 q 50 442 26 382 q 122 551 74 503 q 244 631 171 600 q 418 661 318 661 q 539 649 489 661 q 621 621 589 636 q 671 593 653 606 q 696 581 689 581 q 724 594 703 581 q 780 622 745 607 q 867 651 815 637 q 986 664 918 664 q 1107 647 1048 664 q 1210 597 1165 629 q 1282 520 1255 566 q 1308 419 1308 475 m 1105 469 q 1072 530 1105 505 q 989 555 1038 555 q 897 528 928 555 q 867 469 867 501 q 878 433 867 449 q 906 408 889 418 q 945 392 924 397 q 989 387 966 387 q 1032 392 1011 387 q 1069 408 1053 397 q 1096 433 1086 418 q 1105 469 1105 449 m 578 436 q 561 495 578 472 q 519 532 543 518 q 469 551 496 546 q 424 557 443 557 q 362 547 390 557 q 315 519 335 536 q 283 481 294 503 q 272 436 272 460 q 311 355 272 389 q 425 321 350 321 q 473 326 447 321 q 523 346 500 332 q 562 381 546 359 q 578 436 578 403 z "},"–":{"ha":707,"x_min":35,"x_max":672,"o":"m 672 424 q 651 366 672 392 q 591 339 629 339 q 535 340 571 339 q 463 341 500 340 q 394 342 427 342 q 343 343 361 343 q 295 342 325 343 q 232 340 265 340 q 168 338 199 339 q 118 336 138 336 q 59 358 83 336 q 35 419 35 380 q 59 473 35 450 q 118 496 83 496 q 166 495 136 496 q 229 494 196 494 q 294 494 262 494 q 345 493 325 493 q 399 494 368 493 q 463 497 429 496 q 527 500 496 498 q 582 501 558 501 q 644 480 616 501 q 672 424 672 460 z "},"—":{"ha":863,"x_min":35,"x_max":828,"o":"m 828 427 q 806 368 828 395 q 746 340 783 340 q 678 341 725 340 q 580 343 631 342 q 484 345 529 345 q 421 346 439 346 q 360 345 403 346 q 270 342 318 343 q 180 340 222 342 q 118 339 138 339 q 59 361 83 339 q 35 422 35 383 q 60 474 35 452 q 118 497 85 497 q 179 497 136 497 q 269 496 221 497 q 360 496 317 496 q 422 496 403 496 q 489 497 446 496 q 579 500 532 498 q 670 503 627 501 q 737 504 714 504 q 800 483 772 504 q 828 427 828 463 z "},"“":{"ha":551,"x_min":26,"x_max":525,"o":"m 258 749 q 250 707 258 728 q 225 670 241 686 q 183 643 208 653 q 126 632 158 632 q 92 638 110 632 q 59 657 74 644 q 36 690 45 669 q 26 741 26 711 q 39 810 26 777 q 74 869 52 843 q 124 910 96 895 q 183 925 153 925 q 215 915 203 925 q 228 889 228 904 q 219 864 228 872 q 199 850 211 856 q 176 841 187 844 q 157 833 164 838 q 151 822 150 828 q 161 819 151 817 q 230 808 201 828 q 258 749 258 789 m 525 749 q 517 707 525 728 q 492 670 509 686 q 450 643 475 653 q 393 632 425 632 q 358 638 376 632 q 326 657 340 644 q 302 690 311 669 q 293 741 293 711 q 306 810 293 777 q 340 869 318 843 q 391 910 363 895 q 450 925 419 925 q 482 915 469 925 q 494 889 494 904 q 486 864 494 872 q 466 850 478 856 q 443 841 454 844 q 424 833 431 838 q 417 822 416 828 q 428 819 418 817 q 496 808 468 828 q 525 749 525 789 z "},"”":{"ha":551,"x_min":26,"x_max":525,"o":"m 26 808 q 35 850 26 829 q 60 887 43 871 q 101 915 77 904 q 158 925 126 925 q 193 919 175 925 q 225 900 211 913 q 249 867 240 888 q 258 817 258 846 q 246 747 258 781 q 211 688 233 714 q 161 647 189 663 q 102 632 134 632 q 70 643 82 632 q 57 668 57 653 q 65 694 57 685 q 85 708 74 703 q 109 716 97 713 q 127 724 121 720 q 134 735 135 729 q 123 737 134 741 q 55 749 83 729 q 26 808 26 768 m 293 808 q 301 850 293 829 q 327 887 310 871 q 368 915 343 904 q 425 925 393 925 q 460 919 441 925 q 493 900 478 913 q 516 867 507 888 q 525 817 525 846 q 512 747 525 781 q 478 688 500 714 q 428 647 456 663 q 368 632 400 632 q 336 643 349 632 q 323 668 323 653 q 332 694 323 685 q 352 708 340 703 q 376 716 364 713 q 395 724 387 720 q 401 735 401 729 q 390 737 400 741 q 321 749 350 729 q 293 808 293 768 z "},"‘":{"ha":285,"x_min":26,"x_max":258,"o":"m 258 749 q 250 707 258 728 q 225 670 241 686 q 183 643 208 653 q 126 632 158 632 q 92 638 110 632 q 59 657 74 644 q 36 690 45 669 q 26 741 26 711 q 39 810 26 777 q 74 869 52 843 q 124 910 96 895 q 183 925 153 925 q 215 915 203 925 q 228 889 228 904 q 219 864 228 872 q 199 850 211 856 q 176 841 187 844 q 157 833 164 838 q 151 822 150 828 q 161 819 151 817 q 230 808 201 828 q 258 749 258 789 z "},"’":{"ha":285,"x_min":26,"x_max":258,"o":"m 26 808 q 35 850 26 829 q 60 887 43 871 q 101 915 77 904 q 158 925 126 925 q 193 919 175 925 q 225 900 211 913 q 249 867 240 888 q 258 817 258 846 q 246 747 258 781 q 211 688 233 714 q 161 647 189 663 q 102 632 134 632 q 70 643 82 632 q 57 668 57 653 q 65 694 57 685 q 85 708 74 703 q 109 716 97 713 q 127 724 121 720 q 134 735 135 729 q 123 737 134 741 q 55 749 83 729 q 26 808 26 768 z "},"÷":{"ha":694,"x_min":35,"x_max":660,"o":"m 468 672 q 451 624 468 646 q 408 586 433 602 q 353 561 382 570 q 302 551 325 551 q 255 563 279 551 q 231 602 231 574 q 248 652 231 629 q 290 691 265 675 q 345 715 315 707 q 397 724 374 724 q 445 712 421 724 q 468 672 468 700 m 660 424 q 637 365 660 390 q 581 340 614 340 q 459 342 519 340 q 338 345 399 345 q 227 341 282 345 q 117 338 171 338 q 58 360 81 338 q 35 419 35 383 q 60 473 35 452 q 118 494 86 494 q 227 492 172 494 q 339 490 282 490 q 455 495 397 490 q 571 500 513 500 q 633 480 606 500 q 660 424 660 460 m 468 231 q 451 182 468 204 q 408 144 433 160 q 353 119 382 127 q 302 110 325 110 q 255 121 279 110 q 231 161 231 132 q 248 211 231 189 q 290 249 265 233 q 345 274 315 265 q 397 282 374 282 q 445 270 421 282 q 468 231 468 258 z "},"ÿ":{"ha":743,"x_min":7,"x_max":724,"o":"m 661 818 q 645 777 661 796 q 606 743 629 757 q 558 722 583 729 q 514 714 533 714 q 470 724 490 714 q 449 758 449 733 q 465 803 449 783 q 504 837 481 822 q 552 859 526 851 q 599 867 578 867 q 641 856 621 867 q 661 818 661 844 m 397 818 q 381 777 397 796 q 342 743 366 757 q 294 722 319 729 q 250 714 269 714 q 207 724 228 714 q 186 758 186 733 q 201 803 186 783 q 239 837 216 822 q 288 859 262 851 q 335 867 314 867 q 378 856 358 867 q 397 818 397 844 m 724 525 q 679 215 724 363 q 560 -47 633 66 q 392 -227 486 -160 q 200 -294 298 -294 q 119 -272 151 -294 q 86 -210 86 -249 q 107 -164 86 -182 q 160 -146 129 -146 q 212 -154 187 -146 q 257 -161 236 -161 q 324 -144 292 -161 q 378 -106 357 -127 q 407 -65 400 -85 q 397 -39 414 -45 q 260 50 329 -14 q 134 197 191 113 q 42 377 78 281 q 7 566 7 473 q 21 618 7 599 q 57 648 35 637 q 106 661 79 659 q 158 664 132 664 q 248 645 201 664 q 318 575 294 625 q 338 513 334 543 q 345 454 343 482 q 351 397 347 425 q 364 345 354 370 q 420 269 383 296 q 489 241 457 241 q 510 245 497 241 q 534 260 522 249 q 555 292 546 272 q 564 346 564 313 q 558 404 564 374 q 547 465 553 435 q 535 522 541 494 q 529 570 529 549 q 553 632 529 606 q 627 659 578 659 q 699 623 675 659 q 724 525 724 587 z "},"Ÿ":{"ha":901,"x_min":7,"x_max":882,"o":"m 732 1061 q 716 1019 732 1039 q 677 985 700 999 q 629 963 654 971 q 583 954 603 954 q 541 965 562 954 q 519 1000 519 975 q 535 1045 519 1025 q 573 1079 550 1065 q 622 1101 596 1093 q 668 1108 647 1108 q 712 1098 692 1108 q 732 1061 732 1088 m 471 1061 q 455 1019 471 1039 q 415 985 439 999 q 366 963 392 971 q 321 954 340 954 q 279 965 300 954 q 258 1000 258 975 q 274 1045 258 1025 q 311 1079 289 1065 q 359 1101 334 1093 q 406 1108 385 1108 q 450 1098 429 1108 q 471 1061 471 1088 m 882 637 q 862 451 882 553 q 802 248 842 350 q 706 51 762 146 q 577 -119 650 -45 q 416 -238 504 -193 q 228 -282 329 -282 q 154 -256 183 -282 q 125 -183 125 -231 q 153 -122 125 -147 q 215 -97 180 -97 q 275 -103 245 -97 q 332 -109 304 -109 q 368 -103 345 -109 q 416 -87 392 -97 q 457 -65 440 -78 q 475 -36 475 -52 q 463 -18 475 -25 q 387 31 422 5 q 315 90 351 57 q 201 223 257 144 q 103 390 146 301 q 33 571 60 478 q 7 749 7 664 q 10 814 7 783 q 26 869 14 846 q 63 907 39 893 q 127 921 87 921 q 229 906 180 921 q 315 863 278 892 q 374 790 351 833 q 396 689 396 746 q 392 634 396 661 q 389 579 389 607 q 402 499 389 541 q 440 424 415 458 q 501 367 465 389 q 579 345 536 345 q 628 362 608 345 q 661 404 648 379 q 679 458 673 429 q 685 511 685 488 q 674 594 685 553 q 652 676 664 636 q 630 757 640 717 q 619 835 619 798 q 646 902 619 884 q 717 921 672 921 q 803 892 771 921 q 853 820 835 863 q 876 728 871 778 q 882 637 882 679 z "},"⁄":{"ha":654,"x_min":14,"x_max":640,"o":"m 640 736 q 614 663 640 694 q 559 603 587 631 q 407 438 484 526 q 262 256 330 350 q 229 207 248 233 q 190 158 211 180 q 143 120 168 135 q 89 104 118 104 q 37 118 60 104 q 14 165 14 132 q 23 201 14 183 q 48 235 33 218 q 78 266 62 252 q 106 290 94 279 q 278 472 197 378 q 429 669 358 566 q 464 722 449 697 q 497 770 478 746 q 527 794 510 783 q 562 804 543 804 q 617 787 595 804 q 640 736 640 770 z "},"€":{"ha":950,"x_min":-28,"x_max":930,"o":"m 930 249 q 909 152 930 199 q 846 71 888 106 q 744 15 804 36 q 606 -5 684 -5 q 422 22 513 -5 q 260 105 332 49 q 144 246 189 161 q 100 446 100 330 q 98 454 100 453 q 92 454 97 454 q 68 452 81 454 q 40 450 56 450 q -9 463 9 450 q -28 504 -28 476 q 53 562 -28 562 q 76 561 60 562 q 97 559 93 559 q 105 560 103 559 q 109 568 107 561 q 113 589 110 576 q 118 607 115 602 q 118 615 121 614 q 110 615 115 616 q 95 613 103 614 q 75 612 86 612 q 25 625 45 612 q 5 665 5 637 q 27 710 5 696 q 87 724 49 724 q 123 722 98 724 q 160 720 149 720 q 170 722 168 720 q 178 730 172 724 q 357 873 244 825 q 607 921 469 921 q 729 909 676 921 q 817 878 782 897 q 871 833 852 859 q 889 782 889 808 q 861 720 889 739 q 803 701 833 701 q 748 716 770 701 q 704 749 726 732 q 653 782 682 766 q 575 798 624 798 q 480 778 522 798 q 415 726 439 758 q 418 718 410 718 q 505 722 460 718 q 572 726 550 726 q 627 713 604 726 q 650 668 650 700 q 630 622 650 637 q 581 606 611 606 q 544 608 567 606 q 493 612 521 610 q 436 615 465 614 q 382 616 407 616 q 373 615 376 616 q 368 606 370 614 q 367 585 367 597 q 367 562 367 572 q 370 555 367 555 q 380 554 374 554 q 438 557 407 554 q 489 561 469 561 q 544 549 521 561 q 567 507 567 538 q 547 461 567 476 q 497 446 528 446 q 450 449 479 446 q 411 454 421 452 q 406 444 397 457 q 490 374 437 399 q 599 350 542 350 q 667 360 639 350 q 718 384 694 371 q 762 408 741 397 q 812 418 783 418 q 867 402 844 418 q 904 361 889 386 q 924 307 918 336 q 930 249 930 277 z "},"‹":{"ha":313,"x_min":20,"x_max":286,"o":"m 286 215 q 261 149 286 172 q 203 125 236 125 q 127 186 147 125 q 113 225 121 208 q 96 258 106 243 q 74 287 86 273 q 43 318 61 301 q 20 366 20 339 q 47 414 20 396 q 103 475 83 437 q 132 543 122 513 q 159 586 142 574 q 203 599 176 599 q 256 579 235 599 q 278 528 278 559 q 245 449 278 476 q 170 399 212 421 q 151 388 158 393 q 143 375 143 382 q 152 362 143 367 q 174 350 160 357 q 254 293 222 326 q 286 215 286 260 z "},"›":{"ha":313,"x_min":26,"x_max":293,"o":"m 26 215 q 58 293 26 260 q 139 350 90 326 q 161 362 153 357 q 170 375 170 367 q 162 388 170 382 q 143 399 154 393 q 67 449 100 421 q 35 528 35 476 q 56 579 35 559 q 110 599 78 599 q 154 586 136 599 q 180 543 171 574 q 210 475 191 513 q 265 414 229 437 q 293 366 293 396 q 269 318 293 339 q 239 287 252 301 q 217 258 227 273 q 199 225 207 243 q 184 186 192 208 q 110 125 165 125 q 52 149 77 125 q 26 215 26 172 z "},"ﬁ":{"ha":989,"x_min":-14,"x_max":962,"o":"m 962 170 q 946 104 962 136 q 899 48 929 72 q 829 9 869 24 q 743 -5 789 -5 q 714 5 734 -5 q 674 48 694 16 q 638 141 653 81 q 623 301 623 201 q 625 363 623 330 q 630 425 628 396 q 633 472 632 453 q 629 494 633 492 q 585 506 621 503 q 508 511 549 510 q 433 511 467 513 q 396 505 400 509 q 394 477 392 503 q 411 408 396 452 q 453 283 433 347 q 473 168 473 218 q 457 106 473 138 q 411 50 440 75 q 343 10 382 25 q 260 -5 304 -5 q 206 15 231 -5 q 165 81 182 35 q 139 203 149 127 q 129 392 129 279 q 131 457 129 425 q 126 496 134 489 q 101 500 117 503 q 68 497 86 497 q 11 520 36 497 q -14 587 -14 543 q -5 622 -14 610 q 16 639 4 633 q 41 645 28 644 q 62 646 54 646 q 126 640 110 646 q 149 639 143 635 q 161 660 157 646 q 172 697 165 675 q 188 747 178 720 q 220 808 199 775 q 273 871 244 847 q 333 908 302 895 q 392 925 364 921 q 440 929 419 929 q 543 910 505 929 q 581 859 581 890 q 568 824 581 838 q 530 810 555 810 q 510 812 522 810 q 492 814 498 814 q 433 787 454 814 q 401 727 411 760 q 390 667 392 694 q 392 636 389 639 q 415 632 395 633 q 465 631 436 631 q 525 632 493 631 q 582 636 557 633 q 692 649 637 643 q 778 656 746 656 q 869 630 847 656 q 892 539 892 604 q 890 495 892 522 q 888 444 888 468 q 899 358 888 397 q 925 285 911 318 q 950 223 939 252 q 962 170 962 195 m 930 829 q 913 782 930 803 q 871 746 896 761 q 818 722 846 730 q 768 714 790 714 q 742 717 755 714 q 718 726 729 720 q 699 742 707 732 q 692 768 692 753 q 709 818 692 796 q 751 854 726 839 q 804 878 777 869 q 852 886 832 886 q 879 883 865 886 q 904 873 892 880 q 923 856 916 867 q 930 829 930 844 z "},"ﬂ":{"ha":979,"x_min":-14,"x_max":953,"o":"m 953 165 q 936 99 953 131 q 889 45 918 68 q 824 8 860 22 q 750 -5 787 -5 q 702 8 726 -5 q 658 67 677 22 q 627 197 639 113 q 615 419 615 281 q 617 471 615 443 q 623 517 619 500 q 620 526 624 524 q 612 522 616 528 q 513 478 576 478 q 449 486 481 478 q 404 493 418 493 q 393 487 396 493 q 393 463 390 481 q 411 399 399 435 q 437 323 424 363 q 460 244 450 283 q 471 168 471 204 q 452 103 471 135 q 403 46 433 71 q 334 8 372 22 q 258 -7 296 -7 q 208 13 232 -7 q 165 74 183 32 q 137 186 147 117 q 126 355 126 256 q 131 454 126 421 q 125 496 136 486 q 102 500 118 503 q 69 498 86 498 q 42 502 57 498 q 15 515 28 505 q -5 543 3 525 q -14 591 -14 561 q -6 620 -14 610 q 13 637 1 631 q 36 645 24 643 q 57 647 49 647 q 116 642 97 647 q 143 636 135 636 q 150 637 147 636 q 155 648 153 639 q 258 863 187 796 q 449 929 329 929 q 506 924 478 929 q 557 907 534 918 q 595 880 581 896 q 610 843 610 864 q 558 800 610 800 q 530 806 545 800 q 488 811 515 811 q 440 794 458 811 q 409 754 421 778 q 392 705 397 730 q 387 660 387 679 q 390 646 387 648 q 401 643 393 643 q 446 646 418 643 q 506 651 473 650 q 571 649 538 653 q 635 631 604 646 q 642 657 637 629 q 653 725 646 685 q 673 809 661 765 q 704 884 685 852 q 751 923 720 908 q 819 937 783 937 q 885 912 864 937 q 907 838 907 886 q 903 785 907 812 q 895 722 900 757 q 887 640 890 686 q 884 530 884 593 q 895 399 884 454 q 918 304 905 345 q 942 231 930 264 q 953 165 953 199 z "},"‡":{"ha":664,"x_min":20,"x_max":644,"o":"m 644 296 q 618 235 644 256 q 553 214 591 214 q 517 214 538 214 q 475 216 496 215 q 438 217 454 216 q 414 218 421 218 q 406 216 408 218 q 403 205 403 214 q 404 171 403 193 q 407 126 406 149 q 410 83 408 103 q 411 54 411 64 q 390 -9 411 17 q 323 -36 368 -36 q 258 -10 279 -36 q 237 47 237 16 q 240 109 237 65 q 245 197 243 153 q 244 214 248 211 q 235 216 241 216 q 215 216 229 216 q 184 214 201 215 q 148 212 167 212 q 114 211 129 211 q 46 232 72 211 q 20 292 20 253 q 44 345 20 323 q 114 367 69 367 q 142 366 123 367 q 179 365 160 366 q 213 363 197 364 q 236 363 229 363 q 250 378 250 363 l 250 461 l 250 567 q 247 578 250 576 q 236 581 243 581 q 215 580 231 581 q 181 578 200 579 q 144 576 163 576 q 114 575 125 575 q 46 596 72 575 q 20 657 20 618 q 44 710 20 689 q 114 730 69 730 q 142 730 125 730 q 177 729 160 729 q 208 728 193 729 q 228 728 222 728 q 240 731 235 728 q 244 747 245 734 q 239 813 241 777 q 237 875 237 850 q 258 932 237 907 q 323 958 279 958 q 390 932 368 958 q 411 868 411 905 q 409 814 411 848 q 404 749 407 779 q 407 732 403 734 q 421 729 411 729 q 440 730 425 729 q 474 732 454 732 q 514 734 493 733 q 549 736 534 736 q 615 716 586 736 q 644 661 644 697 q 618 598 644 619 q 553 578 591 578 q 519 578 539 578 q 478 580 498 579 q 439 581 457 581 q 411 582 421 582 q 397 568 397 582 l 397 463 l 397 378 q 410 364 397 364 q 433 366 416 364 q 471 368 450 367 q 512 371 492 370 q 549 372 533 372 q 615 352 586 372 q 644 296 644 332 z "},"·":{"ha":289,"x_min":26,"x_max":262,"o":"m 262 399 q 245 350 262 372 q 202 312 228 328 q 147 287 176 296 q 96 278 118 278 q 49 290 72 278 q 26 329 26 301 q 44 379 26 357 q 86 417 61 401 q 140 442 111 433 q 192 450 168 450 q 239 438 215 450 q 262 399 262 427 z "},"‚":{"ha":285,"x_min":26,"x_max":258,"o":"m 26 83 q 35 125 26 104 q 60 162 43 146 q 101 190 77 179 q 158 200 126 200 q 193 194 175 200 q 225 175 211 187 q 249 142 240 163 q 258 92 258 121 q 246 22 258 56 q 211 -37 233 -11 q 161 -78 189 -62 q 102 -93 134 -93 q 70 -82 82 -93 q 57 -57 57 -72 q 65 -32 57 -40 q 85 -18 74 -24 q 109 -9 97 -12 q 127 -1 121 -5 q 134 10 135 4 q 123 12 134 16 q 55 23 83 4 q 26 83 26 43 z "},"„":{"ha":551,"x_min":26,"x_max":525,"o":"m 26 83 q 35 125 26 104 q 60 162 43 146 q 101 190 77 179 q 158 200 126 200 q 193 194 175 200 q 225 175 211 187 q 249 142 240 163 q 258 92 258 121 q 246 22 258 56 q 211 -37 233 -11 q 161 -78 189 -62 q 102 -93 134 -93 q 70 -82 82 -93 q 57 -57 57 -72 q 65 -32 57 -40 q 85 -18 74 -24 q 109 -9 97 -12 q 127 -1 121 -5 q 134 10 135 4 q 123 12 134 16 q 55 23 83 4 q 26 83 26 43 m 293 83 q 301 125 293 104 q 327 162 310 146 q 368 190 343 179 q 425 200 393 200 q 460 194 441 200 q 493 175 478 187 q 516 142 507 163 q 525 92 525 121 q 512 22 525 56 q 478 -37 500 -11 q 428 -78 456 -62 q 368 -93 400 -93 q 336 -82 349 -93 q 323 -57 323 -72 q 332 -32 323 -40 q 352 -18 340 -24 q 376 -9 364 -12 q 395 -1 387 -5 q 401 10 401 4 q 390 12 400 16 q 321 23 350 4 q 293 83 293 43 z "},"‰":{"ha":1449,"x_min":26,"x_max":1422,"o":"m 526 660 q 507 561 526 604 q 453 486 488 517 q 373 440 419 456 q 273 424 326 424 q 177 440 222 424 q 99 488 132 457 q 46 561 65 518 q 26 657 26 604 q 46 758 26 713 q 99 835 65 803 q 180 884 134 867 q 281 901 227 901 q 377 883 332 901 q 456 833 422 865 q 508 756 489 800 q 526 660 526 713 m 1422 227 q 1403 128 1422 171 q 1349 55 1383 85 q 1269 9 1315 25 q 1171 -7 1223 -7 q 1098 1 1128 -7 q 1049 19 1068 9 q 1020 38 1029 29 q 1007 46 1010 46 q 992 38 1004 46 q 960 19 981 29 q 912 1 940 9 q 848 -7 885 -7 q 750 8 798 -7 q 668 53 703 24 q 612 125 633 82 q 591 224 591 168 q 610 326 591 281 q 663 404 629 371 q 744 453 697 436 q 847 471 791 471 q 908 462 880 471 q 957 443 936 453 q 991 423 978 432 q 1007 414 1004 414 q 1024 423 1011 414 q 1058 443 1038 432 q 1108 463 1079 454 q 1175 472 1137 472 q 1273 453 1227 472 q 1352 401 1318 435 q 1403 324 1385 368 q 1422 227 1422 279 m 366 739 q 340 803 366 781 q 273 825 314 825 q 210 802 235 825 q 186 739 186 779 q 213 681 186 703 q 275 659 240 659 q 338 679 311 659 q 366 739 366 699 m 1261 309 q 1237 371 1261 349 q 1173 393 1213 393 q 1107 370 1133 393 q 1082 307 1082 347 q 1109 249 1082 271 q 1174 228 1137 228 q 1236 249 1211 228 q 1261 309 1261 269 m 933 306 q 908 370 933 347 q 843 393 884 393 q 778 372 803 393 q 753 310 753 350 q 779 251 753 273 q 842 228 806 228 q 906 247 879 228 q 933 306 933 265 m 868 736 q 842 663 868 694 q 787 603 815 631 q 635 438 711 526 q 490 256 558 350 q 457 207 475 233 q 417 158 439 180 q 371 120 396 135 q 317 104 346 104 q 264 118 288 104 q 241 165 241 132 q 251 201 241 183 q 276 235 261 218 q 306 266 290 252 q 334 290 322 279 q 506 472 425 378 q 657 669 586 566 q 691 722 676 697 q 725 770 705 746 q 754 794 737 783 q 790 804 771 804 q 845 787 822 804 q 868 736 868 770 z "},"Â":{"ha":878,"x_min":7,"x_max":871,"o":"m 871 66 q 853 28 871 41 q 812 9 836 16 q 762 1 789 3 q 720 0 736 0 q 671 2 700 0 q 616 13 643 4 q 569 37 589 21 q 550 81 550 53 q 553 103 550 92 q 555 125 555 114 q 538 170 555 151 q 496 201 521 189 q 443 219 471 214 q 395 225 415 225 q 340 214 363 225 q 317 167 317 203 q 321 134 317 150 q 326 100 326 118 q 301 49 326 69 q 242 17 277 29 q 173 -1 208 4 q 115 -5 138 -5 q 74 -3 94 -5 q 40 8 54 0 q 16 32 25 17 q 7 72 7 47 q 15 177 7 122 q 37 287 24 232 q 67 394 50 342 q 103 493 85 447 q 151 594 122 541 q 212 698 179 647 q 279 794 244 749 q 345 869 314 839 q 388 905 364 889 q 443 921 412 921 q 487 910 468 921 q 522 880 505 899 q 592 799 557 846 q 659 701 627 753 q 720 596 692 650 q 770 493 749 543 q 807 390 789 447 q 840 275 825 334 q 863 162 854 216 q 871 66 871 107 m 521 589 q 512 636 521 602 q 492 708 504 671 q 465 773 479 745 q 437 802 450 802 q 411 772 427 802 q 383 705 396 743 q 360 631 370 667 q 351 581 351 595 q 378 532 351 545 q 433 519 404 519 q 496 533 472 519 q 521 589 521 546 m 632 1023 q 609 977 632 1000 q 550 954 586 954 q 499 971 519 954 q 466 1010 479 989 q 444 1048 452 1031 q 432 1065 436 1065 q 414 1045 424 1065 q 386 993 404 1025 q 359 967 375 974 q 332 961 343 961 q 299 974 314 961 q 285 1013 285 987 q 297 1045 285 1032 q 321 1063 309 1057 q 404 1139 382 1088 q 443 1162 415 1162 q 470 1156 458 1162 q 493 1135 482 1150 q 536 1089 514 1104 q 597 1065 558 1074 q 622 1052 612 1063 q 632 1023 632 1040 z "},"Ê":{"ha":803,"x_min":35,"x_max":783,"o":"m 603 1023 q 580 977 603 1000 q 521 954 557 954 q 470 971 490 954 q 436 1010 450 989 q 415 1048 422 1031 q 403 1065 407 1065 q 385 1045 395 1065 q 357 993 375 1025 q 330 967 346 974 q 302 961 314 961 q 270 974 285 961 q 256 1013 256 987 q 268 1045 256 1032 q 292 1063 279 1057 q 375 1139 353 1088 q 414 1162 386 1162 q 441 1156 429 1162 q 464 1135 453 1150 q 507 1089 485 1104 q 568 1065 529 1074 q 593 1052 583 1063 q 603 1023 603 1040 m 783 273 q 755 182 783 231 q 666 92 728 134 q 505 22 604 50 q 261 -5 406 -5 q 155 8 201 -5 q 86 62 109 22 q 49 191 64 103 q 35 406 35 279 q 43 533 35 465 q 64 661 52 600 q 92 772 77 722 q 121 846 107 822 q 172 888 138 873 q 248 910 205 903 q 335 920 290 918 q 416 921 379 921 q 663 882 581 921 q 746 772 746 843 q 740 730 746 750 q 719 694 733 710 q 681 670 704 679 q 624 661 657 661 q 562 676 593 661 q 500 708 532 692 q 435 734 469 724 q 363 734 401 745 q 340 708 349 730 q 329 659 332 685 q 328 612 326 633 q 335 590 329 590 q 393 597 366 590 q 457 604 421 604 q 566 528 566 604 q 546 485 566 504 q 482 465 526 465 q 426 472 457 465 q 342 478 395 478 q 339 459 338 478 q 350 417 340 440 q 380 376 359 395 q 432 357 400 357 q 485 360 453 357 q 552 366 517 363 q 622 372 587 370 q 686 375 657 375 q 718 373 701 375 q 749 362 734 371 q 773 332 764 353 q 783 273 783 311 z "},"Á":{"ha":878,"x_min":7,"x_max":871,"o":"m 871 66 q 853 28 871 41 q 812 9 836 16 q 762 1 789 3 q 720 0 736 0 q 671 2 700 0 q 616 13 643 4 q 569 37 589 21 q 550 81 550 53 q 553 103 550 92 q 555 125 555 114 q 538 170 555 151 q 496 201 521 189 q 443 219 471 214 q 395 225 415 225 q 340 214 363 225 q 317 167 317 203 q 321 134 317 150 q 326 100 326 118 q 301 49 326 69 q 242 17 277 29 q 173 -1 208 4 q 115 -5 138 -5 q 74 -3 94 -5 q 40 8 54 0 q 16 32 25 17 q 7 72 7 47 q 15 177 7 122 q 37 287 24 232 q 67 394 50 342 q 103 493 85 447 q 151 594 122 541 q 212 698 179 647 q 279 794 244 749 q 345 869 314 839 q 388 905 364 889 q 443 921 412 921 q 487 910 468 921 q 522 880 505 899 q 592 799 557 846 q 659 701 627 753 q 720 596 692 650 q 770 493 749 543 q 807 390 789 447 q 840 275 825 334 q 863 162 854 216 q 871 66 871 107 m 521 589 q 512 636 521 602 q 492 708 504 671 q 465 773 479 745 q 437 802 450 802 q 411 772 427 802 q 383 705 396 743 q 360 631 370 667 q 351 581 351 595 q 378 532 351 545 q 433 519 404 519 q 496 533 472 519 q 521 589 521 546 m 564 1107 q 551 1046 564 1074 q 518 997 539 1018 q 471 965 497 977 q 416 954 444 954 q 356 976 378 954 q 335 1026 335 997 q 380 1076 335 1068 q 451 1100 421 1083 q 510 1157 481 1117 q 520 1169 515 1164 q 533 1174 525 1174 q 549 1166 543 1174 q 557 1148 554 1158 q 562 1125 561 1137 q 564 1107 564 1114 z "},"Ë":{"ha":803,"x_min":35,"x_max":783,"o":"m 677 1060 q 662 1018 677 1038 q 622 984 646 999 q 574 962 599 970 q 529 954 549 954 q 486 964 507 954 q 465 1000 465 974 q 480 1045 465 1025 q 519 1079 496 1065 q 567 1101 542 1093 q 614 1108 593 1108 q 657 1098 636 1108 q 677 1060 677 1088 m 414 1060 q 398 1018 414 1038 q 359 984 382 999 q 311 962 336 970 q 265 954 285 954 q 223 964 244 954 q 201 1000 201 974 q 217 1045 201 1025 q 255 1079 232 1065 q 303 1101 278 1093 q 350 1108 329 1108 q 394 1098 374 1108 q 414 1060 414 1088 m 783 273 q 755 182 783 231 q 666 92 728 134 q 505 22 604 50 q 261 -5 406 -5 q 155 8 201 -5 q 86 62 109 22 q 49 191 64 103 q 35 406 35 279 q 43 533 35 465 q 64 661 52 600 q 92 772 77 722 q 121 846 107 822 q 172 888 138 873 q 248 910 205 903 q 335 920 290 918 q 416 921 379 921 q 663 882 581 921 q 746 772 746 843 q 740 730 746 750 q 719 694 733 710 q 681 670 704 679 q 624 661 657 661 q 562 676 593 661 q 500 708 532 692 q 435 734 469 724 q 363 734 401 745 q 340 708 349 730 q 329 659 332 685 q 328 612 326 633 q 335 590 329 590 q 393 597 366 590 q 457 604 421 604 q 566 528 566 604 q 546 485 566 504 q 482 465 526 465 q 426 472 457 465 q 342 478 395 478 q 339 459 338 478 q 350 417 340 440 q 380 376 359 395 q 432 357 400 357 q 485 360 453 357 q 552 366 517 363 q 622 372 587 370 q 686 375 657 375 q 718 373 701 375 q 749 362 734 371 q 773 332 764 353 q 783 273 783 311 z "},"È":{"ha":803,"x_min":35,"x_max":783,"o":"m 783 273 q 755 182 783 231 q 666 92 728 134 q 505 22 604 50 q 261 -5 406 -5 q 155 8 201 -5 q 86 62 109 22 q 49 191 64 103 q 35 406 35 279 q 43 533 35 465 q 64 661 52 600 q 92 772 77 722 q 121 846 107 822 q 172 888 138 873 q 248 910 205 903 q 335 920 290 918 q 416 921 379 921 q 663 882 581 921 q 746 772 746 843 q 740 730 746 750 q 719 694 733 710 q 681 670 704 679 q 624 661 657 661 q 562 676 593 661 q 500 708 532 692 q 435 734 469 724 q 363 734 401 745 q 340 708 349 730 q 329 659 332 685 q 328 612 326 633 q 335 590 329 590 q 393 597 366 590 q 457 604 421 604 q 566 528 566 604 q 546 485 566 504 q 482 465 526 465 q 426 472 457 465 q 342 478 395 478 q 339 459 338 478 q 350 417 340 440 q 380 376 359 395 q 432 357 400 357 q 485 360 453 357 q 552 366 517 363 q 622 372 587 370 q 686 375 657 375 q 718 373 701 375 q 749 362 734 371 q 773 332 764 353 q 783 273 783 311 m 525 1026 q 504 976 525 997 q 443 954 482 954 q 389 965 415 954 q 342 997 363 977 q 308 1046 321 1018 q 296 1107 296 1074 q 297 1125 296 1114 q 302 1148 298 1137 q 311 1166 306 1158 q 326 1174 317 1174 q 340 1169 335 1174 q 350 1157 345 1164 q 409 1101 379 1117 q 479 1076 439 1084 q 512 1060 500 1072 q 525 1026 525 1047 z "},"Í":{"ha":429,"x_min":35,"x_max":403,"o":"m 403 199 q 380 115 403 153 q 321 51 357 78 q 240 9 285 24 q 149 -5 195 -5 q 60 103 86 -5 q 35 415 35 212 q 42 530 35 468 q 62 652 50 593 q 89 762 74 711 q 117 840 103 812 q 181 901 138 882 q 269 921 225 921 q 334 895 314 921 q 354 823 354 868 q 344 719 354 783 q 334 557 334 654 q 345 450 334 497 q 368 361 355 403 q 392 280 380 319 q 403 199 403 240 m 359 1107 q 347 1046 359 1074 q 314 997 335 1018 q 267 965 293 977 q 212 954 240 954 q 152 976 174 954 q 131 1026 131 997 q 176 1076 131 1068 q 247 1100 216 1083 q 306 1157 277 1117 q 316 1169 311 1164 q 329 1174 321 1174 q 345 1166 339 1174 q 353 1148 350 1158 q 358 1125 357 1137 q 359 1107 359 1114 z "},"Î":{"ha":429,"x_min":35,"x_max":427,"o":"m 403 199 q 380 115 403 153 q 321 51 357 78 q 240 9 285 24 q 149 -5 195 -5 q 60 103 86 -5 q 35 415 35 212 q 42 530 35 468 q 62 652 50 593 q 89 762 74 711 q 117 840 103 812 q 181 901 138 882 q 269 921 225 921 q 334 895 314 921 q 354 823 354 868 q 344 719 354 783 q 334 557 334 654 q 345 450 334 497 q 368 361 355 403 q 392 280 380 319 q 403 199 403 240 m 427 1023 q 404 977 427 1000 q 345 954 380 954 q 294 971 314 954 q 259 1010 273 989 q 238 1048 245 1031 q 227 1065 231 1065 q 209 1045 218 1065 q 180 993 199 1025 q 154 967 170 974 q 126 961 138 961 q 94 974 109 961 q 79 1013 79 987 q 91 1045 79 1032 q 115 1063 103 1057 q 199 1139 176 1088 q 237 1162 210 1162 q 265 1156 253 1162 q 288 1135 277 1150 q 331 1089 309 1104 q 392 1065 353 1074 q 417 1052 407 1063 q 427 1023 427 1040 z "}}}
